<svg width="91" height="63" viewBox="0 0 91 63" fill="none" xmlns="http://www.w3.org/2000/svg">
<path d="M7.08 4.632C9.384 4.632 11.144 5.152 12.36 6.192C13.576 7.216 14.184 8.8 14.184 10.944V18H9.144V16.272C8.52 17.584 7.28 18.24 5.424 18.24C4.384 18.24 3.496 18.064 2.76 17.712C2.04 17.344 1.488 16.856 1.104 16.248C0.736 15.624 0.552 14.928 0.552 14.16C0.552 12.864 1.048 11.88 2.04 11.208C3.032 10.536 4.536 10.2 6.552 10.2H8.736C8.56 9.176 7.736 8.664 6.264 8.664C5.672 8.664 5.072 8.76 4.464 8.952C3.856 9.128 3.336 9.376 2.904 9.696L1.176 6.12C1.928 5.656 2.832 5.296 3.888 5.04C4.96 4.768 6.024 4.632 7.08 4.632ZM7.056 14.976C7.44 14.976 7.784 14.872 8.088 14.664C8.392 14.456 8.616 14.144 8.76 13.728V12.816H7.416C6.312 12.816 5.76 13.184 5.76 13.92C5.76 14.224 5.872 14.48 6.096 14.688C6.336 14.88 6.656 14.976 7.056 14.976ZM25.2881 4.632C26.4401 4.632 27.4961 4.912 28.4561 5.472C29.4321 6.016 30.2001 6.808 30.7601 7.848C31.3361 8.872 31.6241 10.064 31.6241 11.424C31.6241 12.784 31.3361 13.984 30.7601 15.024C30.2001 16.064 29.4321 16.864 28.4561 17.424C27.4961 17.968 26.4401 18.24 25.2881 18.24C23.6721 18.24 22.4721 17.8 21.6881 16.92V18H16.5281V0.191999H21.9521V5.76C22.7201 5.008 23.8321 4.632 25.2881 4.632ZM23.9921 14.016C24.6161 14.016 25.1281 13.792 25.5281 13.344C25.9281 12.88 26.1281 12.24 26.1281 11.424C26.1281 10.608 25.9281 9.976 25.5281 9.528C25.1281 9.08 24.6161 8.856 23.9921 8.856C23.3681 8.856 22.8561 9.08 22.4561 9.528C22.0561 9.976 21.8561 10.608 21.8561 11.424C21.8561 12.24 22.0561 12.88 22.4561 13.344C22.8561 13.792 23.3681 14.016 23.9921 14.016ZM40.2688 18.24C38.8128 18.24 37.5008 17.952 36.3328 17.376C35.1808 16.784 34.2768 15.976 33.6208 14.952C32.9648 13.912 32.6368 12.736 32.6368 11.424C32.6368 10.112 32.9648 8.944 33.6208 7.92C34.2768 6.88 35.1808 6.072 36.3328 5.496C37.5008 4.92 38.8128 4.632 40.2688 4.632C41.7408 4.632 43.0528 4.92 44.2048 5.496C45.3728 6.072 46.2768 6.88 46.9168 7.92C47.5728 8.944 47.9008 10.112 47.9008 11.424C47.9008 12.736 47.5728 13.912 46.9168 14.952C46.2768 15.976 45.3728 16.784 44.2048 17.376C43.0528 17.952 41.7408 18.24 40.2688 18.24ZM40.2688 14.016C40.8928 14.016 41.4048 13.792 41.8048 13.344C42.2048 12.88 42.4048 12.24 42.4048 11.424C42.4048 10.608 42.2048 9.976 41.8048 9.528C41.4048 9.08 40.8928 8.856 40.2688 8.856C39.6448 8.856 39.1328 9.08 38.7328 9.528C38.3328 9.976 38.1328 10.608 38.1328 11.424C38.1328 12.24 38.3328 12.88 38.7328 13.344C39.1328 13.792 39.6448 14.016 40.2688 14.016ZM63.9504 4.872V18H58.7904V16.752C58.3104 17.248 57.7504 17.624 57.1104 17.88C56.4704 18.12 55.7904 18.24 55.0704 18.24C53.4064 18.24 52.0704 17.736 51.0624 16.728C50.0544 15.704 49.5504 14.168 49.5504 12.12V4.872H54.9744V11.184C54.9744 12.08 55.1184 12.72 55.4064 13.104C55.6944 13.488 56.1184 13.68 56.6784 13.68C57.2064 13.68 57.6464 13.472 57.9984 13.056C58.3504 12.624 58.5264 11.952 58.5264 11.04V4.872H63.9504ZM76.0283 17.544C75.2123 18.008 74.1003 18.24 72.6923 18.24C70.8523 18.24 69.4363 17.8 68.4443 16.92C67.4523 16.024 66.9563 14.688 66.9563 12.912V9.552H65.1562V5.592H66.9563V1.92H72.3803V5.592H75.0683V9.552H72.3803V12.864C72.3803 13.264 72.4843 13.576 72.6923 13.8C72.9003 14.024 73.1723 14.136 73.5083 14.136C73.9723 14.136 74.3803 14.016 74.7323 13.776L76.0283 17.544ZM1.2 26.872H6.624V40H1.2V26.872ZM3.912 25.816C2.936 25.816 2.144 25.56 1.536 25.048C0.944 24.52 0.648 23.856 0.648 23.056C0.648 22.256 0.944 21.6 1.536 21.088C2.144 20.56 2.936 20.296 3.912 20.296C4.904 20.296 5.696 20.544 6.288 21.04C6.88 21.536 7.176 22.176 7.176 22.96C7.176 23.792 6.88 24.48 6.288 25.024C5.696 25.552 4.904 25.816 3.912 25.816ZM18.1481 26.632C19.7641 26.632 21.0601 27.12 22.0361 28.096C23.0281 29.072 23.5241 30.544 23.5241 32.512V40H18.1001V33.448C18.1001 31.944 17.5641 31.192 16.4921 31.192C15.8841 31.192 15.3881 31.408 15.0041 31.84C14.6361 32.256 14.4521 32.92 14.4521 33.832V40H9.02813V26.872H14.1881V28.168C14.7001 27.656 15.2921 27.272 15.9641 27.016C16.6361 26.76 17.3641 26.632 18.1481 26.632ZM40.2613 26.872L34.9813 40H29.3653L24.0853 26.872H29.6533L32.2933 33.904L35.1253 26.872H40.2613ZM47.6751 40.24C46.2191 40.24 44.9071 39.952 43.7391 39.376C42.5871 38.784 41.6831 37.976 41.0271 36.952C40.3711 35.912 40.0431 34.736 40.0431 33.424C40.0431 32.112 40.3711 30.944 41.0271 29.92C41.6831 28.88 42.5871 28.072 43.7391 27.496C44.9071 26.92 46.2191 26.632 47.6751 26.632C49.1471 26.632 50.4591 26.92 51.6111 27.496C52.7791 28.072 53.6831 28.88 54.3231 29.92C54.9791 30.944 55.3071 32.112 55.3071 33.424C55.3071 34.736 54.9791 35.912 54.3231 36.952C53.6831 37.976 52.7791 38.784 51.6111 39.376C50.4591 39.952 49.1471 40.24 47.6751 40.24ZM47.6751 36.016C48.2991 36.016 48.8111 35.792 49.2111 35.344C49.6111 34.88 49.8111 34.24 49.8111 33.424C49.8111 32.608 49.6111 31.976 49.2111 31.528C48.8111 31.08 48.2991 30.856 47.6751 30.856C47.0511 30.856 46.5391 31.08 46.1391 31.528C45.7391 31.976 45.5391 32.608 45.5391 33.424C45.5391 34.24 45.7391 34.88 46.1391 35.344C46.5391 35.792 47.0511 36.016 47.6751 36.016ZM57.0047 22.192H62.4287V40H57.0047V22.192ZM76.1923 39.544C75.3763 40.008 74.2643 40.24 72.8563 40.24C71.0163 40.24 69.6003 39.8 68.6083 38.92C67.6163 38.024 67.1203 36.688 67.1203 34.912V31.552H65.3203V27.592H67.1203V23.92H72.5443V27.592H75.2323V31.552H72.5443V34.864C72.5443 35.264 72.6483 35.576 72.8563 35.8C73.0643 36.024 73.3363 36.136 73.6723 36.136C74.1363 36.136 74.5443 36.016 74.8963 35.776L76.1923 39.544ZM83.4394 26.632C85.7434 26.632 87.5034 27.152 88.7194 28.192C89.9354 29.216 90.5434 30.8 90.5434 32.944V40H85.5034V38.272C84.8794 39.584 83.6394 40.24 81.7834 40.24C80.7434 40.24 79.8554 40.064 79.1194 39.712C78.3994 39.344 77.8474 38.856 77.4634 38.248C77.0954 37.624 76.9114 36.928 76.9114 36.16C76.9114 34.864 77.4074 33.88 78.3994 33.208C79.3914 32.536 80.8954 32.2 82.9114 32.2H85.0954C84.9194 31.176 84.0954 30.664 82.6234 30.664C82.0314 30.664 81.4314 30.76 80.8234 30.952C80.2154 31.128 79.6954 31.376 79.2634 31.696L77.5354 28.12C78.2874 27.656 79.1914 27.296 80.2474 27.04C81.3194 26.768 82.3834 26.632 83.4394 26.632ZM83.4154 36.976C83.7994 36.976 84.1434 36.872 84.4474 36.664C84.7514 36.456 84.9754 36.144 85.1194 35.728V34.816H83.7754C82.6714 34.816 82.1194 35.184 82.1194 35.92C82.1194 36.224 82.2314 36.48 82.4554 36.688C82.6954 36.88 83.0154 36.976 83.4154 36.976ZM1.2 48.872H6.624V62H1.2V48.872ZM3.912 47.816C2.936 47.816 2.144 47.56 1.536 47.048C0.944 46.52 0.648 45.856 0.648 45.056C0.648 44.256 0.944 43.6 1.536 43.088C2.144 42.56 2.936 42.296 3.912 42.296C4.904 42.296 5.696 42.544 6.288 43.04C6.88 43.536 7.176 44.176 7.176 44.96C7.176 45.792 6.88 46.48 6.288 47.024C5.696 47.552 4.904 47.816 3.912 47.816ZM18.1481 48.632C19.7641 48.632 21.0601 49.12 22.0361 50.096C23.0281 51.072 23.5241 52.544 23.5241 54.512V62H18.1001V55.448C18.1001 53.944 17.5641 53.192 16.4921 53.192C15.8841 53.192 15.3881 53.408 15.0041 53.84C14.6361 54.256 14.4521 54.92 14.4521 55.832V62H9.02813V48.872H14.1881V50.168C14.7001 49.656 15.2921 49.272 15.9641 49.016C16.6361 48.76 17.3641 48.632 18.1481 48.632ZM33.1701 62.24C31.6821 62.24 30.3461 61.952 29.1621 61.376C27.9941 60.8 27.0741 59.992 26.4021 58.952C25.7461 57.912 25.4181 56.736 25.4181 55.424C25.4181 54.112 25.7461 52.944 26.4021 51.92C27.0741 50.88 27.9941 50.072 29.1621 49.496C30.3461 48.92 31.6821 48.632 33.1701 48.632C34.7701 48.632 36.1381 48.976 37.2741 49.664C38.4101 50.352 39.1941 51.304 39.6261 52.52L35.4261 54.584C34.9141 53.432 34.1541 52.856 33.1461 52.856C32.5061 52.856 31.9701 53.08 31.5381 53.528C31.1221 53.976 30.9141 54.608 30.9141 55.424C30.9141 56.256 31.1221 56.896 31.5381 57.344C31.9701 57.792 32.5061 58.016 33.1461 58.016C34.1541 58.016 34.9141 57.44 35.4261 56.288L39.6261 58.352C39.1941 59.568 38.4101 60.52 37.2741 61.208C36.1381 61.896 34.7701 62.24 33.1701 62.24ZM43.7964 62.24C42.8844 62.24 42.1244 61.952 41.5164 61.376C40.9244 60.784 40.6284 60.032 40.6284 59.12C40.6284 58.208 40.9244 57.472 41.5164 56.912C42.1244 56.336 42.8844 56.048 43.7964 56.048C44.7084 56.048 45.4604 56.336 46.0524 56.912C46.6604 57.472 46.9644 58.208 46.9644 59.12C46.9644 60.032 46.6604 60.784 46.0524 61.376C45.4604 61.952 44.7084 62.24 43.7964 62.24Z" fill="white"/>
</svg>
