<?xml version="1.0" encoding="utf-8"?>
<!-- Generator: Adobe Illustrator 24.0.1, SVG Export Plug-In . SVG Version: 6.00 Build 0)  -->
<svg version="1.1" id="Layer_1" xmlns="http://www.w3.org/2000/svg" xmlns:xlink="http://www.w3.org/1999/xlink" x="0px" y="0px"
	 viewBox="0 0 69 72" style="enable-background:new 0 0 69 72;" xml:space="preserve">
<style type="text/css">
	.st0{fill:#62ADBF;}
</style>
<title>google</title>
<path class="st0" d="M34.5,2c-18.8,0-34,15.2-34,34.1s15.2,34,34.1,34s34-15.2,34-34.1c0,0,0,0,0,0C68.5,17.2,53.3,2,34.5,2z
	 M24.4,53.6c-9.7,0-17.6-7.9-17.6-17.6c0-9.7,7.9-17.6,17.6-17.6c4.4,0,8.6,1.6,11.8,4.6l-4.8,4.6c-1.9-1.8-4.4-2.8-7-2.7
	c-6.2,0-11.1,5-11.1,11.1c0,6.2,5,11.1,11.1,11.1c7,0,9.6-5,10-7.6h-10v-6.1h16.6c0.2,1,0.3,1.9,0.3,2.9
	C41.3,46.5,34.6,53.6,24.4,53.6z M57.2,38.5v5h-5v-5h-5v-5h5v-5h5v5h5v5H57.2z"/>
</svg>
