<?xml version="1.0" encoding="utf-8"?>
<!-- Generator: Adobe Illustrator 24.0.1, SVG Export Plug-In . SVG Version: 6.00 Build 0)  -->
<svg version="1.1" id="Layer_1" xmlns="http://www.w3.org/2000/svg" xmlns:xlink="http://www.w3.org/1999/xlink" x="0px" y="0px"
	 viewBox="0 0 69 72" style="enable-background:new 0 0 69 72;" xml:space="preserve">
<style type="text/css">
	.st0{fill:#62ADBF;}
</style>
<title>twit</title>
<path class="st0" d="M34.5,2c-18.8,0-34,15.2-34,34.1s15.2,34,34.1,34s34-15.2,34-34.1c0,0,0,0,0,0C68.5,17.2,53.3,2,34.5,2z
	 M50.9,29.1c0,0.3,0,0.7,0,1c0,10.5-8,22.6-22.6,22.6c-4.3,0-8.5-1.2-12.2-3.6c0.6,0.1,1.3,0.1,1.9,0.1c3.6,0,7-1.2,9.9-3.4
	c-3.4-0.1-6.4-2.3-7.4-5.5c0.5,0.1,1,0.2,1.5,0.2c0.7,0,1.4-0.1,2.1-0.3c-3.7-0.8-6.4-4-6.4-7.8v-0.1c1.1,0.6,2.3,1,3.6,1
	c-2.2-1.5-3.5-4-3.5-6.6c0-1.4,0.4-2.8,1.1-4c4,4.9,10,8,16.3,8.3c-0.1-0.6-0.2-1.2-0.2-1.8c0-4.4,3.6-7.9,7.9-7.9
	c2.2,0,4.3,0.9,5.8,2.5c1.8-0.4,3.5-1,5-1.9c-0.6,1.8-1.8,3.4-3.5,4.4c1.6-0.2,3.1-0.6,4.6-1.2C53.8,26.6,52.4,28,50.9,29.1z"/>
</svg>
