<?xml version="1.0" encoding="iso-8859-1"?>
<!-- Generator: Adobe Illustrator 19.0.0, SVG Export Plug-In . SVG Version: 6.00 Build 0)  -->
<svg version="1.1" id="Capa_1" xmlns="http://www.w3.org/2000/svg" xmlns:xlink="http://www.w3.org/1999/xlink" x="0px" y="0px"
	 viewBox="0 0 512 512" style="enable-background:new 0 0 512 512;" xml:space="preserve">
<g>
	<g>
		<path d="M368.232,409.926l-45.045-45.274c-8.991-9.047-21.404-13.601-34.043-12.488c-12.488,1.095-23.742,7.609-30.876,17.873
			c-0.209,0.302-0.407,0.609-0.594,0.925l-7.404,12.486c-16.885-4.556-51.823-16.625-78.473-43.436
			c-26.477-26.638-38.402-61.739-42.9-78.69l12.515-7.279c0.327-0.191,0.647-0.393,0.96-0.607
			c10.306-7.071,16.888-18.285,18.06-30.766c1.185-12.637-3.291-25.073-12.287-34.123L103.1,143.273
			c-13.137-13.218-32.919-16.513-49.221-8.205c-28.26,14.402-46.106,40.198-51.606,74.598
			c-10.254,64.132,24.35,147.052,88.16,211.25C147.103,477.932,218.694,512,278.999,512c7.601,0,15.026-0.541,22.217-1.646
			c34.445-5.293,60.355-22.982,74.927-51.153C384.551,442.948,381.374,423.148,368.232,409.926z M349.076,445.2
			c-10.056,19.439-27.717,31.226-52.49,35.034c-54.077,8.313-128.243-24.159-184.54-80.799
			c-56.294-56.636-88.316-130.964-79.682-184.956c3.955-24.737,15.849-42.32,35.352-52.259c1.549-0.79,3.255-1.171,4.977-1.171
			c3.166,0,6.39,1.29,8.797,3.712l45.047,45.274c2.597,2.614,3.893,6.181,3.554,9.789c-0.185,1.962-1.03,5.581-4.588,8.22
			l-21.605,12.565c-5.465,3.177-8.4,9.4-7.376,15.639c0.411,2.506,10.574,61.898,53.661,105.247
			c43.085,43.347,102.439,53.9,104.944,54.327c6.222,1.063,12.453-1.819,15.672-7.248l12.75-21.503
			c2.661-3.552,6.29-4.378,8.255-4.55c3.613-0.32,7.169,1.001,9.773,3.619l45.045,45.274
			C350.335,435.147,351.343,440.816,349.076,445.2z"/>
	</g>
</g>
<g>
	<g>
		<path d="M362.982,200.435c-7.97,0-15.606,7.008-15.237,15.237c0.37,8.255,6.695,15.237,15.237,15.237
			c7.97,0,15.606-7.008,15.237-15.237C377.849,207.416,371.523,200.435,362.982,200.435z"/>
	</g>
</g>
<g>
	<g>
		<path d="M362.98,66.86c-26.59,0-48.222,21.633-48.222,48.222c0,8.415,6.822,15.237,15.237,15.237
			c8.415,0,15.237-6.822,15.237-15.237c0-9.787,7.962-17.749,17.749-17.749c9.787,0,17.749,7.963,17.749,17.749
			c0,9.787-7.963,17.749-17.749,17.749c-8.415,0-15.237,6.822-15.237,15.237v23.715c0,8.415,6.822,15.237,15.237,15.237
			c8.416,0,15.237-6.821,15.237-15.237v-10.944c19.147-6.391,32.986-24.488,32.986-45.756C411.202,88.492,389.57,66.86,362.98,66.86
			z"/>
	</g>
</g>
<g>
	<g>
		<path d="M467.722,43.785C438.851,14.915,400.446-0.636,359.594,0.02c-39.404,0.625-76.389,16.529-104.141,44.784
			c-27.746,28.248-42.992,65.511-42.931,104.925c0.034,21.955,4.95,43.783,14.266,63.543l-19.185,55.834
			c-3.428,9.976-0.923,20.807,6.536,28.266c5.25,5.251,12.17,8.045,19.287,8.045c2.995,0,6.025-0.495,8.98-1.51l55.834-19.185
			c19.759,9.316,41.587,14.232,63.543,14.266c0.08,0,0.156,0,0.236,0c39.324-0.001,76.498-15.242,104.69-42.932
			c28.254-27.751,44.158-64.737,44.783-104.141C512.137,111.057,496.593,72.656,467.722,43.785z M481.021,151.428
			c-1.024,64.601-54.389,117.084-119.008,117.084c-0.059,0-0.125,0-0.185,0c-19.285-0.029-38.433-4.782-55.376-13.746
			c-3.723-1.97-8.094-2.31-12.077-0.942l-55.901,19.209l19.208-55.9c1.368-3.983,1.028-8.354-0.942-12.077
			c-8.963-16.942-13.716-36.09-13.746-55.375c-0.101-64.697,52.423-118.166,117.082-119.192c0.653-0.01,1.302-0.015,1.954-0.015
			c31.802,0,61.619,12.336,84.144,34.858C469.162,88.317,481.536,118.893,481.021,151.428z"/>
	</g>
</g>
<g>
</g>
<g>
</g>
<g>
</g>
<g>
</g>
<g>
</g>
<g>
</g>
<g>
</g>
<g>
</g>
<g>
</g>
<g>
</g>
<g>
</g>
<g>
</g>
<g>
</g>
<g>
</g>
<g>
</g>
</svg>
