<svg width="778" height="184" viewBox="0 0 778 184" fill="none" xmlns="http://www.w3.org/2000/svg">
<rect x="638.526" y="26.2705" width="138.727" height="138.727" rx="69.3637" fill="#B4DB4D"/>
<path fill-rule="evenodd" clip-rule="evenodd" d="M2.44287 144.673H31.7473V43.9023H2.44287V144.673Z" fill="black"/>
<path fill-rule="evenodd" clip-rule="evenodd" d="M194.313 121.9L175.632 43.9023H146.522L176.645 144.673H211.423L241.762 43.9023H212.539L194.313 121.9Z" fill="black"/>
<path fill-rule="evenodd" clip-rule="evenodd" d="M292.643 126.645C280.603 126.645 274.582 117.385 274.582 95.0861C274.582 73.354 280.603 63.7171 292.643 63.7171C304.685 63.7171 310.704 72.9769 310.704 95.276C310.704 117.008 304.685 126.645 292.643 126.645ZM292.643 41.7949C262.165 41.7949 243.728 62.959 243.728 95.085C243.728 128.911 262.353 148.565 292.643 148.565C323.121 148.565 341.558 127.4 341.558 95.275C341.558 61.4478 323.121 41.7949 292.643 41.7949Z" fill="black"/>
<path fill-rule="evenodd" clip-rule="evenodd" d="M16.3256 0C7.30807 0 0 7.34165 0 16.3975C0 25.4543 7.30807 32.796 16.3256 32.796C25.3412 32.796 32.6492 25.4543 32.6492 16.3975C32.6492 7.34165 25.3412 0 16.3256 0Z" fill="black"/>
<path fill-rule="evenodd" clip-rule="evenodd" d="M109.288 42.6292C105.138 42.1146 101.155 41.8254 97.3364 41.7187C95.8627 41.6935 94.4467 41.6785 93.0894 41.6738C73.931 41.8179 59.3829 46.5704 50.303 50.7213L50.1968 59.5863L50.3551 64.6878V145.355H78.6298V63.1467C82.9028 60.9524 86.9896 60.3311 91.3427 60.1318L91.3418 60.1309C91.3418 60.1309 92.074 60.0672 93.1667 60.071C93.8552 60.0579 94.5082 60.086 95.1295 60.1515C96.6135 60.2712 98.2931 60.5501 99.7044 61.1574C103.1 62.6199 105.04 64.0815 106.253 67.7364C106.253 67.7364 106.495 68.9547 106.495 69.9288C106.495 70.2928 106.739 74.4651 106.739 79.5489C106.781 80.6989 106.795 81.8433 106.795 82.9652V145.355H136.521V72.0332C136.05 51.6841 121.508 44.7561 109.288 42.6292Z" fill="black"/>
<path fill-rule="evenodd" clip-rule="evenodd" d="M528.324 128.255C526.155 128.441 521.409 128.755 513.265 127.686C506.022 126.735 501.899 122.349 501.874 113.372C501.845 102.564 508.191 98.6486 521.72 98.6486H528.324V128.255ZM558.404 139.649C558.355 133.53 558.174 121.774 558.174 115.072V74.3809C559.14 51.0188 545.771 40.3535 516.834 40.3535C505.558 40.3535 494.588 42.2839 481.371 46.2588L486.02 63.9739C498.834 61.3866 504.79 60.8701 511.168 60.4864C522.417 59.808 528.717 65.5515 528.267 72.1052L528.323 82.2297H518.901C488.648 82.2297 472.104 94.1208 472.112 116.015C472.116 128.042 478.173 137.405 488.527 142.016C493.907 144.651 501.975 144.91 513.783 144.943C541.316 145.021 556.684 145.042 558.285 144.821L558.416 142.561V142.361L558.404 139.649Z" fill="black"/>
<path fill-rule="evenodd" clip-rule="evenodd" d="M355.428 145.287H385.125V2.42578L355.428 5.32557V145.287Z" fill="black"/>
<path fill-rule="evenodd" clip-rule="evenodd" d="M458.315 127.271C446.596 128.258 443.327 126.734 441.872 124.297C440.694 122.326 440.511 120.372 440.177 116.199C440.099 115.505 440.053 114.809 440.052 114.119C440.05 113.817 440.05 113.515 440.05 113.214C440.044 112.784 440.043 112.335 440.046 111.863C440.046 111.859 440.047 111.854 440.047 111.849C440.01 96.8069 440.014 81.7643 440.012 66.7216L440.013 65.4341H466.579V45.1936H439.933L439.942 43.9491V11.9307C430.636 13.8002 420.055 16.3604 410.804 18.2196V43.6964L410.813 45.1936H397.907V64.6116C397.931 64.9915 397.957 65.2507 397.984 65.3555C398.413 65.3826 398.883 65.4388 399.354 65.4397C402.693 65.4481 406.032 65.4416 409.371 65.4472C409.836 65.4481 410.302 65.494 410.858 65.5249V67.0913C410.858 79.8891 410.854 92.6878 410.861 105.486C410.863 109.414 410.812 113.344 410.932 117.267C411.078 122.051 410.81 127.751 412.528 132.249C415.447 139.89 422.143 144.572 429.299 146.578C432.059 147.351 436.549 148.109 440.029 148.23C444.381 148.382 448.235 148.3 452.475 147.934C457.558 147.497 462.41 146.189 467.788 144.601C466.395 138.309 465.046 133.004 463.514 126.625C459.87 127.129 461.902 126.969 458.315 127.271Z" fill="black"/>
<path fill-rule="evenodd" clip-rule="evenodd" d="M633.609 50.4116C627.56 50.4116 622.318 51.6411 617.878 54.0955C613.439 56.5518 609.771 59.7847 606.876 63.7896C603.98 67.7972 601.791 72.3542 600.313 77.4585C598.832 82.5657 598.093 87.7673 598.093 93.0663C598.093 98.8827 598.832 104.408 600.313 109.643C601.791 114.878 604.044 119.435 607.069 123.312C610.091 127.19 613.825 130.261 618.264 132.521C622.703 134.784 627.819 135.915 633.609 135.915C639.656 135.915 644.931 134.752 649.437 132.424C653.939 130.098 657.704 126.932 660.729 122.924C663.751 118.919 666.003 114.363 667.484 109.255C668.962 104.151 669.704 98.7555 669.704 93.0663C669.704 87.51 668.962 82.1455 667.484 76.9738C666.003 71.8059 663.751 67.2489 660.729 63.3049C657.704 59.3636 653.939 56.228 649.437 53.9009C644.931 51.5747 639.656 50.4116 633.609 50.4116ZM677.039 46.3408V140.763C677.039 146.32 676.397 151.718 675.111 156.952C673.827 162.187 671.613 166.807 668.467 170.815C665.322 174.821 660.988 178.02 655.468 180.412C649.949 182.802 642.952 183.999 634.48 183.999C629.217 183.999 624.273 183.448 619.654 182.351C615.033 181.252 610.989 179.507 607.523 177.117C604.055 174.723 601.262 171.558 599.146 167.616C597.027 163.671 595.839 158.795 595.583 152.978H602.918C603.304 157.37 604.396 161.121 606.199 164.223C608 167.325 610.349 169.876 613.245 171.881C616.14 173.884 619.388 175.338 622.993 176.244C626.594 177.147 630.453 177.602 634.574 177.602C641.393 177.602 647.087 176.565 651.657 174.499C656.222 172.43 659.86 169.749 662.562 166.452C665.264 163.157 667.161 159.406 668.256 155.208C669.348 151.006 669.896 146.773 669.896 142.508V119.63H669.511C666.037 126.997 661.307 132.62 655.324 136.498C649.34 140.376 642.102 142.314 633.609 142.314C626.273 142.314 619.934 141.054 614.596 138.533C609.254 136.013 604.815 132.522 601.277 128.064C597.736 123.604 595.101 118.403 593.363 112.456C591.627 106.512 590.758 100.047 590.758 93.0678C590.758 86.4757 591.689 80.2073 593.556 74.2608C595.42 68.3171 598.155 63.1127 601.76 58.653C605.361 54.1943 609.834 50.6405 615.175 47.9896C620.513 45.3415 626.66 44.0146 633.609 44.0146C641.456 44.0146 648.694 46.0208 655.324 50.0248C661.95 54.0334 666.679 59.7197 669.511 67.0867H669.896V46.3408H677.039Z" fill="black"/>
<mask id="mask0_475_1862" style="mask-type:alpha" maskUnits="userSpaceOnUse" x="686" y="44" width="92" height="105">
<path fill-rule="evenodd" clip-rule="evenodd" d="M686.213 44.0146H777.319V148.325H686.213V44.0146Z" fill="white"/>
</mask>
<g mask="url(#mask0_475_1862)">
<path fill-rule="evenodd" clip-rule="evenodd" d="M693.548 96.1682C693.548 102.115 694.383 107.835 696.057 113.326C697.728 118.822 700.174 123.7 703.392 127.965C706.607 132.231 710.598 135.624 715.359 138.145C720.119 140.664 725.59 141.925 731.766 141.925C737.943 141.925 743.411 140.664 748.173 138.145C752.933 135.624 756.923 132.231 760.14 127.965C763.356 123.7 765.802 118.822 767.475 113.326C769.146 107.835 769.985 102.115 769.985 96.1682C769.985 90.2245 769.146 84.5054 767.475 79.01C765.802 73.5173 763.356 68.6366 760.14 64.3716C756.923 60.1056 752.933 56.7127 748.173 54.1928C743.411 51.672 737.943 50.4116 731.766 50.4116C725.59 50.4116 720.119 51.672 715.359 54.1928C710.598 56.7127 706.607 60.1056 703.392 64.3716C700.174 68.6366 697.728 73.5173 696.057 79.01C694.383 84.5054 693.548 90.2245 693.548 96.1682ZM686.213 96.1697C686.213 89.0629 687.208 82.3735 689.205 76.1032C691.199 69.8349 694.127 64.3094 697.987 59.5251C701.848 54.7455 706.607 50.9642 712.271 48.1833C717.932 45.4061 724.431 44.0146 731.766 44.0146C739.101 44.0146 745.597 45.4061 751.261 48.1833C756.922 50.9642 761.685 54.7455 765.545 59.5251C769.406 64.3094 772.331 69.8349 774.328 76.1032C776.321 82.3735 777.32 89.0629 777.32 96.1697C777.32 103.28 776.321 110.002 774.328 116.333C772.331 122.668 769.406 128.194 765.545 132.911C761.685 137.631 756.922 141.378 751.261 144.156C745.597 146.934 739.101 148.325 731.766 148.325C724.431 148.325 717.932 146.934 712.271 144.156C706.607 141.378 701.848 137.631 697.987 132.911C694.127 128.194 691.199 122.668 689.205 116.333C687.208 110.002 686.213 103.28 686.213 96.1697Z" fill="black"/>
</g>
</svg>
