<svg width="27" height="27" viewBox="0 0 27 27" fill="none" xmlns="http://www.w3.org/2000/svg">
<path d="M26.4199 19.9861V7.01348C26.4199 6.23828 25.7502 5.60547 24.9275 5.60547H2.07246C1.2498 5.60547 0.580078 6.23828 0.580078 7.01348V19.9861C0.580078 20.7613 1.2498 21.3942 2.07246 21.3942H24.9275C25.7502 21.3942 26.4199 20.7666 26.4199 19.9861ZM1.87207 19.9861V7.01348C1.87207 6.96602 1.95117 6.89746 2.07246 6.89746H24.9275C25.0541 6.89746 25.1279 6.97129 25.1279 7.01348V19.9861C25.1279 20.0336 25.0488 20.1022 24.9275 20.1022H2.07246C1.95117 20.1022 1.87207 20.0336 1.87207 19.9861Z" fill="black" fill-opacity="0.2"/>
<path d="M5.23652 10.8842C5.68213 10.8842 6.04336 10.5229 6.04336 10.0773C6.04336 9.63174 5.68213 9.27051 5.23652 9.27051C4.79092 9.27051 4.42969 9.63174 4.42969 10.0773C4.42969 10.5229 4.79092 10.8842 5.23652 10.8842Z" fill="black" fill-opacity="0.2"/>
<path d="M8.54316 10.8842C8.98877 10.8842 9.35 10.5229 9.35 10.0773C9.35 9.63174 8.98877 9.27051 8.54316 9.27051C8.09756 9.27051 7.73633 9.63174 7.73633 10.0773C7.73633 10.5229 8.09756 10.8842 8.54316 10.8842Z" fill="black" fill-opacity="0.2"/>
<path d="M11.8439 10.8842C12.2895 10.8842 12.6508 10.5229 12.6508 10.0773C12.6508 9.63174 12.2895 9.27051 11.8439 9.27051C11.3983 9.27051 11.0371 9.63174 11.0371 10.0773C11.0371 10.5229 11.3983 10.8842 11.8439 10.8842Z" fill="black" fill-opacity="0.2"/>
<path d="M15.1506 10.8842C15.5962 10.8842 15.9574 10.5229 15.9574 10.0773C15.9574 9.63174 15.5962 9.27051 15.1506 9.27051C14.705 9.27051 14.3438 9.63174 14.3438 10.0773C14.3438 10.5229 14.705 10.8842 15.1506 10.8842Z" fill="black" fill-opacity="0.2"/>
<path d="M18.4572 10.8842C18.9028 10.8842 19.2641 10.5229 19.2641 10.0773C19.2641 9.63174 18.9028 9.27051 18.4572 9.27051C18.0116 9.27051 17.6504 9.63174 17.6504 10.0773C17.6504 10.5229 18.0116 10.8842 18.4572 10.8842Z" fill="black" fill-opacity="0.2"/>
<path d="M21.7639 10.8842C22.2095 10.8842 22.5707 10.5229 22.5707 10.0773C22.5707 9.63174 22.2095 9.27051 21.7639 9.27051C21.3183 9.27051 20.957 9.63174 20.957 10.0773C20.957 10.5229 21.3183 10.8842 21.7639 10.8842Z" fill="black" fill-opacity="0.2"/>
<path d="M6.89277 14.307C7.33838 14.307 7.69961 13.9458 7.69961 13.5002C7.69961 13.0546 7.33838 12.6934 6.89277 12.6934C6.44717 12.6934 6.08594 13.0546 6.08594 13.5002C6.08594 13.9458 6.44717 14.307 6.89277 14.307Z" fill="black" fill-opacity="0.2"/>
<path d="M10.1936 14.307C10.6392 14.307 11.0004 13.9458 11.0004 13.5002C11.0004 13.0546 10.6392 12.6934 10.1936 12.6934C9.74795 12.6934 9.38672 13.0546 9.38672 13.5002C9.38672 13.9458 9.74795 14.307 10.1936 14.307Z" fill="black" fill-opacity="0.2"/>
<path d="M13.5002 14.307C13.9458 14.307 14.307 13.9458 14.307 13.5002C14.307 13.0546 13.9458 12.6934 13.5002 12.6934C13.0546 12.6934 12.6934 13.0546 12.6934 13.5002C12.6934 13.9458 13.0546 14.307 13.5002 14.307Z" fill="black" fill-opacity="0.2"/>
<path d="M16.801 14.307C17.2466 14.307 17.6078 13.9458 17.6078 13.5002C17.6078 13.0546 17.2466 12.6934 16.801 12.6934C16.3554 12.6934 15.9941 13.0546 15.9941 13.5002C15.9941 13.9458 16.3554 14.307 16.801 14.307Z" fill="black" fill-opacity="0.2"/>
<path d="M20.1076 12.6934C19.6594 12.6934 19.3008 13.0572 19.3008 13.5002C19.3008 13.9484 19.6646 14.307 20.1076 14.307C20.5559 14.307 20.9145 13.9432 20.9145 13.5002C20.9145 13.052 20.5559 12.6934 20.1076 12.6934Z" fill="black" fill-opacity="0.2"/>
<path d="M19.2643 16.2793H7.73652C7.37793 16.2793 7.08789 16.5693 7.08789 16.9279C7.08789 17.2865 7.37793 17.5766 7.73652 17.5766H19.2643C19.6229 17.5766 19.9129 17.2865 19.9129 16.9279C19.9129 16.5693 19.6229 16.2793 19.2643 16.2793Z" fill="black" fill-opacity="0.2"/>
</svg>
