<svg id="Слой_1" data-name="Слой 1" xmlns="http://www.w3.org/2000/svg" viewBox="0 0 50 48.25">
  <defs>
    <style>
      .cls-1 {
        fill: #fefefe;
      }

      .cls-2 {
        fill: #4d76a5;
      }
    </style>
  </defs>
  <title> Forsage (production file)</title>
  <g>
    <circle class="cls-1" cx="24.89" cy="24.18" r="17.06"/>
    <path class="cls-2" d="M25,5.63a18.5,18.5,0,1,0,18.5,18.5A18.5,18.5,0,0,0,25,5.63Zm9.78,24.92H31.9c-1.63,0-1.9-.93-3.24-2.26s-1.88-.28-1.85,1.44a.72.72,0,0,1-.76.82c-1.7,0-4.15.24-6.64-2.44a31.11,31.11,0,0,1-5.2-8.79c0-.32.27-.46.71-.46h2.93c.78,0,.84.38,1.06.88.9,2.05,3.05,6.17,3.63,3.87.33-1.32.46-4.38-.95-4.64-.8-.15.61-1,2.65-1a7.21,7.21,0,0,1,1.62.18c1,.24,1,.71,1,1.38-.05,2.57-.36,4.3.31,4.73s2.34-2.32,3.24-4.43c.25-.58.29-1,1-1H35c1.87,0-.25,2.69-1.87,4.8-1.31,1.69-1.24,1.73.28,3.14,1.08,1,2.36,2.37,2.36,3.15C35.79,30.31,35.5,30.54,34.78,30.54Z"/>
  </g>
</svg>
