<svg xmlns="http://www.w3.org/2000/svg" viewBox="0 0 448.11 240.09"><defs><style>.cls-1{fill:#fff;}</style></defs><title>Ресурс 1</title><g id="Слой_2" data-name="Слой 2"><g id="Слой_2-2" data-name="Слой 2"><path class="cls-1" d="M17.87,178.14l-10.56-.07a7.35,7.35,0,0,1-7.26-8.21L19.15,6.51A7.36,7.36,0,0,1,26.51,0L37.06.07a7.36,7.36,0,0,1,7.27,8.21L25.23,171.64A7.36,7.36,0,0,1,17.87,178.14Z"/><path class="cls-1" d="M299.78,240a1.8,1.8,0,0,1-2.36-1.91L316.25,61.75a7.36,7.36,0,0,1,7.36-6.5l10.56.07a7.36,7.36,0,0,1,7.26,8.21L325,217.91c-.27,1.33-.67,2.41-1,3.64C321.08,231.9,306,237.93,299.78,240Z"/><path class="cls-1" d="M289.12,162.73a2.89,2.89,0,0,0-2.82-3.25c-6.46,0-19.91-3.61-15.44-36,0-1.44,5.63-52.08,6.85-63a2.78,2.78,0,0,0-1.79-2.92c-4.19-1.59-14.39-4.44-25.43-.18a2.79,2.79,0,0,0-1.74,2.32L239.08,150a11.51,11.51,0,0,0,.06,3c1,6.64,7.35,29.29,46.05,24.28a2.92,2.92,0,0,0,2.51-2.54Z"/><path class="cls-1" d="M53.28,70.41a2.89,2.89,0,0,0,2.81,3.26c6.46,0,19.89,3.68,15.31,36,0,1.43-5.82,52.06-7.07,63a2.77,2.77,0,0,0,1.77,2.92c4.19,1.6,14.38,4.49,25.44.27a2.84,2.84,0,0,0,1.75-2.32l10-90.21a11.51,11.51,0,0,0,0-3c-1-6.64-7.25-29.31-46-24.44a2.91,2.91,0,0,0-2.51,2.53Z"/><path class="cls-1" d="M176.15,54.85c-32.64,0-61.15,27.5-63.72,61.48s21.74,61.48,54.38,61.48c18.09,0,34.92-8.47,46.78-21.83a3,3,0,0,0-2.13-5l-46.67-.84a12.65,12.65,0,0,1-4.26-.79c-6.65-2.52-12-8.78-15.12-13.24a3,3,0,0,1,2.36-4.83l79.61.73h0a66.73,66.73,0,0,0,3.12-15.65C233.1,82.35,208.76,54.85,176.15,54.85Zm-28,47.56a1.9,1.9,0,0,1-1.81-2.27c1.66-9,13.15-16,27.06-16s25.43,7,27.1,16a1.91,1.91,0,0,1-1.82,2.27Z"/><path class="cls-1" d="M444.82,56l-25.46-.28.93-26.51A3.4,3.4,0,0,0,417,25.62l-15.52-.23a3.56,3.56,0,0,0-3.51,3.5l-1.41,26.83L371.82,55a3.54,3.54,0,0,0-3.51,3.5l-.5,16.18a3.4,3.4,0,0,0,3.29,3.59l25.46.29L395.63,105a3.41,3.41,0,0,0,3.29,3.59l15.52.22a3.55,3.55,0,0,0,3.51-3.49l1.41-26.83,24.74.76a3.55,3.55,0,0,0,3.51-3.5l.5-16.18A3.41,3.41,0,0,0,444.82,56Z"/></g></g></svg>