<svg id="Слой_1" data-name="Слой 1" xmlns="http://www.w3.org/2000/svg" viewBox="0 0 50 48.25">
  <defs>
    <style>
      .cls-1 {
        fill: #3bd320;
      }
    </style>
  </defs>
  <title> Forsage (production file)</title>
  <path class="cls-1" d="M25,15.14a8.91,8.91,0,0,0-7.32,14l-.9,3.28,3.36-.88A8.9,8.9,0,0,0,33.93,24,8.89,8.89,0,0,0,25,15.14Zm5.23,12.71a2.75,2.75,0,0,1-1.8,1.27A3.66,3.66,0,0,1,26.79,29a15.51,15.51,0,0,1-1.52-.56,11.93,11.93,0,0,1-4.56-4,5.2,5.2,0,0,1-1.09-2.76,3,3,0,0,1,.94-2.23,1,1,0,0,1,.71-.33h.51c.16,0,.38-.06.6.46s.76,1.85.82,2a.49.49,0,0,1,0,.47,1.85,1.85,0,0,1-.27.45l-.4.47c-.13.13-.27.28-.12.55a8.05,8.05,0,0,0,1.49,1.85,7.25,7.25,0,0,0,2.15,1.33c.27.13.42.11.58-.07s.67-.78.85-1,.36-.22.6-.13,1.56.74,1.83.87.45.2.51.31A2.19,2.19,0,0,1,30.28,27.85ZM25,5.63a18.5,18.5,0,1,0,18.5,18.5A18.5,18.5,0,0,0,25,5.63Zm0,29.11a10.71,10.71,0,0,1-5.12-1.3l-5.67,1.49,1.52-5.54A10.69,10.69,0,1,1,25,34.73Z"/>
</svg>
