<svg id="Слой_1" data-name="Слой 1" xmlns="http://www.w3.org/2000/svg" viewBox="0 0 50 48.25">
  <defs>
    <style>
      .cls-1 {
        fill: #31a7df;
      }

      .cls-2 {
        fill: #fefefe;
      }

      .cls-3 {
        fill: #cbdfee;
      }
    </style>
  </defs>
  <title> Forsage (production file)</title>
  <g>
    <path id="telegram-4" class="cls-1" d="M25,5.63a18.5,18.5,0,1,0,18.5,18.5A18.5,18.5,0,0,0,25,5.63Z"/>
    <g>
      <path class="cls-2" d="M29.33,32.92a1.07,1.07,0,0,0,1,.13,1,1,0,0,0,.65-.76c.78-3.67,2.68-13,3.39-16.31a.7.7,0,0,0-.23-.68.72.72,0,0,0-.72-.13c-3.77,1.4-15.38,5.75-20.13,7.51a.74.74,0,0,0,0,1.41c2.13.64,4.92,1.52,4.92,1.52s1.31,3.94,2,5.95a.79.79,0,0,0,.54.52.78.78,0,0,0,.73-.19l2.78-2.63S27.51,31.62,29.33,32.92Z"/>
      <path class="cls-3" d="M18.4,25.5l1.51,5,.34-3.15,9.16-8.26a.25.25,0,0,0,0-.34.25.25,0,0,0-.34-.06Z"/>
    </g>
  </g>
</svg>
