<svg width="30" height="80" viewBox="0 0 30 80" fill="none" xmlns="http://www.w3.org/2000/svg">
<path d="M27.9896 1.53678C27.7337 0.748843 26.8876 0.317486 26.0997 0.573316C25.3117 0.829147 24.8804 1.67529 25.1362 2.46322L27.9896 1.53678ZM17.3057 38.4553L18.3449 39.537L17.3057 38.4553ZM13.7348 79.3531C14.4821 79.7106 15.3777 79.3947 15.7353 78.6474L21.5617 66.4694C21.9193 65.7221 21.6033 64.8265 20.856 64.4689C20.1087 64.1114 19.2131 64.4274 18.8555 65.1747L13.6765 75.9995L2.85161 70.8204C2.10431 70.4629 1.20866 70.7789 0.851123 71.5262C0.493583 72.2735 0.809545 73.1691 1.55684 73.5266L13.7348 79.3531ZM26.5629 2C25.1362 2.46322 25.136 2.46267 25.1359 2.46219C25.1358 2.46214 25.1357 2.46175 25.1357 2.46164C25.1356 2.46143 25.1356 2.46154 25.1358 2.46196C25.1361 2.4628 25.1367 2.4649 25.1378 2.46825C25.1399 2.47494 25.1436 2.48661 25.1487 2.50316C25.1589 2.53626 25.1749 2.58886 25.1957 2.66017C25.2373 2.80279 25.2984 3.02009 25.3716 3.30561C25.5182 3.87687 25.7133 4.7199 25.9 5.78332C26.274 7.91274 26.6117 10.9109 26.465 14.3714C26.1719 21.2846 23.9533 29.9885 16.2665 37.3736L18.3449 39.537C26.7363 31.4749 29.1463 21.9512 29.4623 14.4985C29.6201 10.7761 29.2574 7.55678 28.8548 5.26444C28.6533 4.11699 28.4412 3.19808 28.2775 2.56012C28.1957 2.24103 28.1258 1.99189 28.0754 1.81924C28.0502 1.7329 28.0298 1.66566 28.0152 1.61832C28.0079 1.59464 28.002 1.57595 27.9977 1.56232C27.9956 1.55551 27.9938 1.54997 27.9924 1.54571C27.9918 1.54358 27.9912 1.54177 27.9907 1.54028C27.9905 1.53953 27.9902 1.53866 27.99 1.53829C27.9898 1.53749 27.9896 1.53678 26.5629 2ZM16.2665 37.3736C12.9219 40.587 9.92263 44.8863 8.88537 51.4669C7.85662 57.9934 8.77932 66.6266 12.9676 78.499L15.7967 77.501C11.702 65.8937 10.9255 57.7915 11.8488 51.934C12.7635 46.1306 15.3676 42.3974 18.3449 39.537L16.2665 37.3736Z" fill="#B4DB4D"/>
</svg>
