<svg width="28" height="64" viewBox="0 0 28 64" fill="none" xmlns="http://www.w3.org/2000/svg">
<path d="M27.3405 59.9402C27.8598 59.7522 28.1283 59.1788 27.9402 58.6595L24.8755 50.1974C24.6875 49.6781 24.114 49.4096 23.5948 49.5976C23.0755 49.7857 22.807 50.3591 22.9951 50.8784L25.7192 58.4003L18.1974 61.1245C17.6781 61.3125 17.4096 61.886 17.5976 62.4052C17.7857 62.9245 18.3591 63.193 18.8784 63.0049L27.3405 59.9402ZM1.00827 2.00338C10.2873 1.92667 16.0267 3.1631 19.3862 5.13836C21.0448 6.11363 22.1086 7.26017 22.7521 8.51477C23.3981 9.77431 23.6538 11.2078 23.5919 12.8031C23.4667 16.034 22.0487 19.7782 20.1848 23.6964C19.2592 25.6423 18.2416 27.5957 17.2452 29.524C16.2528 31.4444 15.2806 33.3414 14.4655 35.1423L16.2875 35.967C17.0782 34.2202 18.0273 32.367 19.022 30.4422C20.0126 28.5252 21.0478 26.538 21.9909 24.5555C23.8646 20.6167 25.4481 16.5522 25.5904 12.8806C25.6624 11.0246 25.3684 9.23338 24.5316 7.602C23.6923 5.96568 22.3401 4.5551 20.3999 3.4143C16.5615 1.15742 10.3716 -0.0740925 0.991734 0.00344765L1.00827 2.00338ZM14.4655 35.1423C12.8135 38.7917 12.1506 41.9393 12.2794 44.6875C12.4088 47.4492 13.3353 49.7479 14.7621 51.6875C17.5728 55.5081 22.3217 57.9136 26.5759 59.9056L27.4241 58.0944C23.1136 56.076 18.839 53.8542 16.3732 50.5023C15.1618 48.8557 14.3868 46.9319 14.2772 44.5939C14.167 42.2424 14.7277 39.4129 16.2875 35.967L14.4655 35.1423Z" fill="#B4DB4D"/>
</svg>
