<svg width="25" height="25" viewBox="0 0 25 25" fill="none" xmlns="http://www.w3.org/2000/svg">
<path d="M22.3214 0H2.67857C1.96817 0 1.28686 0.282206 0.784535 0.784535C0.282206 1.28687 0 1.96817 0 2.67857L0 22.3214C0 23.0318 0.282206 23.7131 0.784535 24.2155C1.28686 24.7178 1.96817 25 2.67857 25H10.3404V16.5011H6.82478V12.5H10.3404V9.45089C10.3404 5.9827 12.4051 4.06696 15.5675 4.06696C17.082 4.06696 18.6657 4.33705 18.6657 4.33705V7.74107H16.9208C15.2015 7.74107 14.6652 8.80804 14.6652 9.90234V12.5H18.5033L17.8895 16.5006H14.6652V25H22.3214C23.0318 25 23.7131 24.7178 24.2155 24.2155C24.7178 23.7131 25 23.0318 25 22.3214V2.67857C25 1.96817 24.7178 1.28687 24.2155 0.784535C23.7131 0.282206 23.0318 0 22.3214 0Z" fill="#4267B2"/>
</svg>
