<svg width="19" height="19" viewBox="0 0 19 19" fill="none" xmlns="http://www.w3.org/2000/svg">
<path d="M4.46321 12.3005C6.13996 14.3048 8.1584 15.8829 10.4622 16.9996C11.3393 17.4153 12.5123 17.9084 13.8192 17.993C13.9002 17.9965 13.9777 18 14.0587 18C14.9359 18 15.6404 17.6971 16.2146 17.0736C16.2181 17.07 16.2251 17.063 16.2286 17.0559C16.433 16.8094 16.6654 16.5874 16.9085 16.3514C17.0741 16.1929 17.2432 16.0274 17.4052 15.8583C18.1555 15.0763 18.1555 14.0829 17.3981 13.3255L15.2811 11.2085C14.9218 10.8351 14.492 10.6378 14.0411 10.6378C13.5902 10.6378 13.157 10.8351 12.7871 11.2049L11.526 12.466C11.4097 12.3991 11.29 12.3392 11.1773 12.2828C11.0364 12.2124 10.906 12.1455 10.7898 12.0715C9.64141 11.3423 8.59873 10.3912 7.60184 9.16888C7.09811 8.53129 6.75994 7.99586 6.52393 7.44986C6.85505 7.15044 7.16504 6.83693 7.46446 6.53046C7.57013 6.42126 7.67933 6.31206 7.78853 6.20286C8.16897 5.82242 8.37328 5.3821 8.37328 4.93473C8.37328 4.48736 8.1725 4.04704 7.78853 3.6666L6.7388 2.61687C6.61551 2.49358 6.49927 2.37381 6.3795 2.25052C6.14701 2.01098 5.90395 1.7644 5.66441 1.54248C5.30159 1.1867 4.87536 1 4.42446 1C3.9771 1 3.54734 1.1867 3.17042 1.546L1.85298 2.86345C1.37391 3.34252 1.10267 3.92375 1.04631 4.59656C0.979376 5.43846 1.13437 6.3332 1.53594 7.41463C2.1524 9.08786 3.08236 10.6413 4.46321 12.3005ZM1.90582 4.67053C1.94809 4.20203 2.12774 3.81102 2.46591 3.47286L3.77631 2.16245C3.98062 1.96519 4.20606 1.86303 4.42446 1.86303C4.63934 1.86303 4.85774 1.96519 5.05853 2.1695C5.29454 2.3879 5.51647 2.61687 5.756 2.85993C5.87577 2.98322 5.99906 3.10651 6.12235 3.23332L7.17208 4.28305C7.39048 4.50145 7.5032 4.72337 7.5032 4.94177C7.5032 5.16017 7.39048 5.3821 7.17208 5.6005C7.06288 5.7097 6.95368 5.82242 6.84448 5.93162C6.51688 6.26274 6.21042 6.57625 5.87225 6.87567C5.8652 6.88272 5.86168 6.88624 5.85463 6.89329C5.56226 7.18566 5.60805 7.46395 5.67851 7.6753C5.68203 7.68587 5.68555 7.69291 5.68907 7.70348C5.96031 8.35516 6.33723 8.97513 6.9255 9.71488C7.98228 11.0182 9.09541 12.0292 10.3213 12.8077C10.4727 12.9063 10.6348 12.9838 10.7863 13.0613C10.9272 13.1318 11.0575 13.1987 11.1737 13.2727C11.1878 13.2797 11.1984 13.2868 11.2125 13.2938C11.3287 13.3537 11.4415 13.3819 11.5542 13.3819C11.836 13.3819 12.0192 13.2022 12.079 13.1424L13.3965 11.8249C13.6008 11.6206 13.8227 11.5114 14.0411 11.5114C14.3088 11.5114 14.5272 11.677 14.6646 11.8249L16.7887 13.9455C17.2114 14.3682 17.2079 14.8262 16.7782 15.2735C16.6302 15.432 16.4752 15.5835 16.3097 15.742C16.0631 15.9816 15.8059 16.2281 15.5734 16.5064C15.1684 16.9432 14.6858 17.1475 14.0623 17.1475C14.0024 17.1475 13.939 17.144 13.8791 17.1405C12.7237 17.0665 11.6493 16.6156 10.8426 16.2317C8.65157 15.1714 6.72824 13.6672 5.1325 11.758C3.81858 10.1763 2.93441 8.7039 2.34966 7.12578C1.98684 6.15707 1.84945 5.37857 1.90582 4.67053Z" fill="black" stroke="black" stroke-width="0.5"/>
</svg>
