<svg width="30" height="25" viewBox="0 0 30 25" fill="none" xmlns="http://www.w3.org/2000/svg">
<path d="M26.9149 6.18609C26.9339 6.46012 26.9339 6.73421 26.9339 7.00854C26.9339 15.3656 20.7468 25 9.43888 25C5.95569 25 2.71859 23.9624 0 22.1615C0.494911 22.2202 0.97084 22.2398 1.48468 22.2398C4.35911 22.2398 7.00446 21.2414 9.11898 19.5386C6.41621 19.4799 4.15112 17.6593 3.37069 15.154C3.75141 15.2127 4.13178 15.2519 4.53195 15.2519C5.08393 15.2519 5.63579 15.1736 6.14963 15.0366C3.33261 14.4493 1.21985 11.9047 1.21985 8.88481V8.80654C2.03835 9.27633 2.98986 9.56994 3.99878 9.60911C2.34302 8.47394 1.25793 6.53561 1.25793 4.34362C1.25793 3.16929 1.56242 2.09258 2.09519 1.15324C5.12137 4.98953 9.6709 7.49785 14.7741 7.76899C14.679 7.2992 14.6218 6.80976 14.6218 6.32051C14.6218 2.8361 17.3627 0 20.7679 0C22.538 0 24.1369 0.763402 25.2601 1.99678C26.6498 1.72275 27.9822 1.19421 29.1622 0.469971C28.7053 1.93833 27.7343 3.1711 26.4594 3.95439C27.6968 3.81743 28.8956 3.46501 30 2.97588C29.1627 4.22854 28.1157 5.34442 26.9164 6.24459L26.9149 6.18609Z" fill="#1DA1F2"/>
</svg>
