<svg width="25" height="25" viewBox="0 0 25 25" fill="none" xmlns="http://www.w3.org/2000/svg">
<path d="M1.75725 1.75725C0 3.51451 0 6.34487 0 11.9978V12.952C0 18.6551 0 21.4844 1.75725 23.2422C3.51451 25 6.34487 25 11.9978 25H12.952C18.6551 25 21.4844 25 23.2422 23.2422C25 21.4844 25 18.6551 25 12.952V11.9978C25 6.34487 25 3.51451 23.2422 1.75725C21.4844 1.06437e-07 18.6551 0 12.952 0H11.9978C6.34487 0 3.51451 1.06437e-07 1.75725 1.75725ZM4.21875 7.60603H7.07031C7.16518 12.3772 9.26897 14.3471 10.9375 14.8103V7.60603H13.6272V11.7188C15.2734 11.5402 16.9978 9.66518 17.5837 7.60603H20.2734C20.0502 8.67188 19.615 9.6875 18.9844 10.5804C18.3538 11.4732 17.5502 12.2266 16.6127 12.7902C17.6562 13.3092 18.577 14.0402 19.3136 14.9442C20.0558 15.8426 20.5915 16.8862 20.8984 18.0078H17.9353C17.6674 17.0368 17.1094 16.1607 16.3449 15.5022C15.5748 14.8382 14.6317 14.4196 13.6272 14.2913V18.0078H13.3036C7.60603 18.0078 4.35435 14.1016 4.21875 7.60603Z" fill="#0077FF"/>
</svg>
