<?xml version="1.0" encoding="utf-8"?>
<svg version="1.1" id="Слой_1" xmlns="http://www.w3.org/2000/svg" xmlns:xlink="http://www.w3.org/1999/xlink" x="0px" y="0px"
	 viewBox="0 0 1280 910.9" style="enable-background:new 0 0 1280 910.9;" xml:space="preserve">
<g id="notebook">
	<path style="fill:#21252966;fill-opacity:0.3;" d="M913.6,677.7L623.9,510.4c-3.8-2.2-9.8-2.2-13.6,0l-169,101
		c-3.7,2.2-3.7,5.7,0,7.9L731,786.6c3.8,2.2,9.8,2.2,13.6,0l169-101C917.4,683.3,917.3,679.8,913.6,677.7z"/>
	<path style="fill:#9AA4B5;" d="M913.6,636.7l-169,101c-3.7,2.2-9.8,2.2-13.6,0L441.4,570.5c-1.9-1.1-2.8-2.5-2.8-4c0,2.6,0,2.4,0,5
		c0,1.4,0.9,2.9,2.8,4l289.7,167.3c3.8,2.2,9.8,2.2,13.6,0l169-98.2c1.9-1.1,2.8-2.5,2.8-3.9c0-2.6,0-5.2,0-7.8
		C916.4,634.3,915.5,635.7,913.6,636.7z"/>
	
		<linearGradient id="SVGID_1_" gradientUnits="userSpaceOnUse" x1="580.4896" y1="486.7245" x2="853.8242" y2="304.5013" gradientTransform="matrix(1 0 0 -1 0 1021.7681)">
		<stop  offset="0" style="stop-color:#FFFFFF"/>
		<stop  offset="0.3908" style="stop-color:#F5F5F5"/>
		<stop  offset="1" style="stop-color:#DCDCDC"/>
	</linearGradient>
	<path style="fill:url(#SVGID_1_);" d="M913.6,628.9L623.9,461.6c-3.8-2.2-9.8-2.2-13.6,0l-169,101c-3.7,2.2-3.7,5.7,0,7.9
		L731,737.8c3.8,2.2,9.8,2.2,13.6,0l169-101C917.4,634.6,917.3,631.1,913.6,628.9z"/>
	<g>
		
			<linearGradient id="SVGID_2_" gradientUnits="userSpaceOnUse" x1="535.0886" y1="498.7979" x2="819.0783" y2="384.7775" gradientTransform="matrix(1 0 0 -1 0 1021.7681)">
			<stop  offset="0" style="stop-color:#596A87"/>
			<stop  offset="0.3908" style="stop-color:#4F6283"/>
			<stop  offset="1" style="stop-color:#36507A"/>
		</linearGradient>
		<polygon style="fill:url(#SVGID_2_);" points="599.3,477.1 504.7,532.1 791,697.4 885.6,642.4 		"/>
		
			<linearGradient id="SVGID_3_" gradientUnits="userSpaceOnUse" x1="560.9108" y1="412.0066" x2="672.268" y2="365.1178" gradientTransform="matrix(1 0 0 -1 0 1021.7681)">
			<stop  offset="0" style="stop-color:#596A87"/>
			<stop  offset="0.3908" style="stop-color:#4F6283"/>
			<stop  offset="1" style="stop-color:#36507A"/>
		</linearGradient>
		<polygon style="fill:url(#SVGID_3_);" points="539.2,621.2 637.1,677.7 693.4,645 595.5,588.5 		"/>
		
			<linearGradient id="SVGID_4_" gradientUnits="userSpaceOnUse" x1="825.0886" y1="676.9919" x2="733.977" y2="483.046" gradientTransform="matrix(1 0 0 -1 0 1021.7681)">
			<stop  offset="0" style="stop-color:#FFFFFF"/>
			<stop  offset="0.2619" style="stop-color:#F5F6F9"/>
			<stop  offset="0.7107" style="stop-color:#D9DDE9"/>
			<stop  offset="1" style="stop-color:#C4CADC"/>
		</linearGradient>
		<path style="fill:url(#SVGID_4_);" d="M942.3,405.1L652.6,237.8c-3.8-2.2-7.3-0.2-7.9,4.4l-26.2,208.1c-0.6,4.6,2,10.1,5.8,12.3
			L914,629.8c3.8,2.2,7.3,0.2,7.8-4.4L948,417.3C948.6,412.7,946,407.3,942.3,405.1z"/>
		
			<linearGradient id="SVGID_5_" gradientUnits="userSpaceOnUse" x1="627.7" y1="591.9841" x2="938.9" y2="591.9841" gradientTransform="matrix(1 0 0 -1 0 1021.7681)">
			<stop  offset="0" style="stop-color:#596A87"/>
			<stop  offset="0.3908" style="stop-color:#4F6283"/>
			<stop  offset="1" style="stop-color:#36507A"/>
		</linearGradient>
		<polygon style="fill:url(#SVGID_5_);" points="652.6,248.3 627.7,446 914,611.3 938.9,413.6 		"/>
		<g>
			<path style="fill:#E33BE6;" d="M757.4,459.4v7.4l-2.5-1.6v-18.9l7,4.5c2.1,1.3,3.7,2.9,4.9,4.7c1.2,1.8,1.8,3.6,1.8,5.3
				c0,1.8-0.6,2.9-1.7,3.1c-1.1,0.2-2.8-0.3-4.9-1.7L757.4,459.4z M757.4,457.3l4.5,2.9c1.3,0.9,2.4,1.2,3.1,1.1
				c0.7-0.2,1.1-0.8,1.1-2c0-1.1-0.4-2.3-1.1-3.4c-0.7-1.1-1.7-2.1-2.9-2.9l-4.6-3L757.4,457.3L757.4,457.3z M778.1,468.3
				c-0.4-0.3-0.8-0.6-1.2-0.9c-1.6-1-2.6-1-3.2-0.1v10l-2.4-1.6v-14l2.3,1.5v1.6c0.8-0.7,1.9-0.6,3.3,0.3c0.5,0.3,0.8,0.6,1.1,0.9
				v2.3H778.1z M779.4,473.9c0-1.4,0.3-2.4,0.8-3.2c0.5-0.7,1.3-1.1,2.3-1.1s2.1,0.4,3.3,1.3c1.9,1.2,3.5,2.9,4.6,5
				c1.2,2.1,1.8,4.2,1.8,6.4v0.2c0,1.4-0.3,2.4-0.8,3.2c-0.5,0.7-1.3,1.1-2.2,1.1c-1,0-2.1-0.4-3.3-1.3c-1.9-1.2-3.4-2.9-4.6-5
				c-1.2-2.1-1.8-4.2-1.8-6.4L779.4,473.9L779.4,473.9z M781.8,475.8c0,1.6,0.4,3,1.1,4.4c0.7,1.4,1.7,2.5,2.9,3.3s2.2,0.9,2.9,0.5
				c0.7-0.5,1.1-1.6,1.1-3.3c0-1.5-0.4-3-1.1-4.5c-0.7-1.4-1.7-2.5-2.9-3.3s-2.1-0.9-2.9-0.4C782.2,472.9,781.8,474,781.8,475.8z
				 M794.6,483.8c0-2.2,0.5-3.6,1.5-4.2c1-0.7,2.4-0.4,4,0.6c1.6,1.1,2.9,2.5,3.9,4.2v-7.3l2.4,1.6v19.9l-2.2-1.4l-0.1-1.6
				c-1,0.6-2.3,0.3-4-0.8c-1.6-1.1-3-2.6-4-4.6s-1.5-4.1-1.5-6.2L794.6,483.8L794.6,483.8z M797,485.6c0,1.6,0.3,3.1,1,4.4
				s1.6,2.4,2.7,3.1c1.5,1,2.6,1,3.3,0.1v-6.4c-0.7-1.8-1.8-3.2-3.3-4.1c-1.2-0.8-2.1-0.9-2.8-0.4C797.3,482.7,797,483.8,797,485.6z
				 M818.9,505.3c-0.9,0.5-2.3,0.2-4.1-1c-1.5-1-2.6-2.1-3.4-3.5c-0.8-1.4-1.2-2.9-1.2-4.6v-9.1l2.4,1.6v9.1c0,2.1,0.9,3.8,2.6,4.9
				c1.8,1.2,3.1,1.3,3.7,0.3v-10.2l2.4,1.6v14l-2.3-1.5L818.9,505.3z M830.5,512.5c0.9,0.6,1.6,0.8,2.2,0.7c0.6-0.1,1-0.5,1.1-1.3
				l2.3,1.5c0,0.8-0.3,1.4-0.8,1.8c-0.5,0.4-1.2,0.5-2,0.4c-0.8-0.1-1.7-0.5-2.7-1.1c-1.9-1.2-3.4-2.9-4.6-4.9
				c-1.1-2-1.7-4.1-1.7-6.3v-0.4c0-1.4,0.3-2.4,0.8-3.2c0.5-0.7,1.2-1.1,2.2-1.1c0.9,0,2.1,0.5,3.3,1.3c1.6,1,2.9,2.3,3.9,4
				c1,1.6,1.6,3.2,1.7,4.8l-2.3-1.5c-0.1-1-0.4-1.9-1-2.9s-1.4-1.8-2.3-2.4c-1.2-0.8-2.2-1-2.8-0.5c-0.7,0.4-1,1.5-1,3.2v0.5
				c0,1.6,0.3,3.1,1,4.4C828.3,510.7,829.2,511.7,830.5,512.5z M842,504.3v3.4l2.6,1.7v1.9l-2.6-1.7v8.7c0,0.6,0.1,1.1,0.4,1.5
				c0.2,0.4,0.6,0.8,1.2,1.2c0.3,0.2,0.7,0.4,1.1,0.6v1.9c-0.6-0.2-1.2-0.5-1.8-0.9c-1.1-0.7-1.9-1.5-2.4-2.5s-0.8-2.1-0.8-3.3v-8.7
				l-2.6-1.7v-1.9l2.6,1.7v-3.4L842,504.3z M850.1,526.9l-2.4-1.6v-14l2.4,1.6V526.9z M847.5,507.5c0-0.4,0.1-0.6,0.3-0.8
				c0.2-0.1,0.6,0,1.1,0.3s0.8,0.7,1.1,1.1c0.2,0.4,0.4,0.8,0.4,1.2c0,0.4-0.1,0.6-0.4,0.7c-0.2,0.1-0.6,0-1.1-0.3s-0.8-0.7-1.1-1.1
				C847.6,508.3,847.5,507.9,847.5,507.5z M853.3,521.9c0-1.4,0.3-2.4,0.8-3.2c0.5-0.7,1.3-1.1,2.3-1.1s2.1,0.4,3.3,1.3
				c1.9,1.2,3.5,2.9,4.6,5c1.2,2.1,1.8,4.2,1.8,6.4v0.2c0,1.4-0.3,2.4-0.8,3.2c-0.5,0.7-1.3,1.1-2.2,1.1c-1,0-2.1-0.4-3.3-1.3
				c-1.9-1.2-3.4-2.9-4.6-5c-1.2-2.1-1.8-4.2-1.8-6.4L853.3,521.9L853.3,521.9z M855.7,523.7c0,1.6,0.4,3,1.1,4.4
				c0.7,1.4,1.7,2.5,2.9,3.3s2.2,0.9,2.9,0.5c0.7-0.5,1.1-1.6,1.1-3.3c0-1.5-0.4-3-1.1-4.5c-0.7-1.4-1.7-2.5-2.9-3.3
				s-2.1-0.9-2.9-0.4C856,520.9,855.7,522,855.7,523.7z M871.3,526.7l0.1,1.8c1.1-0.7,2.5-0.4,4.2,0.7c3,1.9,4.5,4.6,4.5,7.9v9.3
				l-2.4-1.6v-9.3c0-1-0.2-1.9-0.7-2.7c-0.5-0.8-1.2-1.5-2.1-2.1c-0.8-0.5-1.5-0.7-2-0.7c-0.6,0-1,0.3-1.4,0.7v10l-2.4-1.6v-14
				L871.3,526.7z"/>
			<path style="fill:#2D96EA;" d="M768.6,442.1c0.4,0.2,0.6,0.5,0.9,0.9c0.2,0.4,0.4,0.8,0.4,1.1v6c0,0.5-0.2,0.7-0.6,0.7
				c-0.8,0-1.7-0.2-2.7-0.5s-2-0.9-3-1.5c-1.8-1.2-3.4-2.6-4.9-4.5c-1.5-1.8-2.6-3.7-3.5-5.7s-1.3-3.9-1.3-5.7c0-1.8,0.4-3.1,1.3-4
				c0.9-0.9,2-1.3,3.5-1.2c1.5,0.1,3.1,0.7,4.9,1.9c0.9,0.6,1.7,1.2,2.6,1.9c0.8,0.7,1.6,1.5,2.2,2.3c0.2,0.3,0.4,0.5,0.5,0.8
				c0.1,0.2,0.2,0.5,0.2,0.7c0,0.4-0.1,0.6-0.4,0.7c-0.2,0.1-0.5,0-0.9-0.2c-0.3-0.2-0.5-0.4-0.7-0.6c-1.2-1.3-2.3-2.3-3.5-3.1
				c-1.3-0.8-2.4-1.3-3.5-1.3c-1-0.1-1.9,0.3-2.5,0.9c-0.6,0.7-0.9,1.7-0.9,3s0.3,2.7,0.9,4.1c0.6,1.5,1.5,2.9,2.5,4.2
				c1.1,1.3,2.2,2.4,3.5,3.2c0.6,0.4,1.2,0.7,1.9,1s1.2,0.5,1.7,0.6v-4.2l-3.2-2.1c-0.4-0.2-0.7-0.5-0.9-0.9s-0.4-0.8-0.4-1.1
				c0-0.4,0.1-0.6,0.4-0.7c0.2-0.1,0.5,0,0.9,0.2L768.6,442.1z M786.3,456.4c0,1.4-0.3,2.4-0.9,3.1c-0.6,0.7-1.5,1-2.6,0.9
				s-2.2-0.5-3.5-1.4c-1.3-0.8-2.5-1.9-3.6-3.2c-1.1-1.3-1.9-2.7-2.5-4.2s-0.9-2.9-0.9-4.3s0.3-2.4,0.9-3.1c0.6-0.7,1.5-1,2.5-1
				c1.1,0.1,2.3,0.5,3.6,1.4c1.3,0.8,2.5,1.9,3.5,3.2c1.1,1.3,1.9,2.7,2.6,4.3C785.9,453.6,786.3,455,786.3,456.4z M783.7,454.7
				c0-1-0.2-1.9-0.6-2.9c-0.4-1-0.9-2-1.6-2.8c-0.7-0.9-1.4-1.6-2.3-2.1s-1.6-0.8-2.3-0.8s-1.2,0.2-1.6,0.7
				c-0.4,0.5-0.6,1.2-0.6,2.2c0,0.9,0.2,1.9,0.6,2.9c0.4,1,0.9,1.9,1.6,2.8c0.7,0.9,1.5,1.6,2.3,2.1s1.6,0.8,2.3,0.9
				c0.7,0,1.2-0.2,1.6-0.7C783.5,456.4,783.7,455.7,783.7,454.7z M802.4,466.8c0,1.4-0.3,2.4-0.9,3.1c-0.6,0.7-1.5,1-2.6,0.9
				s-2.2-0.5-3.5-1.4c-1.3-0.8-2.5-1.9-3.6-3.2c-1.1-1.3-1.9-2.7-2.5-4.2s-0.9-2.9-0.9-4.3s0.3-2.4,0.9-3.1c0.6-0.7,1.5-1,2.5-1
				c1.1,0.1,2.3,0.5,3.6,1.4c1.3,0.8,2.5,1.9,3.5,3.2c1.1,1.3,1.9,2.7,2.6,4.3C802.1,464,802.4,465.5,802.4,466.8z M799.8,465.2
				c0-1-0.2-1.9-0.6-2.9c-0.4-1-0.9-2-1.6-2.8c-0.7-0.9-1.4-1.6-2.3-2.1c-0.8-0.5-1.6-0.8-2.3-0.8s-1.2,0.2-1.6,0.7
				c-0.4,0.5-0.6,1.2-0.6,2.2c0,0.9,0.2,1.9,0.6,2.9c0.4,1,0.9,1.9,1.6,2.8c0.7,0.9,1.5,1.6,2.3,2.1s1.6,0.8,2.3,0.9
				c0.7,0,1.2-0.2,1.6-0.7C799.6,466.9,799.8,466.1,799.8,465.2z M816.6,463.4c0.4,0.2,0.7,0.6,0.9,1s0.4,0.8,0.4,1.1v17.1
				c0,0.4-0.1,0.6-0.4,0.7c-0.2,0.1-0.5,0-0.9-0.2s-0.7-0.6-0.9-0.9c-0.2-0.4-0.3-0.8-0.3-1.2v-0.7c-0.4,0.4-1.1,0.5-1.9,0.4
				c-0.8-0.1-1.7-0.4-2.6-1c-1.2-0.8-2.3-1.8-3.3-3.1c-1-1.3-1.7-2.6-2.3-4.1s-0.9-2.9-0.9-4.3s0.3-2.4,0.8-3.2
				c0.6-0.7,1.3-1.1,2.3-1.1s2,0.4,3.2,1.2c0.9,0.6,1.8,1.4,2.6,2.3s1.4,1.8,1.9,2.8v-6.3c0-0.4,0.1-0.6,0.3-0.7
				C815.9,463.1,816.2,463.1,816.6,463.4z M811.2,477.5c0.8,0.5,1.6,0.8,2.2,0.8c0.7,0,1.2-0.3,1.5-0.8c0.4-0.5,0.6-1.2,0.6-2.2
				c0-0.9-0.2-1.9-0.6-2.9c-0.4-1-0.9-1.9-1.5-2.8c-0.6-0.8-1.4-1.5-2.2-2.1s-1.6-0.8-2.2-0.8c-0.6,0-1.1,0.3-1.5,0.8
				s-0.5,1.2-0.5,2.2c0,0.9,0.2,1.9,0.5,2.9c0.4,1,0.9,1.9,1.5,2.7C809.6,476.2,810.3,476.9,811.2,477.5z"/>
			<path style="fill:#2D96EA;" d="M695.1,367.1c-20.9-13-37.6-7.5-37.6,12.6c0,20.5,17.3,48.4,38.7,62.3c21,13.7,38.1,8.7,38.7-10.9
				l-6.1-3.9l-9.7-6.3l-4.5-2.9l-9.7-6.3v7.4l14.2,9.2l6.9,4.5c-3.8,9.9-15.7,11.1-29.7,2c-17.1-11.1-31-33.4-31-49.8
				c0-16,13.2-20.4,29.8-10.3L695.1,367.1L695.1,367.1z"/>
			<path style="fill:#E33BE6;" d="M712.6,382c13.2,14.5,22.4,33.2,22.4,48.1l-7.7-5l0,0L704,409.9l0,0l23.2,15.1l0,0L704,409.9v36.5
				c-1.6-0.7-3.2-1.5-4.8-2.5l-3-1.9v-37.1l0,0v-7.4v-22.2v-2.1l0,0v-5.3c5.1,3.3,10.1,7.5,14.8,12.4
				C711.6,380.9,712.1,381.4,712.6,382z M704,381.3v21.2l22.3,14.5c-0.4-1.6-0.8-3.2-1.4-4.8c-1.6-4.6-3.8-9.3-6.7-14
				s-6.3-9-10.1-12.9C706.8,383.9,705.4,382.5,704,381.3z"/>
		</g>
		
			<linearGradient id="SVGID_6_" gradientUnits="userSpaceOnUse" x1="778.63" y1="570.9985" x2="624.1155" y2="728.713" gradientTransform="matrix(1 0 0 -1 0 1021.7681)">
			<stop  offset="0" style="stop-color:#FFFFFF;stop-opacity:0.2"/>
			<stop  offset="0.5385" style="stop-color:#F5F9FF;stop-opacity:9.229317e-02"/>
			<stop  offset="1" style="stop-color:#E8F1FF;stop-opacity:0"/>
		</linearGradient>
		<polygon style="fill:url(#SVGID_6_);" points="652.6,248.3 627.7,446 677,474.4 822.8,346.6 		"/>
	</g>
	<g id="XMLID_1_">
		<g id="XMLID_9_">
			<g id="XMLID_114_">
				<polygon id="XMLID_140_" style="fill:#4D3FA0;" points="601.4,500.9 585.4,491.7 601.8,482 617.7,491.2 				"/>
				<polygon id="XMLID_139_" style="fill:#3C2768;" points="601.4,500.9 599.8,500 616.2,490.3 617.7,491.2 				"/>
				<polygon id="XMLID_138_" style="fill:#EEEEFA;" points="618.5,510.7 602.6,501.6 618.9,491.9 634.9,501.1 				"/>
				<polygon id="XMLID_137_" style="fill:#EEEEFA;" points="635.6,520.6 619.7,511.5 636.1,501.8 652,511 				"/>
				<polygon id="XMLID_136_" style="fill:#EEEEFA;" points="652.8,530.5 636.9,521.3 653.2,511.7 669.1,520.9 				"/>
				<polygon id="XMLID_135_" style="fill:#EEEEFA;" points="669.9,540.4 654,531.2 670.4,521.6 686.3,530.8 				"/>
				<polygon id="XMLID_134_" style="fill:#EEEEFA;" points="687,550.3 671.1,541.1 687.5,531.5 703.4,540.7 				"/>
				<polygon id="XMLID_133_" style="fill:#EEEEFA;" points="704.2,560.2 688.3,551 704.6,541.4 720.5,550.6 				"/>
				<polygon id="XMLID_132_" style="fill:#EEEEFA;" points="721.3,570.1 705.4,560.9 721.8,551.3 737.7,560.5 				"/>
				<polygon id="XMLID_131_" style="fill:#EEEEFA;" points="738.4,580 722.5,570.8 738.9,561.2 754.8,570.3 				"/>
				<polygon id="XMLID_130_" style="fill:#EEEEFA;" points="755.6,589.9 739.7,580.7 756,571.1 771.9,580.2 				"/>
				<polygon id="XMLID_129_" style="fill:#EEEEFA;" points="772.7,599.8 756.8,590.6 773.2,580.9 789.1,590.1 				"/>
				<polygon id="XMLID_128_" style="fill:#EEEEFA;" points="789.9,609.7 773.9,600.5 790.3,590.8 806.2,600 				"/>
				<polygon id="XMLID_127_" style="fill:#EEEEFA;" points="807,619.6 791.1,610.4 807.4,600.7 823.4,609.9 				"/>
				<polygon id="XMLID_126_" style="fill:#D3D3E2;" points="618.5,510.7 617,509.9 633.3,500.2 634.9,501.1 				"/>
				<polygon id="XMLID_125_" style="fill:#D3D3E2;" points="635.6,520.6 634.1,519.8 650.5,510.1 652,511 				"/>
				<polygon id="XMLID_124_" style="fill:#D3D3E2;" points="652.8,530.5 651.2,529.7 667.6,520 669.1,520.9 				"/>
				<polygon id="XMLID_123_" style="fill:#D3D3E2;" points="669.9,540.4 668.4,539.6 684.7,529.9 686.3,530.8 				"/>
				<polygon id="XMLID_122_" style="fill:#D3D3E2;" points="687,550.3 685.5,549.4 701.9,539.8 703.4,540.7 				"/>
				<polygon id="XMLID_121_" style="fill:#D3D3E2;" points="704.2,560.2 702.7,559.3 719,549.7 720.5,550.6 				"/>
				<polygon id="XMLID_120_" style="fill:#D3D3E2;" points="721.3,570.1 719.8,569.2 736.2,559.6 737.7,560.5 				"/>
				<polygon id="XMLID_119_" style="fill:#D3D3E2;" points="738.4,580 736.9,579.1 753.3,569.5 754.8,570.3 				"/>
				<polygon id="XMLID_118_" style="fill:#D3D3E2;" points="755.6,589.9 754,589 770.4,579.4 771.9,580.2 				"/>
				<polygon id="XMLID_117_" style="fill:#D3D3E2;" points="772.7,599.8 771.2,598.9 787.5,589.2 789.1,590.1 				"/>
				<polygon id="XMLID_116_" style="fill:#D3D3E2;" points="789.8,609.7 788.3,608.8 804.7,599.1 806.2,600 				"/>
				<polygon id="XMLID_115_" style="fill:#D3D3E2;" points="807,619.6 805.5,618.7 821.8,609 823.3,609.9 				"/>
			</g>
			<polygon id="XMLID_113_" style="fill:#C4C4DC;" points="592.4,516.1 568,502 584.3,492.3 608.8,506.4 			"/>
			<polygon id="XMLID_112_" style="fill:#EEEEFA;" points="609.6,526 593.7,516.8 610,507.1 625.9,516.3 			"/>
			<polygon id="XMLID_111_" style="fill:#EEEEFA;" points="626.7,535.9 610.8,526.7 627.2,517 643.1,526.2 			"/>
			<polygon id="XMLID_110_" style="fill:#EEEEFA;" points="643.8,545.8 627.9,536.6 644.3,526.9 660.2,536.1 			"/>
			<polygon id="XMLID_109_" style="fill:#EEEEFA;" points="661,555.7 645.1,546.5 661.4,536.8 677.3,546 			"/>
			<polygon id="XMLID_108_" style="fill:#EEEEFA;" points="678.1,565.6 662.2,556.4 678.6,546.7 694.5,555.9 			"/>
			<polygon id="XMLID_107_" style="fill:#EEEEFA;" points="695.3,575.5 679.3,566.3 695.7,556.6 711.6,565.8 			"/>
			<polygon id="XMLID_106_" style="fill:#EEEEFA;" points="712.4,585.3 696.5,576.2 712.8,566.5 728.8,575.7 			"/>
			<polygon id="XMLID_105_" style="fill:#EEEEFA;" points="729.5,595.2 713.6,586.1 730,576.4 745.9,585.6 			"/>
			<polygon id="XMLID_104_" style="fill:#EEEEFA;" points="746.7,605.1 730.7,595.9 747.1,586.3 763,595.5 			"/>
			<polygon id="XMLID_103_" style="fill:#EEEEFA;" points="763.8,615 747.9,605.8 764.2,596.2 780.2,605.4 			"/>
			<polygon id="XMLID_102_" style="fill:#EEEEFA;" points="780.9,624.9 765,615.7 781.4,606.1 797.3,615.3 			"/>
			<polygon id="XMLID_101_" style="fill:#EEEEFA;" points="798.1,634.8 782.2,625.6 798.5,616 814.4,625.2 			"/>
			<polygon id="XMLID_100_" style="fill:#C4C4DC;" points="823.5,649.5 799.3,635.5 815.7,625.9 839.9,639.9 			"/>
			<polygon id="XMLID_99_" style="fill:#C4C4DC;" points="579.2,528.9 550.5,512.3 566.9,502.6 595.6,519.2 			"/>
			<polygon id="XMLID_98_" style="fill:#EEEEFA;" points="596.4,538.8 580.5,529.6 596.8,519.9 612.7,529.1 			"/>
			<polygon id="XMLID_97_" style="fill:#EEEEFA;" points="613.5,548.7 597.6,539.5 614,529.8 629.9,539 			"/>
			<polygon id="XMLID_96_" style="fill:#EEEEFA;" points="630.7,558.5 614.7,549.4 631.1,539.7 647,548.9 			"/>
			<polygon id="XMLID_95_" style="fill:#EEEEFA;" points="647.8,568.4 631.9,559.3 648.2,549.6 664.2,558.8 			"/>
			<polygon id="XMLID_94_" style="fill:#EEEEFA;" points="664.9,578.3 649,569.1 665.4,559.5 681.3,568.7 			"/>
			<polygon id="XMLID_93_" style="fill:#EEEEFA;" points="682.1,588.2 666.1,579 682.5,569.4 698.4,578.6 			"/>
			<polygon id="XMLID_92_" style="fill:#EEEEFA;" points="699.2,598.1 683.3,588.9 699.6,579.3 715.6,588.5 			"/>
			<polygon id="XMLID_91_" style="fill:#EEEEFA;" points="716.3,608 700.4,598.8 716.8,589.2 732.7,598.4 			"/>
			<polygon id="XMLID_90_" style="fill:#EEEEFA;" points="733.5,617.9 717.6,608.7 733.9,599.1 749.8,608.3 			"/>
			<polygon id="XMLID_89_" style="fill:#EEEEFA;" points="750.6,627.8 734.7,618.6 751.1,609 767,618.1 			"/>
			<polygon id="XMLID_88_" style="fill:#EEEEFA;" points="767.7,637.7 751.8,628.5 768.2,618.9 784.1,628 			"/>
			<polygon id="XMLID_87_" style="fill:#C4C4DC;" points="806.1,659.8 769,638.4 785.3,628.7 822.4,650.2 			"/>
			<polygon id="XMLID_86_" style="fill:#C4C4DC;" points="553.2,534.2 533,522.6 549.4,512.9 569.6,524.6 			"/>
			<polygon id="XMLID_85_" style="fill:#EEEEFA;" points="570.4,544.1 554.5,534.9 570.8,525.3 586.7,534.5 			"/>
			<polygon id="XMLID_84_" style="fill:#EEEEFA;" points="587.5,554 571.6,544.8 588,535.2 603.9,544.4 			"/>
			<polygon id="XMLID_83_" style="fill:#EEEEFA;" points="604.6,563.9 588.7,554.7 605.1,545.1 621,554.3 			"/>
			<polygon id="XMLID_82_" style="fill:#EEEEFA;" points="621.8,573.8 605.9,564.6 622.2,555 638.1,564.2 			"/>
			<polygon id="XMLID_81_" style="fill:#EEEEFA;" points="638.9,583.7 623,574.5 639.4,564.9 655.3,574 			"/>
			<polygon id="XMLID_80_" style="fill:#EEEEFA;" points="656,593.6 640.1,584.4 656.5,574.8 672.4,583.9 			"/>
			<polygon id="XMLID_79_" style="fill:#EEEEFA;" points="673.2,603.5 657.3,594.3 673.6,584.6 689.6,593.8 			"/>
			<polygon id="XMLID_78_" style="fill:#EEEEFA;" points="690.3,613.4 674.4,604.2 690.8,594.5 706.7,603.7 			"/>
			<polygon id="XMLID_77_" style="fill:#EEEEFA;" points="707.5,623.3 691.5,614.1 707.9,604.4 723.8,613.6 			"/>
			<polygon id="XMLID_76_" style="fill:#EEEEFA;" points="724.6,633.2 708.7,624 725,614.3 741,623.5 			"/>
			<polygon id="XMLID_75_" style="fill:#EEEEFA;" points="741.7,643.1 725.8,633.9 742.2,624.2 758.1,633.4 			"/>
			<polygon id="XMLID_74_" style="fill:#C4C4DC;" points="776,662.9 743,643.8 759.3,634.1 792.4,653.2 			"/>
			<polygon id="XMLID_73_" style="fill:#C4C4DC;" points="535.8,544.5 515.6,532.9 531.9,523.2 552.1,534.9 			"/>
			<polygon id="XMLID_72_" style="fill:#C4C4DC;" points="552.9,554.4 537,545.3 553.4,535.6 569.3,544.8 			"/>
			<polygon id="XMLID_71_" style="fill:#C4C4DC;" points="570,564.3 554.1,555.1 570.5,545.5 586.4,554.7 			"/>
			<polygon id="XMLID_70_" style="fill:#EEEEFA;" points="677,607 673.3,604.8 587.6,555.4 571.3,565 656.9,614.5 660.6,616.6 
				672.9,623.7 689.2,614 			"/>
			<polygon id="XMLID_69_" style="fill:#C4C4DC;" points="690,633.6 674.1,624.4 690.4,614.7 706.4,623.9 			"/>
			<polygon id="XMLID_68_" style="fill:#C4C4DC;" points="707.1,643.5 691.2,634.3 707.6,624.6 723.5,633.8 			"/>
			<polygon id="XMLID_67_" style="fill:#C4C4DC;" points="724.3,653.4 708.4,644.2 724.7,634.5 740.6,643.7 			"/>
			<polygon id="XMLID_66_" style="fill:#C4C4DC;" points="862.7,651.7 846.8,642.5 863.1,632.9 879,642.1 			"/>
			<polygon id="XMLID_65_" style="fill:#C4C4DC;" points="845.2,662 829.3,652.8 845.7,643.2 861.6,652.4 			"/>
			<polygon id="XMLID_64_" style="fill:#C4C4DC;" points="741.4,663.3 725.5,654.1 741.9,644.4 757.8,653.6 			"/>
			<polygon id="XMLID_63_" style="fill:#C4C4DC;" points="793.1,672.7 777.2,663.6 793.6,653.9 809.5,663.1 			"/>
			<polygon id="XMLID_62_" style="fill:#C4C4DC;" points="758.5,673.2 742.6,664 759,654.3 774.9,663.5 			"/>
			<polygon id="XMLID_61_" style="fill:#C4C4DC;" points="775.7,683.1 759.8,673.9 776.1,664.2 792,673.4 			"/>
			<polygon id="XMLID_60_" style="fill:#C4C4DC;" points="792.8,692.9 776.9,683.8 793.3,674.1 809.2,683.3 			"/>
			<polygon id="XMLID_59_" style="fill:#C4C4DC;" points="841,639.2 808.2,620.3 824.6,610.6 857.4,629.5 			"/>
			<polygon id="XMLID_58_" style="fill:#B8B8D1;" points="841,639.2 839.5,638.3 855.8,628.7 857.4,629.5 			"/>
			<polygon id="XMLID_57_" style="fill:#B8B8D1;" points="862.7,651.7 861.2,650.8 877.5,641.2 879,642.1 			"/>
			<polygon id="XMLID_56_" style="fill:#B8B8D1;" points="845.2,662 843.7,661.2 860.1,651.5 861.6,652.4 			"/>
			<polygon id="XMLID_55_" style="fill:#B8B8D1;" points="823.5,649.5 822,648.6 838.4,639 839.9,639.9 			"/>
			<polygon id="XMLID_54_" style="fill:#B8B8D1;" points="806.1,659.8 804.5,658.9 820.9,649.3 822.4,650.2 			"/>
			<polygon id="XMLID_53_" style="fill:#B8B8D1;" points="793.1,672.7 791.6,671.9 808,662.2 809.5,663.1 			"/>
			<polygon id="XMLID_52_" style="fill:#B8B8D1;" points="775.7,683.1 774.2,682.2 790.5,672.5 792,673.4 			"/>
			<polygon id="XMLID_51_" style="fill:#B8B8D1;" points="792.8,692.9 791.3,692.1 807.7,682.4 809.2,683.3 			"/>
			<polygon id="XMLID_50_" style="fill:#B8B8D1;" points="776,662.9 774.5,662 790.9,652.3 792.4,653.2 			"/>
			<polygon id="XMLID_49_" style="fill:#B8B8D1;" points="758.5,673.2 757,672.3 773.4,662.6 774.9,663.5 			"/>
			<polygon id="XMLID_48_" style="fill:#B8B8D1;" points="724.3,653.4 722.8,652.5 739.1,642.8 740.6,643.7 			"/>
			<polygon id="XMLID_47_" style="fill:#B8B8D1;" points="741.4,663.3 739.9,662.4 756.3,652.7 757.8,653.6 			"/>
			<polygon id="XMLID_46_" style="fill:#B8B8D1;" points="707.1,643.5 705.6,642.6 722,632.9 723.5,633.8 			"/>
			<polygon id="XMLID_45_" style="fill:#B8B8D1;" points="690,633.6 688.5,632.7 704.8,623.1 706.4,623.9 			"/>
			<polygon id="XMLID_44_" style="fill:#D3D3E2;" points="609.6,526 608.1,525.1 624.5,515.5 626,516.3 			"/>
			<polygon id="XMLID_43_" style="fill:#D3D3E2;" points="626.7,535.9 625.2,535 641.6,525.4 643.1,526.2 			"/>
			<polygon id="XMLID_42_" style="fill:#D3D3E2;" points="643.9,545.8 642.4,544.9 658.7,535.3 660.2,536.1 			"/>
			<polygon id="XMLID_41_" style="fill:#D3D3E2;" points="661,555.7 659.5,554.8 675.9,545.2 677.4,546 			"/>
			<polygon id="XMLID_40_" style="fill:#D3D3E2;" points="678.1,565.6 676.6,564.7 693,555 694.5,555.9 			"/>
			<polygon id="XMLID_39_" style="fill:#D3D3E2;" points="695.3,575.5 693.8,574.6 710.1,564.9 711.7,565.8 			"/>
			<polygon id="XMLID_38_" style="fill:#D3D3E2;" points="712.4,585.4 710.9,584.5 727.3,574.8 728.8,575.7 			"/>
			<polygon id="XMLID_37_" style="fill:#D3D3E2;" points="729.6,595.3 728,594.4 744.4,584.7 745.9,585.6 			"/>
			<polygon id="XMLID_36_" style="fill:#D3D3E2;" points="746.7,605.1 745.2,604.3 761.5,594.6 763,595.5 			"/>
			<polygon id="XMLID_35_" style="fill:#D3D3E2;" points="763.8,615 762.3,614.2 778.7,604.5 780.2,605.4 			"/>
			<polygon id="XMLID_34_" style="fill:#D3D3E2;" points="780.9,624.9 779.4,624.1 795.8,614.4 797.3,615.3 			"/>
			<polygon id="XMLID_33_" style="fill:#D3D3E2;" points="798.1,634.8 796.6,633.9 812.9,624.3 814.4,625.2 			"/>
			<polygon id="XMLID_32_" style="fill:#D3D3E2;" points="596.4,538.8 594.9,537.9 611.2,528.2 612.7,529.1 			"/>
			<polygon id="XMLID_31_" style="fill:#D3D3E2;" points="613.5,548.7 612,547.8 628.4,538.1 629.9,539 			"/>
			<polygon id="XMLID_30_" style="fill:#D3D3E2;" points="630.7,558.5 629.1,557.7 645.5,548 647,548.9 			"/>
			<polygon id="XMLID_29_" style="fill:#D3D3E2;" points="647.8,568.4 646.3,567.6 662.6,557.9 664.2,558.8 			"/>
			<polygon id="XMLID_28_" style="fill:#D3D3E2;" points="664.9,578.3 663.4,577.5 679.8,567.8 681.3,568.7 			"/>
			<polygon id="XMLID_27_" style="fill:#D3D3E2;" points="682.1,588.2 680.5,587.4 696.9,577.7 698.4,578.6 			"/>
			<polygon id="XMLID_26_" style="fill:#D3D3E2;" points="699.2,598.1 697.7,597.2 714,587.6 715.6,588.5 			"/>
			<polygon id="XMLID_25_" style="fill:#D3D3E2;" points="716.3,608 714.8,607.1 731.2,597.5 732.7,598.3 			"/>
			<polygon id="XMLID_24_" style="fill:#D3D3E2;" points="733.4,617.9 731.9,617 748.3,607.4 749.8,608.2 			"/>
			<polygon id="XMLID_23_" style="fill:#D3D3E2;" points="750.6,627.8 749.1,626.9 765.4,617.3 766.9,618.1 			"/>
			<polygon id="XMLID_22_" style="fill:#D3D3E2;" points="767.7,637.7 766.2,636.8 782.6,627.2 784.1,628 			"/>
			<polygon id="XMLID_21_" style="fill:#D3D3E2;" points="570.4,544.1 568.9,543.3 585.2,533.6 586.8,534.5 			"/>
			<polygon id="XMLID_20_" style="fill:#D3D3E2;" points="587.5,554 586,553.2 602.4,543.5 603.9,544.4 			"/>
			<polygon id="XMLID_19_" style="fill:#D3D3E2;" points="604.7,563.9 603.2,563.1 619.5,553.4 621,554.3 			"/>
			<polygon id="XMLID_18_" style="fill:#D3D3E2;" points="621.8,573.8 620.3,573 636.7,563.3 638.2,564.2 			"/>
			<polygon id="XMLID_17_" style="fill:#D3D3E2;" points="638.9,583.7 637.4,582.8 653.8,573.2 655.3,574.1 			"/>
			<polygon id="XMLID_16_" style="fill:#D3D3E2;" points="656.1,593.6 654.6,592.7 670.9,583.1 672.4,584 			"/>
			<polygon id="XMLID_15_" style="fill:#D3D3E2;" points="673.2,603.5 671.7,602.6 688.1,593 689.6,593.8 			"/>
			<polygon id="XMLID_14_" style="fill:#D3D3E2;" points="690.3,613.4 688.8,612.5 705.2,602.9 706.7,603.7 			"/>
			<polygon id="XMLID_13_" style="fill:#D3D3E2;" points="707.5,623.3 705.9,622.4 722.3,612.7 723.8,613.6 			"/>
			<polygon id="XMLID_12_" style="fill:#D3D3E2;" points="724.6,633.2 723.1,632.3 739.4,622.6 741,623.5 			"/>
			<polygon id="XMLID_11_" style="fill:#D3D3E2;" points="741.7,643.1 740.2,642.2 756.6,632.5 758.1,633.4 			"/>
			<polygon id="XMLID_10_" style="fill:#D3D3E2;" points="672.9,623.7 671.3,622.8 687.7,613.2 689.2,614 			"/>
		</g>
		<polygon id="XMLID_8_" style="fill:#B8B8D1;" points="570,564.3 568.5,563.5 584.9,553.8 586.4,554.7 		"/>
		<polygon id="XMLID_7_" style="fill:#B8B8D1;" points="552.9,554.4 551.4,553.6 567.8,543.9 569.3,544.8 		"/>
		<polygon id="XMLID_6_" style="fill:#B8B8D1;" points="535.8,544.5 534.3,543.7 550.6,534 552.1,534.9 		"/>
		<polygon id="XMLID_5_" style="fill:#B8B8D1;" points="553.2,534.2 551.7,533.4 568.1,523.7 569.6,524.6 		"/>
		<polygon id="XMLID_4_" style="fill:#B8B8D1;" points="579.2,528.9 577.7,528 594.1,518.3 595.6,519.2 		"/>
		<polygon id="XMLID_3_" style="fill:#B8B8D1;" points="592.4,516.1 590.9,515.2 607.3,505.6 608.8,506.4 		"/>
	</g>
</g>
<g id="diagram">
	<g>
		<path style="fill:#39B54A;" d="M598.6,333.8L416.7,231.9c-3.6-2.1-6.6-0.4-6.6,3.8V378c0,4.2,2.9,9.3,6.6,11.4l181.9,104.9
			c3.6,2.1,6.6,0.4,6.6-3.8V345.1C605.1,341,602.2,335.9,598.6,333.8z"/>
		
			<linearGradient id="SVGID_7_" gradientUnits="userSpaceOnUse" x1="487.9486" y1="789.5567" x2="534.619" y2="425.977" gradientTransform="matrix(1 0 0 -1 0 1021.7681)">
			<stop  offset="0" style="stop-color:#D0F04F"/>
			<stop  offset="1" style="stop-color:#3CA845"/>
		</linearGradient>
		<path style="fill:url(#SVGID_7_);" d="M592.8,334.7L416.4,232.4c-3.5-2-6.4-0.4-6.4,3.7v141.8c0,4.1,2.8,9,6.4,11.1l176.4,102.3
			c3.5,2,6.4,0.4,6.4-3.7V345.8C599.1,341.7,596.3,336.8,592.8,334.7z"/>
	</g>
	<g>
		
			<linearGradient id="SVGID_8_" gradientUnits="userSpaceOnUse" x1="429.2791" y1="715.881" x2="508.9543" y2="628.6894" gradientTransform="matrix(1 0 0 -1 0 1021.7681)">
			<stop  offset="0" style="stop-color:#FFFFFF"/>
			<stop  offset="0.2804" style="stop-color:#F5F8FD"/>
			<stop  offset="0.7606" style="stop-color:#D9E5F6"/>
			<stop  offset="1" style="stop-color:#C9DAF2"/>
		</linearGradient>
		<path style="fill:url(#SVGID_8_);" d="M490.4,319.1l-21.5,30.1c-0.2,0.3-0.6,0.4-1.2,0.1c-0.3-0.2-0.7-0.5-0.9-0.9l-32.6-50.5
			c-5.7,5.1-9.1,13.6-9.1,25c-0.1,27.2,18.9,60.3,42.5,73.9c23.5,13.7,42.7,2.7,42.8-24.5C510.3,354.9,502.4,334.8,490.4,319.1z"/>
		
			<linearGradient id="SVGID_9_" gradientUnits="userSpaceOnUse" x1="435.516" y1="707.472" x2="487.416" y2="707.472" gradientTransform="matrix(1 0 0 -1 0 1021.7681)">
			<stop  offset="0" style="stop-color:#4D63D5"/>
			<stop  offset="1" style="stop-color:#5825C7"/>
		</linearGradient>
		<path style="fill:url(#SVGID_9_);" d="M487.5,311.5c-6-7.2-12.8-13.3-20.1-17.5c-12.6-7.3-24-7.6-31.8-2l31.3,48.5L487.5,311.5z"
			/>
	</g>
	<g>
		
			<linearGradient id="SVGID_10_" gradientUnits="userSpaceOnUse" x1="523.9" y1="616.634" x2="587.1" y2="616.634" gradientTransform="matrix(1 0 0 -1 0 1021.7681)">
			<stop  offset="0" style="stop-color:#FFFFFF"/>
			<stop  offset="0.2804" style="stop-color:#F5F8FD"/>
			<stop  offset="0.7606" style="stop-color:#D9E5F6"/>
			<stop  offset="1" style="stop-color:#C9DAF2"/>
		</linearGradient>
		<polygon style="fill:url(#SVGID_10_);" points="523.9,389.9 587.1,426.5 587.1,420.5 523.9,383.8 		"/>
		
			<linearGradient id="SVGID_11_" gradientUnits="userSpaceOnUse" x1="523.8" y1="613.184" x2="560" y2="613.184" gradientTransform="matrix(1 0 0 -1 0 1021.7681)">
			<stop  offset="0" style="stop-color:#FFFFFF"/>
			<stop  offset="0.2804" style="stop-color:#F5F8FD"/>
			<stop  offset="0.7606" style="stop-color:#D9E5F6"/>
			<stop  offset="1" style="stop-color:#C9DAF2"/>
		</linearGradient>
		<polygon style="fill:url(#SVGID_11_);" points="523.8,401.1 560,422.1 560,416.1 523.8,395.1 		"/>
		
			<linearGradient id="SVGID_12_" gradientUnits="userSpaceOnUse" x1="523.9" y1="627.834" x2="587.1" y2="627.834" gradientTransform="matrix(1 0 0 -1 0 1021.7681)">
			<stop  offset="0" style="stop-color:#FFFFFF"/>
			<stop  offset="0.2804" style="stop-color:#F5F8FD"/>
			<stop  offset="0.7606" style="stop-color:#D9E5F6"/>
			<stop  offset="1" style="stop-color:#C9DAF2"/>
		</linearGradient>
		<polygon style="fill:url(#SVGID_12_);" points="523.9,372.6 523.9,378.6 587.1,415.3 587.1,409.3 		"/>
	</g>
	
		<linearGradient id="SVGID_13_" gradientUnits="userSpaceOnUse" x1="570.1573" y1="693.0201" x2="598.9825" y2="652.163" gradientTransform="matrix(1 0 0 -1 0 1021.7681)">
		<stop  offset="0" style="stop-color:#FFFFFF"/>
		<stop  offset="0.2619" style="stop-color:#F5F6F9"/>
		<stop  offset="0.7107" style="stop-color:#D9DDE9"/>
		<stop  offset="1" style="stop-color:#C4CADC"/>
	</linearGradient>
	<path style="fill:url(#SVGID_13_);" d="M583.9,346.7l2.9-1.6c0.6-0.3,0.6-1.4,0-2.4c-0.3-0.5-0.7-0.9-1-1.1c-0.4-0.2-0.7-0.3-1-0.1
		l-2.8,1.6l-2.8-4.9c-0.3-0.5-0.7-0.9-1-1.1c-0.4-0.2-0.8-0.3-1-0.1c-0.6,0.3-0.6,1.4,0,2.4l2.8,5l-2.8,1.6c-0.6,0.3-0.6,1.4,0,2.4
		c0.3,0.5,0.7,0.9,1,1.1c0.4,0.2,0.7,0.3,1,0.1l2.8-1.6l2.8,4.9c0.3,0.5,0.7,0.9,1,1.1c0.4,0.2,0.8,0.3,1,0.1c0.6-0.3,0.6-1.4,0-2.4
		L583.9,346.7z"/>
</g>
<g id="search">
	<path style="fill:#21252966;fill-opacity:0.3;" d="M596.1,745.3l-173.5-96.1l-4.1-15.9c-3.8-14.5-17.8-32.4-31.1-39.8L274,530.6
		c-13.4-7.4-27.5-5.1-31.3,5.2l-4.2,11.3l-3.1-1.7c-13.4-7.4-24.4-2.9-24.4,10l-0.1,43c0,12.9,10.9,29.5,24.2,36.9l360.7,199.9
		c13.4,7.4,24.4,2.9,24.4-10l0.1-43C620.4,769.3,609.5,752.7,596.1,745.3z"/>
	<path style="fill:#FFFFFF;" d="M566.1,685.3l-173.5-96.1l-4.1-15.9c-3.8-14.5-17.8-32.4-31.1-39.8L244,470.6
		c-13.4-7.4-27.5-5.1-31.3,5.2l-4.2,11.3l-3.1-1.7c-13.4-7.4-24.4-2.9-24.4,10l-0.1,43c0,12.9,10.9,29.5,24.2,36.9l360.7,199.9
		c13.4,7.4,24.4,2.9,24.4-10l0.1-43C590.4,709.3,579.5,692.7,566.1,685.3z"/>
	<path style="fill:#E9DFF0;" d="M561.2,704.7L206.5,508.2c-4.5-2.5-8.1-1-8.1,3.3l-0.1,40.4c0,4.3,3.6,9.8,8.1,12.3L561,760.7
		c4.5,2.5,8.1,1,8.1-3.3l0.1-40.4C569.3,712.7,565.6,707.2,561.2,704.7z"/>
	<path style="fill:#D3BFE3;" d="M565.8,758.8L211.2,562.2c-4.5-2.5-8.1-8-8.1-12.3l0.1-40.4c0-1,0.2-1.8,0.5-2.4
		c-3.1-0.6-5.4,1-5.4,4.3l-0.1,40.4c0,4.3,3.6,9.8,8.1,12.3L561,760.7c3.5,1.9,6.4,1.4,7.6-0.9C567.7,759.7,566.8,759.3,565.8,758.8
		z"/>
	<g id="www.good-production.com">
		
			<text transform="matrix(0.8867 0.4984 0 1 202.6181 548.6321)" style="fill:#575757; font-family:'ArialMT'; font-size:41.3795px; letter-spacing:-1;">ww</text>
		
			<text transform="matrix(0.8867 0.4984 0 1 254.4009 577.7389)" style="fill:#575757; font-family:'ArialMT'; font-size:41.3795px; letter-spacing:-2;">w</text>
		
			<text transform="matrix(0.8867 0.4984 0 1 278.4305 591.2455)" style="fill:#575757; font-family:'ArialMT'; font-size:41.3795px; letter-spacing:-1;">.good-p</text>
		
			<text transform="matrix(0.8867 0.4984 0 1 388.9138 653.3465)" style="fill:#575757; font-family:'ArialMT'; font-size:41.3795px; letter-spacing:-2;">r</text>
		
			<text transform="matrix(0.8867 0.4984 0 1 399.0222 659.0282)" style="fill:#575757; font-family:'ArialMT'; font-size:41.3795px; letter-spacing:-1;">odu</text>
		
			<text transform="matrix(0.8867 0.4984 0 1 455.4165 690.7266)" style="fill:#575757; font-family:'ArialMT'; font-size:41.3795px; letter-spacing:-1;">c</text>
		
			<text transform="matrix(0.8867 0.4984 0 1 470.756 699.3487)" style="fill:#575757; font-family:'ArialMT'; font-size:41.3795px; letter-spacing:-1;">tion.ru</text>
	</g>
	
		<linearGradient id="SVGID_14_" gradientUnits="userSpaceOnUse" x1="347.8724" y1="484.5782" x2="392.513" y2="421.3044" gradientTransform="matrix(1 0 0 -1 0 1021.7681)">
		<stop  offset="0" style="stop-color:#596A87"/>
		<stop  offset="0.3908" style="stop-color:#4F6283"/>
		<stop  offset="1" style="stop-color:#36507A"/>
	</linearGradient>
	<path style="fill:url(#SVGID_14_);" d="M369.4,564.8l4.7-2.5c0.9-0.5,0.9-2.1,0-3.6c-0.5-0.8-1.1-1.3-1.7-1.7
		c-0.6-0.3-1.2-0.4-1.7-0.2l-4.7,2.5l-4.6-7.5c-0.5-0.8-1.1-1.3-1.7-1.7c-0.6-0.3-1.2-0.4-1.7-0.2c-0.9,0.5-0.9,2.1,0,3.6l4.6,7.5
		l-4.7,2.5c-0.9,0.5-0.9,2.1,0,3.6c0.5,0.8,1.1,1.3,1.7,1.7c0.6,0.3,1.2,0.4,1.7,0.2l4.7-2.5l4.6,7.5c0.5,0.8,1.1,1.3,1.7,1.7
		c0.6,0.3,1.2,0.4,1.7,0.2c0.9-0.5,0.9-2.1,0-3.6L369.4,564.8z"/>
</g>
<g id="plus">
	<path style="fill:#21252966;fill-opacity:0.3;" d="M1003,354.5h10.9v10.9c0,5,4,9,9,9h0.8c5,0,9-4,9-9v-10.9h10.9c5,0,9-4,9-9v-0.8
		c0-5-4-9-9-9h-7.5c-12,6.9-25.4,11.9-40.6,14.6C997,352.9,999.8,354.5,1003,354.5z"/>
	
		<linearGradient id="SVGID_15_" gradientUnits="userSpaceOnUse" x1="1030.9287" y1="691.8528" x2="987.5584" y2="663.662" gradientTransform="matrix(1 0 0 -1 0 1021.7681)">
		<stop  offset="0" style="stop-color:#C0FC58"/>
		<stop  offset="1" style="stop-color:#43BA45"/>
	</linearGradient>
	<path style="fill:url(#SVGID_15_);" d="M1038.2,329h-10.9v-10.9c0-5-4-9-9-9h-0.8c-5,0-9,4-9,9V329h-10.9c-5,0-9,4-9,9v0.8
		c0,5,4,9,9,9h10.9v10.9c0,5,4,9,9,9h0.8c5,0,9-4,9-9v-10.9h10.9c5,0,9-4,9-9V338C1047.2,333.1,1043.2,329,1038.2,329z"/>
</g>
<g id="line">
	<g>
		<path style="fill:#21252966;fill-opacity:0.3;" d="M575.7,900c-2.4,0-4.8-0.8-6.8-2.5c-4.5-3.7-5.1-10.4-1.3-14.9l25.4-30.3
			c2.7-3.3,7.1-4.6,11.2-3.3l31.1,9.5l20.8-24.9c2.7-3.3,7.1-4.6,11.2-3.3l37.7,11.6c5.6,1.7,8.7,7.6,7,13.2
			c-1.7,5.6-7.6,8.7-13.2,7l-31-9.5L647,877.5c-2.7,3.3-7.1,4.6-11.2,3.3l-31-9.5l-20.9,24.9C581.7,898.7,578.7,900,575.7,900z"/>
	</g>
	<g>
		
			<linearGradient id="SVGID_16_" gradientUnits="userSpaceOnUse" x1="7152.1152" y1="-2252.8853" x2="7041.9316" y2="-2324.5044" gradientTransform="matrix(-0.9589 0.2837 0.2837 0.9589 8082.3579 1036.8226)">
			<stop  offset="0" style="stop-color:#FFEA00"/>
			<stop  offset="1" style="stop-color:#FFAE00"/>
		</linearGradient>
		<path style="fill:url(#SVGID_16_);" d="M564.8,885c-2.4,0-4.8-0.8-6.8-2.5c-4.5-3.7-5.1-10.4-1.3-14.9l25.4-30.3
			c2.7-3.3,7.1-4.6,11.2-3.3l31.1,9.5l20.8-24.9c2.7-3.3,7.1-4.6,11.2-3.3l37.7,11.6c5.6,1.7,8.7,7.6,7,13.2
			c-1.7,5.6-7.6,8.7-13.2,7l-31-9.5l-20.9,25c-2.7,3.3-7.1,4.6-11.2,3.3l-31-9.5l-20.9,24.9C570.8,883.7,567.8,885,564.8,885z"/>
	</g>
</g>
<g id="phone">
	<path style="fill-opacity:0.3;" d="M1086.2,746.3L1086.2,746.3l-6.2-3.6l-90.6-52.3c-7.7-4.4-17.1-4.4-24.7,0L741.4,819.3l0,0
		c-11,6.3-9.2,23,2.3,29.6l85.4,49.3c13.3,7.7,29.6,7.6,42.8,0l214.3-123.7C1098.1,767.7,1097.7,753,1086.2,746.3z"/>
	<g>
		
			<linearGradient id="SVGID_17_" gradientUnits="userSpaceOnUse" x1="734.1428" y1="229.2965" x2="1095.0635" y2="229.2965" gradientTransform="matrix(1 0 0 -1 0 1021.7681)">
			<stop  offset="0.173" style="stop-color:#B1D1ED"/>
			<stop  offset="0.3272" style="stop-color:#A7CBEA"/>
			<stop  offset="0.7425" style="stop-color:#8FBDE2"/>
			<stop  offset="1" style="stop-color:#86B9E0"/>
		</linearGradient>
		<path style="fill:url(#SVGID_17_);" d="M1086.2,713.6c11.6,6.7,12,21.4,0.1,28.2L872,865.6c-13.2,7.7-29.6,7.7-42.8,0l-85.4-49.3
			c-11.5-6.6-13.3-23.3-2.3-29.6"/>
		<path style="fill:#D6E7F6;" d="M1086.2,713.6l-6.2-3.6l-90.6-52.3c-7.7-4.4-17.1-4.4-24.7,0L741.4,786.6
			c-6.4,3.7-7.5,11.9-3.3,17.2c0.9,1.1,2,2.1,3.3,2.9l88.3,51c12.9,7.4,28.8,7.4,41.6,0l214.8-124
			C1093.9,729.2,1093.9,718,1086.2,713.6z"/>
		
			<linearGradient id="SVGID_18_" gradientUnits="userSpaceOnUse" x1="758.6" y1="263.3341" x2="1074.7" y2="263.3341" gradientTransform="matrix(1 0 0 -1 0 1021.7681)">
			<stop  offset="0" style="stop-color:#596A87"/>
			<stop  offset="0.3908" style="stop-color:#4F6283"/>
			<stop  offset="1" style="stop-color:#36507A"/>
		</linearGradient>
		<polygon style="fill:url(#SVGID_18_);" points="758.6,783.3 873.5,849.7 1074.7,733.6 959.8,667.2 		"/>
		
			<linearGradient id="SVGID_19_" gradientUnits="userSpaceOnUse" x1="758.6" y1="296.5341" x2="1074.7" y2="296.5341" gradientTransform="matrix(1 0 0 -1 0 1021.7681)">
			<stop  offset="0" style="stop-color:#FFFFFF;stop-opacity:0.2"/>
			<stop  offset="0.5385" style="stop-color:#F5F9FF;stop-opacity:9.229317e-02"/>
			<stop  offset="1" style="stop-color:#E8F1FF;stop-opacity:0"/>
		</linearGradient>
		<polyline style="fill:url(#SVGID_19_);" points="1074.7,733.6 959.8,667.2 758.6,783.3 		"/>
	</g>
	<g>
		<path style="fill:#B4CEE0;" d="M1015.8,691.2l23.7,13.7c1.3,0.8,2.9,0.8,4.2,0l0,0c1.4-0.8,1.4-2.8,0-3.5l-23.5-13.6
			c-1.3-0.8-3-0.8-4.3,0l0,0C1014.4,688.5,1014.4,690.4,1015.8,691.2z"/>
		<path style="fill:#98BBD4;" d="M1015.8,688.7c1.3-0.8,3-0.8,4.3,0l23.5,13.6c0.5,0.3,0.8,0.8,1,1.3c0.2-0.8-0.1-1.8-1-2.3
			l-23.5-13.6c-1.3-0.8-3-0.8-4.3,0c-0.8,0.5-1.1,1.4-0.9,2.2C1014.9,689.4,1015.3,689,1015.8,688.7z"/>
	</g>
	<g>
		<path style="fill:none;stroke:#98BBD4;stroke-width:0.8717;stroke-miterlimit:10;" d="M810.6,832.6l-20.3-11.7
			c-1.9-1.1-1.9-3.8,0-5l0,0c1.8-1.1,4.1-1.1,6,0l20.3,11.7c1.9,1.1,1.9,3.9,0,5l0,0C814.7,833.6,812.5,833.6,810.6,832.6z"/>
	</g>
	<g id="like3">
		<g>
			<path style="fill:#BB4360;" d="M850.5,699.7l-3.6-2c-0.1,0-0.1-0.1-0.2-0.1l-0.2-0.1l0,0c-1.1-0.5-2.5-0.4-4.1,0.5l-36.6,21.2
				c-3.4,2-6.2,7-6.2,11.1v32.6c0,2.3,0.9,3.9,2.2,4.5l0,0l3.5,2l2.6-1.9l-1.7-0.9l7.2-4.2l0.8,0.8l8.1,8.5c0.1,0.1,0.2,0.2,0.4,0.3
				l3.7,2.1l-0.6-4.2h-0.1c0.1-0.1,0.1-0.2,0.2-0.3l8.1-17.7l0.8-1.8l7.6-4.4c3.4-2,6.2-7,6.2-11.1V702c0-0.1,0-0.2,0-0.4
				L850.5,699.7z"/>
			<path style="fill:#DE536E;" d="M846.3,700.2l-36.6,21.2c-3.4,2-6.2,7-6.2,11.1v32.6c0,4.2,2.8,5.9,6.2,3.9l7.6-4.4l0.8,0.8
				l8.1,8.5c0.9,1,2.7-0.1,3.6-2.1l8.1-17.9l0.8-1.8l7.6-4.4c3.4-2,6.2-7,6.2-11.1V704C852.5,700,849.7,698.2,846.3,700.2z"/>
			<g>
				<g>
					<path style="fill:#FFFFFF;" d="M833.6,726.5c0,3.7-2.5,8.2-5.6,10s-5.6,0.2-5.6-3.5s2.5-8.2,5.6-10S833.6,722.8,833.6,726.5z"
						/>
				</g>
				<path style="fill:#FFFFFF;" d="M832.6,736l-9.2,5.3c-3.3,1.9-6,6.8-6,10.8l0,0l21.3-12.3l0,0C838.6,735.8,835.9,734.1,832.6,736
					z"/>
			</g>
		</g>
	</g>
	<g id="like2">
		<g>
			<path style="fill:#BB4360;" d="M1002,620.7l-3.6-2c-0.1,0-0.1-0.1-0.2-0.1l-0.2-0.1l0,0c-1.1-0.5-2.5-0.4-4.1,0.5l-36.6,21.2
				c-3.4,2-6.2,7-6.2,11.1v32.6c0,2.3,0.9,3.9,2.2,4.5l0,0l3.5,2l2.6-1.9l-1.7-0.9l7.2-4.2l0.8,0.8l8.1,8.5c0.1,0.1,0.2,0.2,0.4,0.3
				l3.7,2.1l-0.6-4.2h-0.1c0.1-0.1,0.1-0.2,0.2-0.3l8.1-17.9l0.8-1.8l7.6-4.4c3.4-2,6.2-7,6.2-11.1v-32.6c0-0.1,0-0.2,0-0.4
				L1002,620.7z"/>
			<path style="fill:#DE536E;" d="M997.9,621.2l-36.6,21.2c-3.4,2-6.2,7-6.2,11.1v32.6c0,4.2,2.8,5.9,6.2,3.9l7.6-4.4l0.8,0.8
				l8.1,8.5c0.9,1,2.7-0.1,3.6-2.1l8.1-17.9l0.8-1.8l7.6-4.4c3.4-2,6.2-7,6.2-11.1V625C1004.1,621,1001.3,619.2,997.9,621.2z"/>
			<g>
				<path style="fill:#FFFFFF;" d="M988.3,654.9c0.6-2,0.9-4,0.9-5.9c-0.2-5.9-4.7-8.4-9.6-5.5c-5.3,3.1-9.5,10.7-9.5,17.1
					c0,6.2,4.1,9,9.2,6.3c1.7-0.9,3.3-2.3,4.7-4c0.8-0.9,1.6-1.5,2.5-1.8l2.4-0.8l-0.6-1.9C987.8,657.5,987.9,656.2,988.3,654.9z"/>
			</g>
		</g>
	</g>
	<g id="like">
		<g>
			<path style="fill:#BB4360;" d="M944.5,651.9l-5.6-3.2c-0.1-0.1-0.2-0.1-0.2-0.1l-0.3-0.2l0,0c-1.7-0.8-3.9-0.6-6.4,0.8
				l-57.2,33.1c-5.4,3.1-9.7,10.9-9.7,17.4v51c0,3.6,1.3,6.1,3.4,7l0,0l5.4,3.1l4.1-2.9l-2.6-1.4l11.2-6.5l1.3,1.3l12.6,13.3
				c0.2,0.2,0.4,0.4,0.6,0.5l5.8,3.3l-0.9-6.6h-0.1c0.1-0.2,0.2-0.3,0.2-0.5l12.6-27.9l1.3-2.8l11.9-6.9c5.4-3.1,9.7-10.9,9.7-17.4
				v-51c0-0.2,0-0.4,0-0.6L944.5,651.9z"/>
			<path style="fill:#DE536E;" d="M938,652.6l-57.2,33.1c-5.4,3.1-9.7,10.9-9.7,17.4v51c0,6.5,4.3,9.3,9.7,6.2l11.9-6.9l1.3,1.3
				l12.6,13.3c1.4,1.5,4.2-0.2,5.7-3.3l12.6-27.9l1.3-2.8l11.9-6.9c5.4-3.1,9.7-10.9,9.7-17.4v-51
				C947.7,652.2,943.4,649.5,938,652.6z"/>
			<g>
				<path style="fill:#FFFFFF;" d="M917,684.2c-5.2,3-7.6,9-7.6,9s-2.4-3.2-7.6-0.2c-5.2,3-9.1,11-9.1,17.9
					c0,8.9,8.4,11.1,16.7,13.7c8.4-12.2,16.7-24.1,16.7-33.1C926.1,684.7,922.3,681.2,917,684.2z"/>
			</g>
		</g>
	</g>
</g>
<g id="mes">
	<g id="XMLID_178_">
		<g id="XMLID_183_">
			<polygon id="XMLID_185_" style="fill:#B4CEE0;" points="923.3,339.7 923.3,358.8 887.3,315.1 767.6,244.7 764.2,150 923.3,237 
							"/>
		</g>
	</g>
	<g id="XMLID_143_">
		<g id="XMLID_150_">
			<polygon id="XMLID_152_" style="fill:#EEEEFA;" points="918.7,333.7 918.7,352.8 886.2,314.9 764.6,244.7 764.6,150.3 
				918.7,239.3 			"/>
			<polygon id="XMLID_151_" style="fill:#3F91FF;" points="918.7,251.3 765,162.5 765,150.5 918.7,239.3 			"/>
		</g>
		<g id="XMLID_144_" style="opacity:0.84;">
			<path id="XMLID_149_" style="fill:#3F91FF;" d="M819.1,231.1c0,6.9-4.8,9.7-10.8,6.2c-6-3.4-10.8-11.8-10.8-18.7
				s4.8-9.7,10.8-6.2C814.3,215.8,819.1,224.2,819.1,231.1z"/>
			<path id="XMLID_147_" style="fill:#3F91FF;" d="M852.5,250.4c0,6.9-4.8,9.7-10.8,6.2c-6-3.4-10.8-11.8-10.8-18.7
				s4.8-9.7,10.8-6.2C847.7,235.1,852.5,243.5,852.5,250.4z"/>
			<path id="XMLID_146_" style="fill:#3F91FF;" d="M885.9,269.6c0,6.9-4.8,9.7-10.8,6.2c-6-3.4-10.8-11.8-10.8-18.7
				s4.8-9.7,10.8-6.2C881,254.3,885.9,262.7,885.9,269.6z"/>
		</g>
	</g>
	<polygon id="XMLID_142_" style="display:none;fill:#CECEE0;" points="918.7,352.8 914.6,348 914.6,237 918.7,239.3 	"/>
</g>
<g id="item">
	<polygon id="XMLID_199_" style="fill:#EEEEFA;" points="725.6,373.8 528.6,260.1 528.6,121.5 725.6,235.3 	"/>
	
		<linearGradient id="XMLID_141_" gradientUnits="userSpaceOnUse" x1="528.6" y1="834.634" x2="725.6" y2="834.634" gradientTransform="matrix(1 0 0 -1 0 1021.7681)">
		<stop  offset="0" style="stop-color:#8FFFFF"/>
		<stop  offset="0.3693" style="stop-color:#4070B7"/>
		<stop  offset="0.7613" style="stop-color:#85005B"/>
		<stop  offset="1" style="stop-color:#CB2376"/>
	</linearGradient>
	<polygon id="XMLID_198_" style="opacity:0.84;fill:url(#XMLID_141_);enable-background:new    ;" points="725.6,252.8 528.6,139.1 
		528.6,121.5 725.6,235.3 	"/>
	<g id="XMLID_191_">
		<path id="XMLID_197_" style="fill:#EA4886;" d="M578.8,194.9c0,6.5-4.6,9.1-10.2,5.9c-5.6-3.3-10.2-11.2-10.2-17.7
			c0-6.5,4.6-9.1,10.2-5.9C574.3,180.5,578.8,188.4,578.8,194.9z"/>
		
			<linearGradient id="XMLID_145_" gradientUnits="userSpaceOnUse" x1="588.8" y1="790.2054" x2="695.7047" y2="790.2054" gradientTransform="matrix(1 0 0 -1 0 1021.7681)">
			<stop  offset="0" style="stop-color:#8FFFFF"/>
			<stop  offset="0.3693" style="stop-color:#4070B7"/>
			<stop  offset="0.7613" style="stop-color:#85005B"/>
			<stop  offset="1" style="stop-color:#CB2376"/>
		</linearGradient>
		<path id="XMLID_196_" style="opacity:0.84;fill:url(#XMLID_145_);enable-background:new    ;" d="M692.5,264.9L592.1,207
			c-1.8-1.1-3.3-3.9-3.3-6.3l0,0c0-2.4,1.5-3.5,3.3-2.5l100.3,57.9c1.8,1.1,3.3,3.9,3.3,6.3l0,0C695.8,264.9,694.3,266,692.5,264.9z
			"/>
		<path id="XMLID_195_" style="fill:#3C2768;" d="M578.8,228.4c0,6.5-4.6,9.1-10.2,5.9c-5.6-3.3-10.2-11.2-10.2-17.7
			c0-6.5,4.6-9.1,10.2-5.9C574.3,214,578.8,221.9,578.8,228.4z"/>
		
			<linearGradient id="XMLID_148_" gradientUnits="userSpaceOnUse" x1="588.9" y1="756.7054" x2="695.8" y2="756.7054" gradientTransform="matrix(1 0 0 -1 0 1021.7681)">
			<stop  offset="0" style="stop-color:#8FFFFF"/>
			<stop  offset="0.3693" style="stop-color:#4070B7"/>
			<stop  offset="0.7613" style="stop-color:#85005B"/>
			<stop  offset="1" style="stop-color:#CB2376"/>
		</linearGradient>
		<path id="XMLID_194_" style="opacity:0.84;fill:url(#XMLID_148_);enable-background:new    ;" d="M692.5,298.4l-100.3-57.9
			c-1.8-1.1-3.3-3.9-3.3-6.3l0,0c0-2.4,1.5-3.5,3.3-2.5l100.3,57.9c1.8,1.1,3.3,3.9,3.3,6.3l0,0
			C695.8,298.4,694.3,299.5,692.5,298.4z"/>
		<path id="XMLID_193_" style="fill:#FFBB25;" d="M578.8,261.9c0,6.5-4.6,9.1-10.2,5.9c-5.6-3.3-10.2-11.2-10.2-17.7
			s4.6-9.1,10.2-5.9C574.3,247.5,578.8,255.4,578.8,261.9z"/>
		
			<linearGradient id="XMLID_153_" gradientUnits="userSpaceOnUse" x1="588.9" y1="723.2129" x2="695.8" y2="723.2129" gradientTransform="matrix(1 0 0 -1 0 1021.7681)">
			<stop  offset="0" style="stop-color:#8FFFFF"/>
			<stop  offset="0.3693" style="stop-color:#4070B7"/>
			<stop  offset="0.7613" style="stop-color:#85005B"/>
			<stop  offset="1" style="stop-color:#CB2376"/>
		</linearGradient>
		<path id="XMLID_192_" style="opacity:0.84;fill:url(#XMLID_153_);enable-background:new    ;" d="M692.5,331.9L592.2,274
			c-1.8-1.1-3.3-3.9-3.3-6.3l0,0c0-2.4,1.5-3.5,3.3-2.5l100.3,57.9c1.8,1.1,3.3,3.9,3.3,6.3l0,0C695.8,331.8,694.3,333,692.5,331.9z
			"/>
	</g>
	<polygon id="XMLID_190_" style="fill:#CECEE0;" points="725.6,373.8 721.5,371.5 721.5,232.9 725.6,235.3 	"/>
</g>
<g id="grafic">
	<g>
		
			<linearGradient id="SVGID_20_" gradientUnits="userSpaceOnUse" x1="923.0717" y1="695.6394" x2="959.4797" y2="412.0075" gradientTransform="matrix(1 0 0 -1 0 1021.7681)">
			<stop  offset="0" style="stop-color:#D0F04F"/>
			<stop  offset="0.2742" style="stop-color:#D9DB44"/>
			<stop  offset="0.84" style="stop-color:#F0A427"/>
			<stop  offset="1" style="stop-color:#F7931E"/>
		</linearGradient>
		<path style="fill:url(#SVGID_20_);" d="M1030.9,440.7L848.7,337c-3.6-2.1-6.5-0.4-6.5,3.7l3,143.7c0,4.1,2.9,9.2,6.5,11.2
			l179.2,103.7c3.6,2.1,6.5,0.4,6.5-3.7V451.9C1037.4,447.8,1034.5,442.7,1030.9,440.7z"/>
		
			<linearGradient id="SVGID_21_" gradientUnits="userSpaceOnUse" x1="920.1541" y1="684.5027" x2="966.8253" y2="320.9167" gradientTransform="matrix(1 0 0 -1 0 1021.7681)">
			<stop  offset="0" style="stop-color:#D0F04F"/>
			<stop  offset="0.2742" style="stop-color:#D9DB44"/>
			<stop  offset="0.84" style="stop-color:#F0A427"/>
			<stop  offset="1" style="stop-color:#F7931E"/>
		</linearGradient>
		<path style="fill:url(#SVGID_21_);" d="M1025,439.8L848.6,337.5c-3.5-2-6.4-0.4-6.4,3.7V483c0,4.1,2.8,9,6.4,11.1L1025,596.3
			c3.5,2,6.4,0.4,6.4-3.7V450.9C1031.4,446.8,1028.5,441.8,1025,439.8z"/>
	</g>
	
		<linearGradient id="SVGID_22_" gradientUnits="userSpaceOnUse" x1="1002.3911" y1="587.9722" x2="1031.218" y2="547.1126" gradientTransform="matrix(1 0 0 -1 0 1021.7681)">
		<stop  offset="0" style="stop-color:#FFFFFF"/>
		<stop  offset="0.2619" style="stop-color:#F5F6F9"/>
		<stop  offset="0.7107" style="stop-color:#D9DDE9"/>
		<stop  offset="1" style="stop-color:#C4CADC"/>
	</linearGradient>
	<path style="fill:url(#SVGID_22_);" d="M1016.1,451.7l2.9-1.6c0.6-0.3,0.6-1.4,0-2.4c-0.3-0.5-0.7-0.9-1-1.1
		c-0.4-0.2-0.7-0.3-1-0.1l-2.8,1.6l-2.8-4.9c-0.3-0.5-0.7-0.9-1-1.1c-0.4-0.2-0.8-0.3-1-0.1c-0.6,0.3-0.6,1.4,0,2.4l2.8,5l-2.8,1.6
		c-0.6,0.3-0.6,1.4,0,2.4c0.3,0.5,0.7,0.9,1,1.1c0.4,0.2,0.7,0.3,1,0.1l2.8-1.6l2.8,4.9c0.3,0.5,0.7,0.9,1,1.1
		c0.4,0.2,0.8,0.3,1,0.1c0.6-0.3,0.6-1.4,0-2.4L1016.1,451.7z"/>
	<g id="XMLID_215_">
		<polygon id="XMLID_224_" style="fill:#EA4886;" points="881.2,493.3 868.2,485.7 868.2,401.5 881.2,409 		"/>
		<polygon id="XMLID_223_" style="fill:#3C2768;" points="894.3,500.8 881.2,493.3 881.2,444.6 894.3,452.2 		"/>
		<polygon id="XMLID_222_" style="fill:#3C2768;" points="992.4,557.4 979.4,549.9 979.4,452.7 992.4,460.2 		"/>
		<polygon id="XMLID_221_" style="fill:#3C2768;" points="992.4,557.4 979.4,549.9 979.4,452.7 992.4,460.2 		"/>
		<polygon id="XMLID_220_" style="fill:#EA4886;" points="979.4,549.9 966.3,542.4 966.3,497.3 979.4,504.8 		"/>
		<polygon id="XMLID_219_" style="fill:#3C2768;" points="946.4,530.9 933.3,523.4 933.3,468.7 946.4,476.2 		"/>
		<polygon id="XMLID_218_" style="fill:#3C2768;" points="920.3,515.8 907.3,508.3 907.3,437.6 920.3,445.1 		"/>
		<polygon id="XMLID_217_" style="fill:#FF3333;" points="933.3,523.4 920.3,515.8 920.3,477.2 933.3,484.7 		"/>
		<polygon id="XMLID_216_" style="fill:#EA4886;" points="907.3,508.3 894.3,500.8 894.3,476.5 907.3,484 		"/>
	</g>
</g>
<g id="rectangle">
	<g>
		<path style="fill:#21252966;fill-opacity:0.3;" d="M367.1,392.5c-0.8,2.3-2.6,4.2-4.9,5.2l-61.9,26.6c-3,1.3-6.4,0.9-8.9-1.1
			c-2.6-1.9-3.9-5.1-3.6-8.3l7.9-66.9c0.4-3.2,2.4-5.9,5.4-7.2c3-1.3,6.4-0.9,8.9,1l54,40.3c2.6,1.9,3.9,5.1,3.6,8.3
			C367.5,391.2,367.3,391.9,367.1,392.5z M307.5,401.6l33.3-14.3l-29-21.7L307.5,401.6z"/>
	</g>
	<g>
		
			<linearGradient id="SVGID_23_" gradientUnits="userSpaceOnUse" x1="2908.5166" y1="1604.5376" x2="3103.6248" y2="1497.4773" gradientTransform="matrix(0.3425 -0.9395 -0.9395 -0.3425 791.9158 3675.033)">
			<stop  offset="0" style="stop-color:#8C4FDB"/>
			<stop  offset="1" style="stop-color:#FF454B"/>
		</linearGradient>
		<path style="fill:url(#SVGID_23_);" d="M367.1,371.5c-0.8,2.3-2.6,4.2-4.9,5.2l-61.9,26.6c-3,1.3-6.4,0.9-8.9-1.1
			c-2.6-1.9-3.9-5.1-3.6-8.3l7.9-66.9c0.4-3.2,2.4-5.9,5.4-7.2c3-1.3,6.4-0.9,8.9,1l54,40.3c2.6,1.9,3.9,5.1,3.6,8.3
			C367.5,370.2,367.3,370.9,367.1,371.5z M307.5,380.6l33.3-14.3l-29-21.7L307.5,380.6z"/>
	</g>
</g>
</svg>
