
                <?xml version="1.0" encoding="utf-8"?>
                <svg version="1.1" id="Слой_1" xmlns="http://www.w3.org/2000/svg" xmlns:xlink="http://www.w3.org/1999/xlink" x="0px" y="0px"
                   viewBox="0 0 1280 890" style="height:100%;enable-background:new 0 0 1280 890;" xml:space="preserve">
                <g id="notebook">
                  <path style="fill:#21252966;fill-opacity:0.3;" d="M913.6,566.8L623.9,399.5c-3.8-2.2-9.8-2.2-13.6,0l-169,101c-3.7,2.2-3.7,5.7,0,7.9l289.7,167.3
                    c3.8,2.2,9.8,2.2,13.6,0l169-101C917.4,572.4,917.3,568.9,913.6,566.8z"/>
                  <path style="fill:#9AA4B5;" d="M913.6,525.8l-169,101c-3.7,2.2-9.8,2.2-13.6,0L441.4,459.6c-1.9-1.1-2.8-2.5-2.8-4c0,2.6,0,2.4,0,5
                    c0,1.4,0.9,2.9,2.8,4l289.7,167.3c3.8,2.2,9.8,2.2,13.6,0l169-98.2c1.9-1.1,2.8-2.5,2.8-3.9c0-2.6,0-5.2,0-7.8
                    C916.4,523.4,915.5,524.8,913.6,525.8z"/>
                  <linearGradient id="SVGID_1_" gradientUnits="userSpaceOnUse" x1="580.4918" y1="424.1561" x2="853.8265" y2="606.3794">
                    <stop  offset="0" style="stop-color:#FFFFFF"/>
                    <stop  offset="0.3908" style="stop-color:#F5F5F5"/>
                    <stop  offset="1" style="stop-color:#DCDCDC"/>
                  </linearGradient>
                  <path style="fill:url(#SVGID_1_);" d="M913.6,518L623.9,350.7c-3.8-2.2-9.8-2.2-13.6,0l-169,101c-3.7,2.2-3.7,5.7,0,7.9
                    l289.7,167.3c3.8,2.2,9.8,2.2,13.6,0l169-101C917.4,523.7,917.3,520.2,913.6,518z"/>
                  <g>
                    <linearGradient id="SVGID_2_" gradientUnits="userSpaceOnUse" x1="535.0844" y1="412.0967" x2="819.0741" y2="526.1171">
                      <stop  offset="0" style="stop-color:#596A87"/>
                      <stop  offset="0.3908" style="stop-color:#4F6283"/>
                      <stop  offset="1" style="stop-color:#36507A"/>
                    </linearGradient>
                    <polygon style="fill:url(#SVGID_2_);" points="599.3,366.2 504.7,421.2 791,586.5 885.6,531.5     "/>
                    <linearGradient id="SVGID_3_" gradientUnits="userSpaceOnUse" x1="560.9156" y1="498.8661" x2="672.2728" y2="545.7548">
                      <stop  offset="0" style="stop-color:#596A87"/>
                      <stop  offset="0.3908" style="stop-color:#4F6283"/>
                      <stop  offset="1" style="stop-color:#36507A"/>
                    </linearGradient>
                    <polygon style="fill:url(#SVGID_3_);" points="539.2,510.3 637.1,566.8 693.4,534.1 595.5,477.6     "/>
                    <linearGradient id="SVGID_4_" gradientUnits="userSpaceOnUse" x1="825.1082" y1="233.9014" x2="733.9966" y2="427.8473">
                      <stop  offset="0" style="stop-color:#FFFFFF"/>
                      <stop  offset="0.2619" style="stop-color:#F5F6F9"/>
                      <stop  offset="0.7107" style="stop-color:#D9DDE9"/>
                      <stop  offset="1" style="stop-color:#C4CADC"/>
                    </linearGradient>
                    <path style="fill:url(#SVGID_4_);" d="M942.3,294.2L652.6,126.9c-3.8-2.2-7.3-0.2-7.9,4.4l-26.2,208.1c-0.6,4.6,2,10.1,5.8,12.3
                      L914,518.9c3.8,2.2,7.3,0.2,7.8-4.4L948,306.4C948.6,301.8,946,296.4,942.3,294.2z"/>
                    <linearGradient id="SVGID_5_" gradientUnits="userSpaceOnUse" x1="627.7106" y1="318.9117" x2="938.8977" y2="318.9117">
                      <stop  offset="0" style="stop-color:#596A87"/>
                      <stop  offset="0.3908" style="stop-color:#4F6283"/>
                      <stop  offset="1" style="stop-color:#36507A"/>
                    </linearGradient>
                    <polygon style="fill:url(#SVGID_5_);" points="652.6,137.4 627.7,335.1 914,500.4 938.9,302.7     "/>
                    <g>
                      <path style="fill:#E33BE6;" d="M757.4,348.5v7.4l-2.5-1.6v-18.9l7,4.5c2.1,1.3,3.7,2.9,4.9,4.7c1.2,1.8,1.8,3.6,1.8,5.3
                        c0,1.8-0.6,2.9-1.7,3.1c-1.1,0.2-2.8-0.3-4.9-1.7L757.4,348.5z M757.4,346.4l4.5,2.9c1.3,0.9,2.4,1.2,3.1,1.1
                        c0.7-0.2,1.1-0.8,1.1-2c0-1.1-0.4-2.3-1.1-3.4c-0.7-1.1-1.7-2.1-2.9-2.9l-4.6-3V346.4z M778.1,357.4c-0.4-0.3-0.8-0.6-1.2-0.9
                        c-1.6-1-2.6-1-3.2-0.1v10l-2.4-1.6v-14l2.3,1.5l0,1.6c0.8-0.7,1.9-0.6,3.3,0.3c0.5,0.3,0.8,0.6,1.1,0.9V357.4z M779.4,363
                        c0-1.4,0.3-2.4,0.8-3.2c0.5-0.7,1.3-1.1,2.3-1.1c1,0,2.1,0.4,3.3,1.3c1.9,1.2,3.5,2.9,4.6,5c1.2,2.1,1.8,4.2,1.8,6.4v0.2
                        c0,1.4-0.3,2.4-0.8,3.2c-0.5,0.7-1.3,1.1-2.2,1.1c-1,0-2.1-0.4-3.3-1.3c-1.9-1.2-3.4-2.9-4.6-5c-1.2-2.1-1.8-4.2-1.8-6.4V363z
                         M781.8,364.9c0,1.6,0.4,3,1.1,4.4c0.7,1.4,1.7,2.5,2.9,3.3c1.2,0.8,2.2,0.9,2.9,0.5c0.7-0.5,1.1-1.6,1.1-3.3
                        c0-1.5-0.4-3-1.1-4.5c-0.7-1.4-1.7-2.5-2.9-3.3c-1.2-0.8-2.1-0.9-2.9-0.4C782.2,362,781.8,363.1,781.8,364.9z M794.6,372.9
                        c0-2.2,0.5-3.6,1.5-4.2c1-0.7,2.4-0.4,4,0.6c1.6,1.1,2.9,2.5,3.9,4.2v-7.3l2.4,1.6v19.9l-2.2-1.4l-0.1-1.6c-1,0.6-2.3,0.3-4-0.8
                        c-1.6-1.1-3-2.6-4-4.6c-1-2-1.5-4.1-1.5-6.2V372.9z M797,374.7c0,1.6,0.3,3.1,1,4.4c0.7,1.3,1.6,2.4,2.7,3.1c1.5,1,2.6,1,3.3,0.1
                        v-6.4c-0.7-1.8-1.8-3.2-3.3-4.1c-1.2-0.8-2.1-0.9-2.8-0.4C797.3,371.8,797,372.9,797,374.7z M818.9,394.4c-0.9,0.5-2.3,0.2-4.1-1
                        c-1.5-1-2.6-2.1-3.4-3.5c-0.8-1.4-1.2-2.9-1.2-4.6v-9.1l2.4,1.6v9.1c0,2.1,0.9,3.8,2.6,4.9c1.8,1.2,3.1,1.3,3.7,0.3v-10.2
                        l2.4,1.6v14l-2.3-1.5L818.9,394.4z M830.5,401.6c0.9,0.6,1.6,0.8,2.2,0.7c0.6-0.1,1-0.5,1.1-1.3l2.3,1.5c0,0.8-0.3,1.4-0.8,1.8
                        c-0.5,0.4-1.2,0.5-2,0.4c-0.8-0.1-1.7-0.5-2.7-1.1c-1.9-1.2-3.4-2.9-4.6-4.9c-1.1-2-1.7-4.1-1.7-6.3V392c0-1.4,0.3-2.4,0.8-3.2
                        c0.5-0.7,1.2-1.1,2.2-1.1c0.9,0,2.1,0.5,3.3,1.3c1.6,1,2.9,2.3,3.9,4c1,1.6,1.6,3.2,1.7,4.8l-2.3-1.5c-0.1-1-0.4-1.9-1-2.9
                        c-0.6-1-1.4-1.8-2.3-2.4c-1.2-0.8-2.2-1-2.8-0.5c-0.7,0.4-1,1.5-1,3.2v0.5c0,1.6,0.3,3.1,1,4.4
                        C828.3,399.8,829.2,400.8,830.5,401.6z M842,393.4v3.4l2.6,1.7v1.9l-2.6-1.7v8.7c0,0.6,0.1,1.1,0.4,1.5c0.2,0.4,0.6,0.8,1.2,1.2
                        c0.3,0.2,0.7,0.4,1.1,0.6v1.9c-0.6-0.2-1.2-0.5-1.8-0.9c-1.1-0.7-1.9-1.5-2.4-2.5c-0.5-1-0.8-2.1-0.8-3.3v-8.7l-2.6-1.7v-1.9
                        l2.6,1.7v-3.4L842,393.4z M850.1,416l-2.4-1.6v-14l2.4,1.6V416z M847.5,396.6c0-0.4,0.1-0.6,0.3-0.8c0.2-0.1,0.6,0,1.1,0.3
                        c0.5,0.3,0.8,0.7,1.1,1.1c0.2,0.4,0.4,0.8,0.4,1.2c0,0.4-0.1,0.6-0.4,0.7c-0.2,0.1-0.6,0-1.1-0.3c-0.5-0.3-0.8-0.7-1.1-1.1
                        C847.6,397.4,847.5,397,847.5,396.6z M853.3,411c0-1.4,0.3-2.4,0.8-3.2c0.5-0.7,1.3-1.1,2.3-1.1c1,0,2.1,0.4,3.3,1.3
                        c1.9,1.2,3.5,2.9,4.6,5c1.2,2.1,1.8,4.2,1.8,6.4v0.2c0,1.4-0.3,2.4-0.8,3.2c-0.5,0.7-1.3,1.1-2.2,1.1c-1,0-2.1-0.4-3.3-1.3
                        c-1.9-1.2-3.4-2.9-4.6-5c-1.2-2.1-1.8-4.2-1.8-6.4V411z M855.7,412.8c0,1.6,0.4,3,1.1,4.4c0.7,1.4,1.7,2.5,2.9,3.3
                        c1.2,0.8,2.2,0.9,2.9,0.5c0.7-0.5,1.1-1.6,1.1-3.3c0-1.5-0.4-3-1.1-4.5c-0.7-1.4-1.7-2.5-2.9-3.3c-1.2-0.8-2.1-0.9-2.9-0.4
                        C856,410,855.7,411.1,855.7,412.8z M871.3,415.8l0.1,1.8c1.1-0.7,2.5-0.4,4.2,0.7c3,1.9,4.5,4.6,4.5,7.9v9.3l-2.4-1.6v-9.3
                        c0-1-0.2-1.9-0.7-2.7c-0.5-0.8-1.2-1.5-2.1-2.1c-0.8-0.5-1.5-0.7-2-0.7c-0.6,0-1,0.3-1.4,0.7v10l-2.4-1.6v-14L871.3,415.8z"/>
                      <path style="fill:#2D96EA;" d="M768.6,331.2c0.4,0.2,0.6,0.5,0.9,0.9c0.2,0.4,0.4,0.8,0.4,1.1v6c0,0.5-0.2,0.7-0.6,0.7
                        c-0.8,0-1.7-0.2-2.7-0.5c-1-0.3-2-0.9-3-1.5c-1.8-1.2-3.4-2.6-4.9-4.5c-1.5-1.8-2.6-3.7-3.5-5.7c-0.9-2-1.3-3.9-1.3-5.7
                        c0-1.8,0.4-3.1,1.3-4c0.9-0.9,2-1.3,3.5-1.2c1.5,0.1,3.1,0.7,4.9,1.9c0.9,0.6,1.7,1.2,2.6,1.9c0.8,0.7,1.6,1.5,2.2,2.3
                        c0.2,0.3,0.4,0.5,0.5,0.8c0.1,0.2,0.2,0.5,0.2,0.7c0,0.4-0.1,0.6-0.4,0.7c-0.2,0.1-0.5,0-0.9-0.2c-0.3-0.2-0.5-0.4-0.7-0.6
                        c-1.2-1.3-2.3-2.3-3.5-3.1c-1.3-0.8-2.4-1.3-3.5-1.3c-1-0.1-1.9,0.3-2.5,0.9c-0.6,0.7-0.9,1.7-0.9,3c0,1.3,0.3,2.7,0.9,4.1
                        c0.6,1.5,1.5,2.9,2.5,4.2c1.1,1.3,2.2,2.4,3.5,3.2c0.6,0.4,1.2,0.7,1.9,1c0.7,0.3,1.2,0.5,1.7,0.6v-4.2l-3.2-2.1
                        c-0.4-0.2-0.7-0.5-0.9-0.9c-0.2-0.4-0.4-0.8-0.4-1.1c0-0.4,0.1-0.6,0.4-0.7c0.2-0.1,0.5,0,0.9,0.2L768.6,331.2z M786.3,345.5
                        c0,1.4-0.3,2.4-0.9,3.1c-0.6,0.7-1.5,1-2.6,0.9c-1.1-0.1-2.2-0.5-3.5-1.4c-1.3-0.8-2.5-1.9-3.6-3.2c-1.1-1.3-1.9-2.7-2.5-4.2
                        s-0.9-2.9-0.9-4.3c0-1.4,0.3-2.4,0.9-3.1c0.6-0.7,1.5-1,2.5-1c1.1,0.1,2.3,0.5,3.6,1.4c1.3,0.8,2.5,1.9,3.5,3.2
                        c1.1,1.3,1.9,2.7,2.6,4.3C785.9,342.7,786.3,344.1,786.3,345.5z M783.7,343.8c0-1-0.2-1.9-0.6-2.9c-0.4-1-0.9-2-1.6-2.8
                        c-0.7-0.9-1.4-1.6-2.3-2.1s-1.6-0.8-2.3-0.8c-0.7,0-1.2,0.2-1.6,0.7c-0.4,0.5-0.6,1.2-0.6,2.2c0,0.9,0.2,1.9,0.6,2.9
                        c0.4,1,0.9,1.9,1.6,2.8c0.7,0.9,1.5,1.6,2.3,2.1s1.6,0.8,2.3,0.9c0.7,0,1.2-0.2,1.6-0.7C783.5,345.5,783.7,344.8,783.7,343.8z
                         M802.4,355.9c0,1.4-0.3,2.4-0.9,3.1c-0.6,0.7-1.5,1-2.6,0.9c-1.1-0.1-2.2-0.5-3.5-1.4c-1.3-0.8-2.5-1.9-3.6-3.2
                        c-1.1-1.3-1.9-2.7-2.5-4.2c-0.6-1.5-0.9-2.9-0.9-4.3c0-1.4,0.3-2.4,0.9-3.1c0.6-0.7,1.5-1,2.5-1c1.1,0.1,2.3,0.5,3.6,1.4
                        c1.3,0.8,2.5,1.9,3.5,3.2c1.1,1.3,1.9,2.7,2.6,4.3C802.1,353.1,802.4,354.6,802.4,355.9z M799.8,354.3c0-1-0.2-1.9-0.6-2.9
                        c-0.4-1-0.9-2-1.6-2.8c-0.7-0.9-1.4-1.6-2.3-2.1c-0.8-0.5-1.6-0.8-2.3-0.8c-0.7,0-1.2,0.2-1.6,0.7c-0.4,0.5-0.6,1.2-0.6,2.2
                        c0,0.9,0.2,1.9,0.6,2.9c0.4,1,0.9,1.9,1.6,2.8c0.7,0.9,1.5,1.6,2.3,2.1c0.8,0.5,1.6,0.8,2.3,0.9c0.7,0,1.2-0.2,1.6-0.7
                        C799.6,356,799.8,355.2,799.8,354.3z M816.6,352.5c0.4,0.2,0.7,0.6,0.9,1c0.2,0.4,0.4,0.8,0.4,1.1v17.1c0,0.4-0.1,0.6-0.4,0.7
                        c-0.2,0.1-0.5,0-0.9-0.2c-0.4-0.2-0.7-0.6-0.9-0.9c-0.2-0.4-0.3-0.8-0.3-1.2v-0.7c-0.4,0.4-1.1,0.5-1.9,0.4
                        c-0.8-0.1-1.7-0.4-2.6-1c-1.2-0.8-2.3-1.8-3.3-3.1c-1-1.3-1.7-2.6-2.3-4.1c-0.6-1.5-0.9-2.9-0.9-4.3c0-1.4,0.3-2.4,0.8-3.2
                        c0.6-0.7,1.3-1.1,2.3-1.1c1,0,2,0.4,3.2,1.2c0.9,0.6,1.8,1.4,2.6,2.3c0.8,0.9,1.4,1.8,1.9,2.8V353c0-0.4,0.1-0.6,0.3-0.7
                        C815.9,352.2,816.2,352.2,816.6,352.5z M811.2,366.6c0.8,0.5,1.6,0.8,2.2,0.8c0.7,0,1.2-0.3,1.5-0.8c0.4-0.5,0.6-1.2,0.6-2.2
                        c0-0.9-0.2-1.9-0.6-2.9c-0.4-1-0.9-1.9-1.5-2.8c-0.6-0.8-1.4-1.5-2.2-2.1s-1.6-0.8-2.2-0.8c-0.6,0-1.1,0.3-1.5,0.8
                        c-0.4,0.5-0.5,1.2-0.5,2.2c0,0.9,0.2,1.9,0.5,2.9c0.4,1,0.9,1.9,1.5,2.7C809.6,365.3,810.3,366,811.2,366.6z"/>
                      <path style="fill:#2D96EA;" d="M695.1,256.2c-20.9-13-37.6-7.5-37.6,12.6c0,20.5,17.3,48.4,38.7,62.3c21,13.7,38.1,8.7,38.7-10.9
                        l-6.1-3.9l-9.7-6.3l-4.5-2.9l-9.7-6.3v7.4l14.2,9.2l6.9,4.5c-3.8,9.9-15.7,11.1-29.7,2c-17.1-11.1-31-33.4-31-49.8
                        c0-16,13.2-20.4,29.8-10.3V256.2z"/>
                      <path style="fill:#E33BE6;" d="M712.6,271.1c13.2,14.5,22.4,33.2,22.4,48.1l-7.7-5v0L704,299v0l23.2,15.1l0,0L704,299v36.5
                        c-1.6-0.7-3.2-1.5-4.8-2.5l-3-1.9V294v0v-7.4v-22.2v-2.1l0,0V257c5.1,3.3,10.1,7.5,14.8,12.4C711.6,270,712.1,270.5,712.6,271.1z
                         M704,270.4v21.2l22.3,14.5c-0.4-1.6-0.8-3.2-1.4-4.8c-1.6-4.6-3.8-9.3-6.7-14s-6.3-9-10.1-12.9C706.8,273,705.4,271.6,704,270.4
                        z"/>
                    </g>
                    <linearGradient id="SVGID_6_" gradientUnits="userSpaceOnUse" x1="778.631" y1="339.8846" x2="624.1165" y2="182.1701">
                      <stop  offset="0" style="stop-color:#FFFFFF;stop-opacity:0.2"/>
                      <stop  offset="0.5385" style="stop-color:#F5F9FF;stop-opacity:9.229317e-02"/>
                      <stop  offset="1" style="stop-color:#E8F1FF;stop-opacity:0"/>
                    </linearGradient>
                    <polygon style="fill:url(#SVGID_6_);" points="652.6,137.4 627.7,335.1 677,363.5 822.8,235.7     "/>
                  </g>
                  <g id="XMLID_1_">
                    <g id="XMLID_9_">
                      <g id="XMLID_114_">
                        <polygon id="XMLID_140_" style="fill:#4D3FA0;" points="601.4,390 585.4,380.8 601.8,371.1 617.7,380.3        "/>
                        <polygon id="XMLID_139_" style="fill:#3C2768;" points="601.4,390 599.8,389.1 616.2,379.4 617.7,380.3        "/>
                        <polygon id="XMLID_138_" style="fill:#EEEEFA;" points="618.5,399.8 602.6,390.7 618.9,381 634.9,390.2        "/>
                        <polygon id="XMLID_137_" style="fill:#EEEEFA;" points="635.6,409.7 619.7,400.6 636.1,390.9 652,400.1        "/>
                        <polygon id="XMLID_136_" style="fill:#EEEEFA;" points="652.8,419.6 636.9,410.4 653.2,400.8 669.1,410        "/>
                        <polygon id="XMLID_135_" style="fill:#EEEEFA;" points="669.9,429.5 654,420.3 670.4,410.7 686.3,419.9        "/>
                        <polygon id="XMLID_134_" style="fill:#EEEEFA;" points="687,439.4 671.1,430.2 687.5,420.6 703.4,429.8        "/>
                        <polygon id="XMLID_133_" style="fill:#EEEEFA;" points="704.2,449.3 688.3,440.1 704.6,430.5 720.5,439.7        "/>
                        <polygon id="XMLID_132_" style="fill:#EEEEFA;" points="721.3,459.2 705.4,450 721.8,440.4 737.7,449.6        "/>
                        <polygon id="XMLID_131_" style="fill:#EEEEFA;" points="738.4,469.1 722.5,459.9 738.9,450.3 754.8,459.4        "/>
                        <polygon id="XMLID_130_" style="fill:#EEEEFA;" points="755.6,479 739.7,469.8 756,460.2 771.9,469.3        "/>
                        <polygon id="XMLID_129_" style="fill:#EEEEFA;" points="772.7,488.9 756.8,479.7 773.2,470 789.1,479.2        "/>
                        <polygon id="XMLID_128_" style="fill:#EEEEFA;" points="789.9,498.8 773.9,489.6 790.3,479.9 806.2,489.1        "/>
                        <polygon id="XMLID_127_" style="fill:#EEEEFA;" points="807,508.7 791.1,499.5 807.4,489.8 823.4,499        "/>
                        <polygon id="XMLID_126_" style="fill:#D3D3E2;" points="618.5,399.8 617,399 633.3,389.3 634.9,390.2        "/>
                        <polygon id="XMLID_125_" style="fill:#D3D3E2;" points="635.6,409.7 634.1,408.9 650.5,399.2 652,400.1        "/>
                        <polygon id="XMLID_124_" style="fill:#D3D3E2;" points="652.8,419.6 651.2,418.8 667.6,409.1 669.1,410        "/>
                        <polygon id="XMLID_123_" style="fill:#D3D3E2;" points="669.9,429.5 668.4,428.7 684.7,419 686.3,419.9        "/>
                        <polygon id="XMLID_122_" style="fill:#D3D3E2;" points="687,439.4 685.5,438.5 701.9,428.9 703.4,429.8        "/>
                        <polygon id="XMLID_121_" style="fill:#D3D3E2;" points="704.2,449.3 702.7,448.4 719,438.8 720.5,439.7        "/>
                        <polygon id="XMLID_120_" style="fill:#D3D3E2;" points="721.3,459.2 719.8,458.3 736.2,448.7 737.7,449.6        "/>
                        <polygon id="XMLID_119_" style="fill:#D3D3E2;" points="738.4,469.1 736.9,468.2 753.3,458.6 754.8,459.4        "/>
                        <polygon id="XMLID_118_" style="fill:#D3D3E2;" points="755.6,479 754,478.1 770.4,468.5 771.9,469.3        "/>
                        <polygon id="XMLID_117_" style="fill:#D3D3E2;" points="772.7,488.9 771.2,488 787.5,478.3 789.1,479.2        "/>
                        <polygon id="XMLID_116_" style="fill:#D3D3E2;" points="789.8,498.8 788.3,497.9 804.7,488.2 806.2,489.1        "/>
                        <polygon id="XMLID_115_" style="fill:#D3D3E2;" points="807,508.7 805.5,507.8 821.8,498.1 823.3,499        "/>
                      </g>
                      <polygon id="XMLID_113_" style="fill:#C4C4DC;" points="592.4,405.2 568,391.1 584.3,381.4 608.8,395.5      "/>
                      <polygon id="XMLID_112_" style="fill:#EEEEFA;" points="609.6,415.1 593.7,405.9 610,396.2 625.9,405.4      "/>
                      <polygon id="XMLID_111_" style="fill:#EEEEFA;" points="626.7,425 610.8,415.8 627.2,406.1 643.1,415.3      "/>
                      <polygon id="XMLID_110_" style="fill:#EEEEFA;" points="643.8,434.9 627.9,425.7 644.3,416 660.2,425.2      "/>
                      <polygon id="XMLID_109_" style="fill:#EEEEFA;" points="661,444.8 645.1,435.6 661.4,425.9 677.3,435.1      "/>
                      <polygon id="XMLID_108_" style="fill:#EEEEFA;" points="678.1,454.7 662.2,445.5 678.6,435.8 694.5,445      "/>
                      <polygon id="XMLID_107_" style="fill:#EEEEFA;" points="695.3,464.6 679.3,455.4 695.7,445.7 711.6,454.9      "/>
                      <polygon id="XMLID_106_" style="fill:#EEEEFA;" points="712.4,474.4 696.5,465.3 712.8,455.6 728.8,464.8      "/>
                      <polygon id="XMLID_105_" style="fill:#EEEEFA;" points="729.5,484.3 713.6,475.2 730,465.5 745.9,474.7      "/>
                      <polygon id="XMLID_104_" style="fill:#EEEEFA;" points="746.7,494.2 730.7,485 747.1,475.4 763,484.6      "/>
                      <polygon id="XMLID_103_" style="fill:#EEEEFA;" points="763.8,504.1 747.9,494.9 764.2,485.3 780.2,494.5      "/>
                      <polygon id="XMLID_102_" style="fill:#EEEEFA;" points="780.9,514 765,504.8 781.4,495.2 797.3,504.4      "/>
                      <polygon id="XMLID_101_" style="fill:#EEEEFA;" points="798.1,523.9 782.2,514.7 798.5,505.1 814.4,514.3      "/>
                      <polygon id="XMLID_100_" style="fill:#C4C4DC;" points="823.5,538.6 799.3,524.6 815.7,515 839.9,529      "/>
                      <polygon id="XMLID_99_" style="fill:#C4C4DC;" points="579.2,418 550.5,401.4 566.9,391.7 595.6,408.3       "/>
                      <polygon id="XMLID_98_" style="fill:#EEEEFA;" points="596.4,427.9 580.5,418.7 596.8,409 612.7,418.2       "/>
                      <polygon id="XMLID_97_" style="fill:#EEEEFA;" points="613.5,437.8 597.6,428.6 614,418.9 629.9,428.1       "/>
                      <polygon id="XMLID_96_" style="fill:#EEEEFA;" points="630.7,447.6 614.7,438.5 631.1,428.8 647,438       "/>
                      <polygon id="XMLID_95_" style="fill:#EEEEFA;" points="647.8,457.5 631.9,448.4 648.2,438.7 664.2,447.9       "/>
                      <polygon id="XMLID_94_" style="fill:#EEEEFA;" points="664.9,467.4 649,458.2 665.4,448.6 681.3,457.8       "/>
                      <polygon id="XMLID_93_" style="fill:#EEEEFA;" points="682.1,477.3 666.1,468.1 682.5,458.5 698.4,467.7       "/>
                      <polygon id="XMLID_92_" style="fill:#EEEEFA;" points="699.2,487.2 683.3,478 699.6,468.4 715.6,477.6       "/>
                      <polygon id="XMLID_91_" style="fill:#EEEEFA;" points="716.3,497.1 700.4,487.9 716.8,478.3 732.7,487.5       "/>
                      <polygon id="XMLID_90_" style="fill:#EEEEFA;" points="733.5,507 717.6,497.8 733.9,488.2 749.8,497.4       "/>
                      <polygon id="XMLID_89_" style="fill:#EEEEFA;" points="750.6,516.9 734.7,507.7 751.1,498.1 767,507.2       "/>
                      <polygon id="XMLID_88_" style="fill:#EEEEFA;" points="767.7,526.8 751.8,517.6 768.2,508 784.1,517.1       "/>
                      <polygon id="XMLID_87_" style="fill:#C4C4DC;" points="806.1,548.9 769,527.5 785.3,517.8 822.4,539.3       "/>
                      <polygon id="XMLID_86_" style="fill:#C4C4DC;" points="553.2,423.3 533,411.7 549.4,402 569.6,413.7       "/>
                      <polygon id="XMLID_85_" style="fill:#EEEEFA;" points="570.4,433.2 554.5,424 570.8,414.4 586.7,423.6       "/>
                      <polygon id="XMLID_84_" style="fill:#EEEEFA;" points="587.5,443.1 571.6,433.9 588,424.3 603.9,433.5       "/>
                      <polygon id="XMLID_83_" style="fill:#EEEEFA;" points="604.6,453 588.7,443.8 605.1,434.2 621,443.4       "/>
                      <polygon id="XMLID_82_" style="fill:#EEEEFA;" points="621.8,462.9 605.9,453.7 622.2,444.1 638.1,453.3       "/>
                      <polygon id="XMLID_81_" style="fill:#EEEEFA;" points="638.9,472.8 623,463.6 639.4,454 655.3,463.1       "/>
                      <polygon id="XMLID_80_" style="fill:#EEEEFA;" points="656,482.7 640.1,473.5 656.5,463.9 672.4,473       "/>
                      <polygon id="XMLID_79_" style="fill:#EEEEFA;" points="673.2,492.6 657.3,483.4 673.6,473.7 689.6,482.9       "/>
                      <polygon id="XMLID_78_" style="fill:#EEEEFA;" points="690.3,502.5 674.4,493.3 690.8,483.6 706.7,492.8       "/>
                      <polygon id="XMLID_77_" style="fill:#EEEEFA;" points="707.5,512.4 691.5,503.2 707.9,493.5 723.8,502.7       "/>
                      <polygon id="XMLID_76_" style="fill:#EEEEFA;" points="724.6,522.3 708.7,513.1 725,503.4 741,512.6       "/>
                      <polygon id="XMLID_75_" style="fill:#EEEEFA;" points="741.7,532.2 725.8,523 742.2,513.3 758.1,522.5       "/>
                      <polygon id="XMLID_74_" style="fill:#C4C4DC;" points="776,552 743,532.9 759.3,523.2 792.4,542.3       "/>
                      <polygon id="XMLID_73_" style="fill:#C4C4DC;" points="535.8,433.6 515.6,422 531.9,412.3 552.1,424       "/>
                      <polygon id="XMLID_72_" style="fill:#C4C4DC;" points="552.9,443.5 537,434.4 553.4,424.7 569.3,433.9       "/>
                      <polygon id="XMLID_71_" style="fill:#C4C4DC;" points="570,453.4 554.1,444.2 570.5,434.6 586.4,443.8       "/>
                      <polygon id="XMLID_70_" style="fill:#EEEEFA;" points="677,496.1 673.3,493.9 587.6,444.5 571.3,454.1 656.9,503.6 660.6,505.7 
                        672.9,512.8 689.2,503.1       "/>
                      <polygon id="XMLID_69_" style="fill:#C4C4DC;" points="690,522.7 674.1,513.5 690.4,503.8 706.4,513       "/>
                      <polygon id="XMLID_68_" style="fill:#C4C4DC;" points="707.1,532.6 691.2,523.4 707.6,513.7 723.5,522.9       "/>
                      <polygon id="XMLID_67_" style="fill:#C4C4DC;" points="724.3,542.5 708.4,533.3 724.7,523.6 740.6,532.8       "/>
                      <polygon id="XMLID_66_" style="fill:#C4C4DC;" points="862.7,540.8 846.8,531.6 863.1,522 879,531.2       "/>
                      <polygon id="XMLID_65_" style="fill:#C4C4DC;" points="845.2,551.1 829.3,541.9 845.7,532.3 861.6,541.5       "/>
                      <polygon id="XMLID_64_" style="fill:#C4C4DC;" points="741.4,552.4 725.5,543.2 741.9,533.5 757.8,542.7       "/>
                      <polygon id="XMLID_63_" style="fill:#C4C4DC;" points="793.1,561.8 777.2,552.7 793.6,543 809.5,552.2       "/>
                      <polygon id="XMLID_62_" style="fill:#C4C4DC;" points="758.5,562.3 742.6,553.1 759,543.4 774.9,552.6       "/>
                      <polygon id="XMLID_61_" style="fill:#C4C4DC;" points="775.7,572.2 759.8,563 776.1,553.3 792,562.5       "/>
                      <polygon id="XMLID_60_" style="fill:#C4C4DC;" points="792.8,582 776.9,572.9 793.3,563.2 809.2,572.4       "/>
                      <polygon id="XMLID_59_" style="fill:#C4C4DC;" points="841,528.3 808.2,509.4 824.6,499.7 857.4,518.6       "/>
                      <polygon id="XMLID_58_" style="fill:#B8B8D1;" points="841,528.3 839.5,527.4 855.8,517.8 857.4,518.6       "/>
                      <polygon id="XMLID_57_" style="fill:#B8B8D1;" points="862.7,540.8 861.2,539.9 877.5,530.3 879,531.2       "/>
                      <polygon id="XMLID_56_" style="fill:#B8B8D1;" points="845.2,551.1 843.7,550.3 860.1,540.6 861.6,541.5       "/>
                      <polygon id="XMLID_55_" style="fill:#B8B8D1;" points="823.5,538.6 822,537.7 838.4,528.1 839.9,529       "/>
                      <polygon id="XMLID_54_" style="fill:#B8B8D1;" points="806.1,548.9 804.5,548 820.9,538.4 822.4,539.3       "/>
                      <polygon id="XMLID_53_" style="fill:#B8B8D1;" points="793.1,561.8 791.6,561 808,551.3 809.5,552.2       "/>
                      <polygon id="XMLID_52_" style="fill:#B8B8D1;" points="775.7,572.2 774.2,571.3 790.5,561.6 792,562.5       "/>
                      <polygon id="XMLID_51_" style="fill:#B8B8D1;" points="792.8,582 791.3,581.2 807.7,571.5 809.2,572.4       "/>
                      <polygon id="XMLID_50_" style="fill:#B8B8D1;" points="776,552 774.5,551.1 790.9,541.4 792.4,542.3       "/>
                      <polygon id="XMLID_49_" style="fill:#B8B8D1;" points="758.5,562.3 757,561.4 773.4,551.7 774.9,552.6       "/>
                      <polygon id="XMLID_48_" style="fill:#B8B8D1;" points="724.3,542.5 722.8,541.6 739.1,531.9 740.6,532.8       "/>
                      <polygon id="XMLID_47_" style="fill:#B8B8D1;" points="741.4,552.4 739.9,551.5 756.3,541.8 757.8,542.7       "/>
                      <polygon id="XMLID_46_" style="fill:#B8B8D1;" points="707.1,532.6 705.6,531.7 722,522 723.5,522.9       "/>
                      <polygon id="XMLID_45_" style="fill:#B8B8D1;" points="690,522.7 688.5,521.8 704.8,512.2 706.4,513       "/>
                      <polygon id="XMLID_44_" style="fill:#D3D3E2;" points="609.6,415.1 608.1,414.2 624.5,404.6 626,405.4       "/>
                      <polygon id="XMLID_43_" style="fill:#D3D3E2;" points="626.7,425 625.2,424.1 641.6,414.5 643.1,415.3       "/>
                      <polygon id="XMLID_42_" style="fill:#D3D3E2;" points="643.9,434.9 642.4,434 658.7,424.4 660.2,425.2       "/>
                      <polygon id="XMLID_41_" style="fill:#D3D3E2;" points="661,444.8 659.5,443.9 675.9,434.3 677.4,435.1       "/>
                      <polygon id="XMLID_40_" style="fill:#D3D3E2;" points="678.1,454.7 676.6,453.8 693,444.1 694.5,445       "/>
                      <polygon id="XMLID_39_" style="fill:#D3D3E2;" points="695.3,464.6 693.8,463.7 710.1,454 711.7,454.9       "/>
                      <polygon id="XMLID_38_" style="fill:#D3D3E2;" points="712.4,474.5 710.9,473.6 727.3,463.9 728.8,464.8       "/>
                      <polygon id="XMLID_37_" style="fill:#D3D3E2;" points="729.6,484.4 728,483.5 744.4,473.8 745.9,474.7       "/>
                      <polygon id="XMLID_36_" style="fill:#D3D3E2;" points="746.7,494.2 745.2,493.4 761.5,483.7 763,484.6       "/>
                      <polygon id="XMLID_35_" style="fill:#D3D3E2;" points="763.8,504.1 762.3,503.3 778.7,493.6 780.2,494.5       "/>
                      <polygon id="XMLID_34_" style="fill:#D3D3E2;" points="780.9,514 779.4,513.2 795.8,503.5 797.3,504.4       "/>
                      <polygon id="XMLID_33_" style="fill:#D3D3E2;" points="798.1,523.9 796.6,523 812.9,513.4 814.4,514.3       "/>
                      <polygon id="XMLID_32_" style="fill:#D3D3E2;" points="596.4,427.9 594.9,427 611.2,417.3 612.7,418.2       "/>
                      <polygon id="XMLID_31_" style="fill:#D3D3E2;" points="613.5,437.8 612,436.9 628.4,427.2 629.9,428.1       "/>
                      <polygon id="XMLID_30_" style="fill:#D3D3E2;" points="630.7,447.6 629.1,446.8 645.5,437.1 647,438       "/>
                      <polygon id="XMLID_29_" style="fill:#D3D3E2;" points="647.8,457.5 646.3,456.7 662.6,447 664.2,447.9       "/>
                      <polygon id="XMLID_28_" style="fill:#D3D3E2;" points="664.9,467.4 663.4,466.6 679.8,456.9 681.3,457.8       "/>
                      <polygon id="XMLID_27_" style="fill:#D3D3E2;" points="682.1,477.3 680.5,476.5 696.9,466.8 698.4,467.7       "/>
                      <polygon id="XMLID_26_" style="fill:#D3D3E2;" points="699.2,487.2 697.7,486.3 714,476.7 715.6,477.6       "/>
                      <polygon id="XMLID_25_" style="fill:#D3D3E2;" points="716.3,497.1 714.8,496.2 731.2,486.6 732.7,487.4       "/>
                      <polygon id="XMLID_24_" style="fill:#D3D3E2;" points="733.4,507 731.9,506.1 748.3,496.5 749.8,497.3       "/>
                      <polygon id="XMLID_23_" style="fill:#D3D3E2;" points="750.6,516.9 749.1,516 765.4,506.4 766.9,507.2       "/>
                      <polygon id="XMLID_22_" style="fill:#D3D3E2;" points="767.7,526.8 766.2,525.9 782.6,516.3 784.1,517.1       "/>
                      <polygon id="XMLID_21_" style="fill:#D3D3E2;" points="570.4,433.2 568.9,432.4 585.2,422.7 586.8,423.6       "/>
                      <polygon id="XMLID_20_" style="fill:#D3D3E2;" points="587.5,443.1 586,442.3 602.4,432.6 603.9,433.5       "/>
                      <polygon id="XMLID_19_" style="fill:#D3D3E2;" points="604.7,453 603.2,452.2 619.5,442.5 621,443.4       "/>
                      <polygon id="XMLID_18_" style="fill:#D3D3E2;" points="621.8,462.9 620.3,462.1 636.7,452.4 638.2,453.3       "/>
                      <polygon id="XMLID_17_" style="fill:#D3D3E2;" points="638.9,472.8 637.4,471.9 653.8,462.3 655.3,463.2       "/>
                      <polygon id="XMLID_16_" style="fill:#D3D3E2;" points="656.1,482.7 654.6,481.8 670.9,472.2 672.4,473.1       "/>
                      <polygon id="XMLID_15_" style="fill:#D3D3E2;" points="673.2,492.6 671.7,491.7 688.1,482.1 689.6,482.9       "/>
                      <polygon id="XMLID_14_" style="fill:#D3D3E2;" points="690.3,502.5 688.8,501.6 705.2,492 706.7,492.8       "/>
                      <polygon id="XMLID_13_" style="fill:#D3D3E2;" points="707.5,512.4 705.9,511.5 722.3,501.8 723.8,502.7       "/>
                      <polygon id="XMLID_12_" style="fill:#D3D3E2;" points="724.6,522.3 723.1,521.4 739.4,511.7 741,512.6       "/>
                      <polygon id="XMLID_11_" style="fill:#D3D3E2;" points="741.7,532.2 740.2,531.3 756.6,521.6 758.1,522.5       "/>
                      <polygon id="XMLID_10_" style="fill:#D3D3E2;" points="672.9,512.8 671.3,511.9 687.7,502.3 689.2,503.1       "/>
                    </g>
                    <polygon id="XMLID_8_" style="fill:#B8B8D1;" points="570,453.4 568.5,452.6 584.9,442.9 586.4,443.8    "/>
                    <polygon id="XMLID_7_" style="fill:#B8B8D1;" points="552.9,443.5 551.4,442.7 567.8,433 569.3,433.9    "/>
                    <polygon id="XMLID_6_" style="fill:#B8B8D1;" points="535.8,433.6 534.3,432.8 550.6,423.1 552.1,424    "/>
                    <polygon id="XMLID_5_" style="fill:#B8B8D1;" points="553.2,423.3 551.7,422.5 568.1,412.8 569.6,413.7    "/>
                    <polygon id="XMLID_4_" style="fill:#B8B8D1;" points="579.2,418 577.7,417.1 594.1,407.4 595.6,408.3    "/>
                    <polygon id="XMLID_3_" style="fill:#B8B8D1;" points="592.4,405.2 590.9,404.3 607.3,394.7 608.8,395.5    "/>
                  </g>
                </g>
                <g id="diagram">
                  <g>
                    <path style="fill:#39B54A;" d="M598.6,222.9L416.7,121c-3.6-2.1-6.6-0.4-6.6,3.8l0,142.3c0,4.2,2.9,9.3,6.6,11.4l181.9,104.9
                      c3.6,2.1,6.6,0.4,6.6-3.8V234.2C605.1,230.1,602.2,225,598.6,222.9z"/>
                    <linearGradient id="SVGID_7_" gradientUnits="userSpaceOnUse" x1="487.9305" y1="121.3297" x2="534.6009" y2="484.9094">
                      <stop  offset="0" style="stop-color:#D0F04F"/>
                      <stop  offset="1" style="stop-color:#3CA845"/>
                    </linearGradient>
                    <path style="fill:url(#SVGID_7_);" d="M592.8,223.8L416.4,121.5c-3.5-2-6.4-0.4-6.4,3.7l0,141.8c0,4.1,2.8,9,6.4,11.1l176.4,102.3
                      c3.5,2,6.4,0.4,6.4-3.7V234.9C599.1,230.8,596.3,225.9,592.8,223.8z"/>
                  </g>
                  <g>
                    <linearGradient id="SVGID_8_" gradientUnits="userSpaceOnUse" x1="429.2421" y1="195.0369" x2="508.9173" y2="282.2285">
                      <stop  offset="0" style="stop-color:#FFFFFF"/>
                      <stop  offset="0.2804" style="stop-color:#F5F8FD"/>
                      <stop  offset="0.7606" style="stop-color:#D9E5F6"/>
                      <stop  offset="1" style="stop-color:#C9DAF2"/>
                    </linearGradient>
                    <path style="fill:url(#SVGID_8_);" d="M490.4,208.2l-21.5,30.1c-0.2,0.3-0.6,0.4-1.2,0.1c-0.3-0.2-0.7-0.5-0.9-0.9l-32.6-50.5
                      c-5.7,5.1-9.1,13.6-9.1,25c-0.1,27.2,18.9,60.3,42.5,73.9c23.5,13.7,42.7,2.7,42.8-24.5C510.3,244,502.4,223.9,490.4,208.2z"/>
                    <linearGradient id="SVGID_9_" gradientUnits="userSpaceOnUse" x1="435.516" y1="203.357" x2="487.4644" y2="203.357">
                      <stop  offset="0" style="stop-color:#4D63D5"/>
                      <stop  offset="1" style="stop-color:#5825C7"/>
                    </linearGradient>
                    <path style="fill:url(#SVGID_9_);" d="M487.5,200.6c-6-7.2-12.8-13.3-20.1-17.5c-12.6-7.3-24-7.6-31.8-2l31.3,48.5L487.5,200.6z"
                      />
                  </g>
                  <g>
                    <linearGradient id="SVGID_10_" gradientUnits="userSpaceOnUse" x1="523.8599" y1="294.2947" x2="587.1138" y2="294.2947">
                      <stop  offset="0" style="stop-color:#FFFFFF"/>
                      <stop  offset="0.2804" style="stop-color:#F5F8FD"/>
                      <stop  offset="0.7606" style="stop-color:#D9E5F6"/>
                      <stop  offset="1" style="stop-color:#C9DAF2"/>
                    </linearGradient>
                    <polygon style="fill:url(#SVGID_10_);" points="523.9,279 587.1,315.6 587.1,309.6 523.9,272.9    "/>
                    <linearGradient id="SVGID_11_" gradientUnits="userSpaceOnUse" x1="523.8279" y1="297.6967" x2="560.0126" y2="297.6967">
                      <stop  offset="0" style="stop-color:#FFFFFF"/>
                      <stop  offset="0.2804" style="stop-color:#F5F8FD"/>
                      <stop  offset="0.7606" style="stop-color:#D9E5F6"/>
                      <stop  offset="1" style="stop-color:#C9DAF2"/>
                    </linearGradient>
                    <polygon style="fill:url(#SVGID_11_);" points="523.8,290.2 560,311.2 560,305.2 523.8,284.2    "/>
                    <linearGradient id="SVGID_12_" gradientUnits="userSpaceOnUse" x1="523.8923" y1="283.0476" x2="587.1459" y2="283.0476">
                      <stop  offset="0" style="stop-color:#FFFFFF"/>
                      <stop  offset="0.2804" style="stop-color:#F5F8FD"/>
                      <stop  offset="0.7606" style="stop-color:#D9E5F6"/>
                      <stop  offset="1" style="stop-color:#C9DAF2"/>
                    </linearGradient>
                    <polygon style="fill:url(#SVGID_12_);" points="523.9,261.7 523.9,267.7 587.1,304.4 587.1,298.4    "/>
                  </g>
                  <linearGradient id="SVGID_13_" gradientUnits="userSpaceOnUse" x1="570.0612" y1="217.9317" x2="598.8864" y2="258.7888">
                    <stop  offset="0" style="stop-color:#FFFFFF"/>
                    <stop  offset="0.2619" style="stop-color:#F5F6F9"/>
                    <stop  offset="0.7107" style="stop-color:#D9DDE9"/>
                    <stop  offset="1" style="stop-color:#C4CADC"/>
                  </linearGradient>
                  <path style="fill:url(#SVGID_13_);" d="M583.9,235.8l2.9-1.6c0.6-0.3,0.6-1.4,0-2.4c-0.3-0.5-0.7-0.9-1-1.1c-0.4-0.2-0.7-0.3-1-0.1
                    l-2.8,1.6l-2.8-4.9c-0.3-0.5-0.7-0.9-1-1.1c-0.4-0.2-0.8-0.3-1-0.1c-0.6,0.3-0.6,1.4,0,2.4l2.8,5l-2.8,1.6c-0.6,0.3-0.6,1.4,0,2.4
                    c0.3,0.5,0.7,0.9,1,1.1c0.4,0.2,0.7,0.3,1,0.1l2.8-1.6l2.8,4.9c0.3,0.5,0.7,0.9,1,1.1c0.4,0.2,0.8,0.3,1,0.1c0.6-0.3,0.6-1.4,0-2.4
                    L583.9,235.8z"/>
                </g>
                <g id="search">
                  <path style="fill:#21252966;fill-opacity:0.3;" d="M596.1,634.4l-173.5-96.1l-4.1-15.9c-3.8-14.5-17.8-32.4-31.1-39.8L274,419.7
                    c-13.4-7.4-27.5-5.1-31.3,5.2l-4.2,11.3l-3.1-1.7c-13.4-7.4-24.4-2.9-24.4,10l-0.1,43c0,12.9,10.9,29.5,24.2,36.9l360.7,199.9
                    c13.4,7.4,24.4,2.9,24.4-10l0.1-43C620.4,658.4,609.5,641.8,596.1,634.4z"/>
                  <path style="fill:#FFFFFF;" d="M566.1,574.4l-173.5-96.1l-4.1-15.9c-3.8-14.5-17.8-32.4-31.1-39.8L244,359.7
                    c-13.4-7.4-27.5-5.1-31.3,5.2l-4.2,11.3l-3.1-1.7c-13.4-7.4-24.4-2.9-24.4,10l-0.1,43c0,12.9,10.9,29.5,24.2,36.9l360.7,199.9
                    c13.4,7.4,24.4,2.9,24.4-10l0.1-43C590.4,598.4,579.5,581.8,566.1,574.4z"/>
                  <path style="fill:#E9DFF0;" d="M561.2,593.8L206.5,397.3c-4.5-2.5-8.1-1-8.1,3.3l-0.1,40.4c0,4.3,3.6,9.8,8.1,12.3L561,649.8
                    c4.5,2.5,8.1,1,8.1-3.3l0.1-40.4C569.3,601.8,565.6,596.3,561.2,593.8z"/>
                  <path style="fill:#D3BFE3;" d="M565.8,647.9L211.2,451.3c-4.5-2.5-8.1-8-8.1-12.3l0.1-40.4c0-1,0.2-1.8,0.5-2.4
                    c-3.1-0.6-5.4,1-5.4,4.3l-0.1,40.4c0,4.3,3.6,9.8,8.1,12.3L561,649.8c3.5,1.9,6.4,1.4,7.6-0.9C567.7,648.8,566.8,648.4,565.8,647.9
                    z"/>
                  <g id="www.good-production.com">
                    <text transform="matrix(0.8867 0.4984 0 1 202.6184 437.7487)"><tspan x="0" y="0" style="fill:#575757; font-family:'Exo-Light'; font-size:41.3795px; letter-spacing:-1;">ww</tspan><tspan x="58.4" y="0" style="fill:#575757; font-family:'Exo-Light'; font-size:41.3795px; letter-spacing:-2.9;">w</tspan><tspan x="85.5" y="0" style="fill:#575757; font-family:'Exo-Light'; font-size:41.3795px; letter-spacing:-1;">.good-p</tspan><tspan x="210.1" y="0" style="fill:#575757; font-family:'Exo-Light'; font-size:41.3795px; letter-spacing:-2;">r</tspan><tspan x="221.5" y="0" style="fill:#575757; font-family:'Exo-Light'; font-size:41.3795px; letter-spacing:-1;">odu</tspan><tspan x="285.1" y="0" style="fill:#575757; font-family:'Exo-Light'; font-size:41.3795px; letter-spacing:-1;">c</tspan><tspan x="302.4" y="0" style="fill:#575757; font-family:'Exo-Light'; font-size:41.3795px; letter-spacing:-1;">tion.ru</tspan></text>
                  </g>
                  <linearGradient id="SVGID_14_" gradientUnits="userSpaceOnUse" x1="347.8575" y1="426.3163" x2="392.4981" y2="489.5901">
                    <stop  offset="0" style="stop-color:#596A87"/>
                    <stop  offset="0.3908" style="stop-color:#4F6283"/>
                    <stop  offset="1" style="stop-color:#36507A"/>
                  </linearGradient>
                  <path style="fill:url(#SVGID_14_);" d="M369.4,453.9l4.7-2.5c0.9-0.5,0.9-2.1,0-3.6c-0.5-0.8-1.1-1.3-1.7-1.7
                    c-0.6-0.3-1.2-0.4-1.7-0.2l-4.7,2.5l-4.6-7.5c-0.5-0.8-1.1-1.3-1.7-1.7c-0.6-0.3-1.2-0.4-1.7-0.2c-0.9,0.5-0.9,2.1,0,3.6l4.6,7.5
                    l-4.7,2.5c-0.9,0.5-0.9,2.1,0,3.6c0.5,0.8,1.1,1.3,1.7,1.7c0.6,0.3,1.2,0.4,1.7,0.2l4.7-2.5l4.6,7.5c0.5,0.8,1.1,1.3,1.7,1.7
                    c0.6,0.3,1.2,0.4,1.7,0.2c0.9-0.5,0.9-2.1,0-3.6L369.4,453.9z"/>
                </g>
                <g id="plus">
                  <path style="fill:#21252966;fill-opacity:0.3;" d="M1003,243.6h10.9v10.9c0,5,4,9,9,9h0.8c5,0,9-4,9-9v-10.9h10.9c5,0,9-4,9-9v-0.8c0-5-4-9-9-9h-7.5
                    c-12,6.9-25.4,11.9-40.6,14.6C997,242,999.8,243.6,1003,243.6z"/>
                  <linearGradient id="SVGID_15_" gradientUnits="userSpaceOnUse" x1="1030.9647" y1="219.0866" x2="987.5944" y2="247.2774">
                    <stop  offset="0" style="stop-color:#C0FC58"/>
                    <stop  offset="1" style="stop-color:#43BA45"/>
                  </linearGradient>
                  <path style="fill:url(#SVGID_15_);" d="M1038.2,218.1h-10.9v-10.9c0-5-4-9-9-9h-0.8c-5,0-9,4-9,9v10.9h-10.9c-5,0-9,4-9,9v0.8
                    c0,5,4,9,9,9h10.9v10.9c0,5,4,9,9,9h0.8c5,0,9-4,9-9v-10.9h10.9c5,0,9-4,9-9v-0.8C1047.2,222.2,1043.2,218.1,1038.2,218.1z"/>
                </g>
                <g id="line">
                  <g>
                    <path style="fill:#21252966;fill-opacity:0.3;" d="M575.7,789.1c-2.4,0-4.8-0.8-6.8-2.5c-4.5-3.7-5.1-10.4-1.3-14.9l25.4-30.3
                      c2.7-3.3,7.1-4.6,11.2-3.3l31.1,9.5l20.8-24.9c2.7-3.3,7.1-4.6,11.2-3.3l37.7,11.6c5.6,1.7,8.7,7.6,7,13.2
                      c-1.7,5.6-7.6,8.7-13.2,7l-31-9.5l-20.8,24.9c-2.7,3.3-7.1,4.6-11.2,3.3l-31-9.5l-20.9,24.9C581.7,787.8,578.7,789.1,575.7,789.1z
                      "/>
                  </g>
                  <g>
                    
                      <linearGradient id="SVGID_16_" gradientUnits="userSpaceOnUse" x1="6570.6431" y1="2759.498" x2="6460.4595" y2="2831.1172" gradientTransform="matrix(-0.9589 0.2837 -0.2837 -0.9589 7668.5356 1576.7452)">
                      <stop  offset="0" style="stop-color:#FFEA00"/>
                      <stop  offset="1" style="stop-color:#FFAE00"/>
                    </linearGradient>
                    <path style="fill:url(#SVGID_16_);" d="M564.8,774.1c-2.4,0-4.8-0.8-6.8-2.5c-4.5-3.7-5.1-10.4-1.3-14.9l25.4-30.3
                      c2.7-3.3,7.1-4.6,11.2-3.3l31.1,9.5l20.8-24.9c2.7-3.3,7.1-4.6,11.2-3.3l37.7,11.6c5.6,1.7,8.7,7.6,7,13.2
                      c-1.7,5.6-7.6,8.7-13.2,7l-31-9.5L636,751.7c-2.7,3.3-7.1,4.6-11.2,3.3l-31-9.5l-20.9,24.9C570.8,772.8,567.8,774.1,564.8,774.1z"
                      />
                  </g>
                </g>
                <g id="phone">
                  <path style="fill:#21252966;fill-opacity:0.3;" d="M1086.2,635.4L1086.2,635.4l-6.2-3.6l-90.6-52.3c-7.7-4.4-17.1-4.4-24.7,0L741.4,708.4l0,0
                    c-11,6.3-9.2,23,2.3,29.6l85.4,49.3c13.3,7.7,29.6,7.6,42.8,0l214.3-123.7C1098.1,656.8,1097.7,642.1,1086.2,635.4z"/>
                  <g>
                    <linearGradient id="SVGID_17_" gradientUnits="userSpaceOnUse" x1="734.0767" y1="681.5522" x2="1095" y2="681.5522">
                      <stop  offset="0.173" style="stop-color:#B1D1ED"/>
                      <stop  offset="0.3272" style="stop-color:#A7CBEA"/>
                      <stop  offset="0.7425" style="stop-color:#8FBDE2"/>
                      <stop  offset="1" style="stop-color:#86B9E0"/>
                    </linearGradient>
                    <path style="fill:url(#SVGID_17_);" d="M1086.2,602.7c11.6,6.7,12,21.4,0.1,28.2L872,754.7c-13.2,7.7-29.6,7.7-42.8,0l-85.4-49.3
                      c-11.5-6.6-13.3-23.3-2.3-29.6"/>
                    <path style="fill:#D6E7F6;" d="M1086.2,602.7l-6.2-3.6l-90.6-52.3c-7.7-4.4-17.1-4.4-24.7,0L741.4,675.7
                      c-6.4,3.7-7.5,11.9-3.3,17.2c0.9,1.1,2,2.1,3.3,2.9l88.3,51c12.9,7.4,28.8,7.4,41.6,0l214.8-124
                      C1093.9,618.3,1093.9,607.1,1086.2,602.7z"/>
                    <linearGradient id="SVGID_18_" gradientUnits="userSpaceOnUse" x1="758.5764" y1="647.5464" x2="1074.7449" y2="647.5464">
                      <stop  offset="0" style="stop-color:#596A87"/>
                      <stop  offset="0.3908" style="stop-color:#4F6283"/>
                      <stop  offset="1" style="stop-color:#36507A"/>
                    </linearGradient>
                    <polygon style="fill:url(#SVGID_18_);" points="758.6,672.4 873.5,738.8 1074.7,622.7 959.8,556.3     "/>
                    <linearGradient id="SVGID_19_" gradientUnits="userSpaceOnUse" x1="758.5764" y1="614.3574" x2="1074.7449" y2="614.3574">
                      <stop  offset="0" style="stop-color:#FFFFFF;stop-opacity:0.2"/>
                      <stop  offset="0.5385" style="stop-color:#F5F9FF;stop-opacity:9.229317e-02"/>
                      <stop  offset="1" style="stop-color:#E8F1FF;stop-opacity:0"/>
                    </linearGradient>
                    <polyline style="fill:url(#SVGID_19_);" points="1074.7,622.7 959.8,556.3 758.6,672.4    "/>
                  </g>
                  <g>
                    <path style="fill:#B4CEE0;" d="M1015.8,580.3l23.7,13.7c1.3,0.8,2.9,0.8,4.2,0l0,0c1.4-0.8,1.4-2.8,0-3.5l-23.5-13.6
                      c-1.3-0.8-3-0.8-4.3,0l0,0C1014.4,577.6,1014.4,579.5,1015.8,580.3z"/>
                    <path style="fill:#98BBD4;" d="M1015.8,577.8c1.3-0.8,3-0.8,4.3,0l23.5,13.6c0.5,0.3,0.8,0.8,1,1.3c0.2-0.8-0.1-1.8-1-2.3
                      l-23.5-13.6c-1.3-0.8-3-0.8-4.3,0c-0.8,0.5-1.1,1.4-0.9,2.2C1014.9,578.5,1015.3,578.1,1015.8,577.8z"/>
                  </g>
                  <g>
                    <path style="fill:none;stroke:#98BBD4;stroke-width:0.8717;stroke-miterlimit:10;" d="M810.6,721.7l-20.3-11.7
                      c-1.9-1.1-1.9-3.8,0-5l0,0c1.8-1.1,4.1-1.1,6,0l20.3,11.7c1.9,1.1,1.9,3.9,0,5l0,0C814.7,722.7,812.5,722.7,810.6,721.7z"/>
                  </g>
                  <g id="like3">
                    <g>
                      <path style="fill:#BB4360;" d="M850.5,588.8l-3.6-2c-0.1,0-0.1-0.1-0.2-0.1l-0.2-0.1l0,0c-1.1-0.5-2.5-0.4-4.1,0.5l-36.6,21.2
                        c-3.4,2-6.2,7-6.2,11.1V652c0,2.3,0.9,3.9,2.2,4.5l0,0l3.5,2l2.6-1.9l-1.7-0.9l7.2-4.2l0.8,0.8l8.1,8.5c0.1,0.1,0.2,0.2,0.4,0.3
                        l3.7,2.1l-0.6-4.2l-0.1,0c0.1-0.1,0.1-0.2,0.2-0.3L834,641l0.8-1.8l7.6-4.4c3.4-2,6.2-7,6.2-11.1v-32.6c0-0.1,0-0.2,0-0.4
                        L850.5,588.8z"/>
                      <path style="fill:#DE536E;" d="M846.3,589.3l-36.6,21.2c-3.4,2-6.2,7-6.2,11.1v32.6c0,4.2,2.8,5.9,6.2,3.9l7.6-4.4l0.8,0.8
                        l8.1,8.5c0.9,1,2.7-0.1,3.6-2.1l8.1-17.9l0.8-1.8l7.6-4.4c3.4-2,6.2-7,6.2-11.1v-32.6C852.5,589.1,849.7,587.3,846.3,589.3z"/>
                      <g>
                        <g>
                          <path style="fill:#FFFFFF;" d="M833.6,615.6c0,3.7-2.5,8.2-5.6,10c-3.1,1.8-5.6,0.2-5.6-3.5c0-3.7,2.5-8.2,5.6-10
                            C831.1,610.3,833.6,611.9,833.6,615.6z"/>
                        </g>
                        <path style="fill:#FFFFFF;" d="M832.6,625.1l-9.2,5.3c-3.3,1.9-6,6.8-6,10.8l0,0l21.3-12.3l0,0
                          C838.6,624.9,835.9,623.2,832.6,625.1z"/>
                      </g>
                    </g>
                  </g>
                  <g id="like2">
                    <g>
                      <path style="fill:#BB4360;" d="M1002,509.8l-3.6-2c-0.1,0-0.1-0.1-0.2-0.1l-0.2-0.1l0,0c-1.1-0.5-2.5-0.4-4.1,0.5l-36.6,21.2
                        c-3.4,2-6.2,7-6.2,11.1V573c0,2.3,0.9,3.9,2.2,4.5l0,0l3.5,2l2.6-1.9l-1.7-0.9l7.2-4.2l0.8,0.8l8.1,8.5c0.1,0.1,0.2,0.2,0.4,0.3
                        l3.7,2.1l-0.6-4.2l-0.1,0c0.1-0.1,0.1-0.2,0.2-0.3l8.1-17.9l0.8-1.8l7.6-4.4c3.4-2,6.2-7,6.2-11.1v-32.6c0-0.1,0-0.2,0-0.4
                        L1002,509.8z"/>
                      <path style="fill:#DE536E;" d="M997.9,510.3l-36.6,21.2c-3.4,2-6.2,7-6.2,11.1v32.6c0,4.2,2.8,5.9,6.2,3.9l7.6-4.4l0.8,0.8
                        l8.1,8.5c0.9,1,2.7-0.1,3.6-2.1l8.1-17.9l0.8-1.8l7.6-4.4c3.4-2,6.2-7,6.2-11.1v-32.6C1004.1,510.1,1001.3,508.3,997.9,510.3z"/>
                      <g>
                        <path style="fill:#FFFFFF;" d="M988.3,544c0.6-2,0.9-4,0.9-5.9c-0.2-5.9-4.7-8.4-9.6-5.5c-5.3,3.1-9.5,10.7-9.5,17.1
                          c0,6.2,4.1,9,9.2,6.3c1.7-0.9,3.3-2.3,4.7-4c0.8-0.9,1.6-1.5,2.5-1.8l2.4-0.8l-0.6-1.9C987.8,546.6,987.9,545.3,988.3,544z"/>
                      </g>
                    </g>
                  </g>
                  <g id="like">
                    <g>
                      <path style="fill:#BB4360;" d="M944.5,541l-5.6-3.2c-0.1-0.1-0.2-0.1-0.2-0.1l-0.3-0.2l0,0c-1.7-0.8-3.9-0.6-6.4,0.8l-57.2,33.1
                        c-5.4,3.1-9.7,10.9-9.7,17.4v51c0,3.6,1.3,6.1,3.4,7l0,0l5.4,3.1l4.1-2.9l-2.6-1.4l11.2-6.5l1.3,1.3l12.6,13.3
                        c0.2,0.2,0.4,0.4,0.6,0.5l5.8,3.3l-0.9-6.6l-0.1,0c0.1-0.2,0.2-0.3,0.2-0.5l12.6-27.9l1.3-2.8l11.9-6.9
                        c5.4-3.1,9.7-10.9,9.7-17.4v-51c0-0.2,0-0.4,0-0.6L944.5,541z"/>
                      <path style="fill:#DE536E;" d="M938,541.7l-57.2,33.1c-5.4,3.1-9.7,10.9-9.7,17.4v51c0,6.5,4.3,9.3,9.7,6.2l11.9-6.9l1.3,1.3
                        l12.6,13.3c1.4,1.5,4.2-0.2,5.7-3.3l12.6-27.9l1.3-2.8l11.9-6.9c5.4-3.1,9.7-10.9,9.7-17.4v-51
                        C947.7,541.3,943.4,538.6,938,541.7z"/>
                      <g>
                        <path style="fill:#FFFFFF;" d="M917,573.3c-5.2,3-7.6,9-7.6,9s-2.4-3.2-7.6-0.2c-5.2,3-9.1,11-9.1,17.9
                          c0,8.9,8.4,11.1,16.7,13.7c8.4-12.2,16.7-24.1,16.7-33.1C926.1,573.8,922.3,570.3,917,573.3z"/>
                      </g>
                    </g>
                  </g>
                </g>
                <g id="mes">
                  <g id="XMLID_178_">
                    <g id="XMLID_183_">
                      <polygon id="XMLID_185_" style="fill:#B4CEE0;" points="923.3,228.8 923.3,247.9 887.3,204.2 767.6,133.8 764.2,39.1 
                        923.3,126.1       "/>
                    </g>
                  </g>
                  <g id="XMLID_143_">
                    <g id="XMLID_150_">
                      <polygon id="XMLID_152_" style="fill:#EEEEFA;" points="918.7,222.8 918.7,241.9 886.2,204 764.6,133.8 764.6,39.4 918.7,128.4 
                              "/>
                      <polygon id="XMLID_151_" style="fill:#3F91FF;" points="918.7,140.4 765,51.6 765,39.6 918.7,128.4      "/>
                    </g>
                    <g id="XMLID_144_" style="opacity:0.84;">
                      <path id="XMLID_149_" style="fill:#3F91FF;" d="M819.1,120.2c0,6.9-4.8,9.7-10.8,6.2c-6-3.4-10.8-11.8-10.8-18.7
                        s4.8-9.7,10.8-6.2C814.3,104.9,819.1,113.3,819.1,120.2z"/>
                      <path id="XMLID_147_" style="fill:#3F91FF;" d="M852.5,139.5c0,6.9-4.8,9.7-10.8,6.2c-6-3.4-10.8-11.8-10.8-18.7
                        c0-6.9,4.8-9.7,10.8-6.2C847.7,124.2,852.5,132.6,852.5,139.5z"/>
                      <path id="XMLID_146_" style="fill:#3F91FF;" d="M885.9,158.7c0,6.9-4.8,9.7-10.8,6.2c-6-3.4-10.8-11.8-10.8-18.7
                        c0-6.9,4.8-9.7,10.8-6.2C881,143.4,885.9,151.8,885.9,158.7z"/>
                    </g>
                  </g>
                  <polygon id="XMLID_142_" style="display:none;fill:#CECEE0;" points="918.7,241.9 914.6,237.1 914.6,126.1 918.7,128.4   "/>
                </g>
                <g id="item">
                  <polygon id="XMLID_199_" style="fill:#EEEEFA;" points="725.6,262.9 528.6,149.2 528.6,10.6 725.6,124.4   "/>
                  <linearGradient id="XMLID_141_" gradientUnits="userSpaceOnUse" x1="528.5674" y1="76.2795" x2="725.6128" y2="76.2795">
                    <stop  offset="0" style="stop-color:#8FFFFF"/>
                    <stop  offset="0.3693" style="stop-color:#4070B7"/>
                    <stop  offset="0.7613" style="stop-color:#85005B"/>
                    <stop  offset="1" style="stop-color:#CB2376"/>
                  </linearGradient>
                  <polygon id="XMLID_198_" style="opacity:0.84;fill:url(#XMLID_141_);" points="725.6,141.9 528.6,28.2 528.6,10.6 725.6,124.4  "/>
                  <g id="XMLID_191_">
                    <path id="XMLID_197_" style="fill:#EA4886;" d="M578.8,84c0,6.5-4.6,9.1-10.2,5.9c-5.6-3.3-10.2-11.2-10.2-17.7
                      c0-6.5,4.6-9.1,10.2-5.9C574.3,69.6,578.8,77.5,578.8,84z"/>
                    <linearGradient id="XMLID_145_" gradientUnits="userSpaceOnUse" x1="588.8151" y1="120.6643" x2="695.7526" y2="120.6643">
                      <stop  offset="0" style="stop-color:#8FFFFF"/>
                      <stop  offset="0.3693" style="stop-color:#4070B7"/>
                      <stop  offset="0.7613" style="stop-color:#85005B"/>
                      <stop  offset="1" style="stop-color:#CB2376"/>
                    </linearGradient>
                    <path id="XMLID_196_" style="opacity:0.84;fill:url(#XMLID_145_);" d="M692.5,154L592.1,96.1c-1.8-1.1-3.3-3.9-3.3-6.3l0,0
                      c0-2.4,1.5-3.5,3.3-2.5l100.3,57.9c1.8,1.1,3.3,3.9,3.3,6.3l0,0C695.8,154,694.3,155.1,692.5,154z"/>
                    <path id="XMLID_195_" style="fill:#3C2768;" d="M578.8,117.5c0,6.5-4.6,9.1-10.2,5.9c-5.6-3.3-10.2-11.2-10.2-17.7
                      c0-6.5,4.6-9.1,10.2-5.9C574.3,103.1,578.8,111,578.8,117.5z"/>
                    <linearGradient id="XMLID_148_" gradientUnits="userSpaceOnUse" x1="588.8151" y1="154.1508" x2="695.7526" y2="154.1508">
                      <stop  offset="0" style="stop-color:#8FFFFF"/>
                      <stop  offset="0.3693" style="stop-color:#4070B7"/>
                      <stop  offset="0.7613" style="stop-color:#85005B"/>
                      <stop  offset="1" style="stop-color:#CB2376"/>
                    </linearGradient>
                    <path id="XMLID_194_" style="opacity:0.84;fill:url(#XMLID_148_);" d="M692.5,187.5l-100.3-57.9c-1.8-1.1-3.3-3.9-3.3-6.3l0,0
                      c0-2.4,1.5-3.5,3.3-2.5l100.3,57.9c1.8,1.1,3.3,3.9,3.3,6.3l0,0C695.8,187.5,694.3,188.6,692.5,187.5z"/>
                    <path id="XMLID_193_" style="fill:#FFBB25;" d="M578.8,151c0,6.5-4.6,9.1-10.2,5.9c-5.6-3.3-10.2-11.2-10.2-17.7
                      c0-6.5,4.6-9.1,10.2-5.9C574.3,136.6,578.8,144.5,578.8,151z"/>
                    <linearGradient id="XMLID_153_" gradientUnits="userSpaceOnUse" x1="588.8151" y1="187.6373" x2="695.7526" y2="187.6373">
                      <stop  offset="0" style="stop-color:#8FFFFF"/>
                      <stop  offset="0.3693" style="stop-color:#4070B7"/>
                      <stop  offset="0.7613" style="stop-color:#85005B"/>
                      <stop  offset="1" style="stop-color:#CB2376"/>
                    </linearGradient>
                    <path id="XMLID_192_" style="opacity:0.84;fill:url(#XMLID_153_);" d="M692.5,221l-100.3-57.9c-1.8-1.1-3.3-3.9-3.3-6.3l0,0
                      c0-2.4,1.5-3.5,3.3-2.5l100.3,57.9c1.8,1.1,3.3,3.9,3.3,6.3l0,0C695.8,220.9,694.3,222.1,692.5,221z"/>
                  </g>
                  <polygon id="XMLID_190_" style="fill:#CECEE0;" points="725.6,262.9 721.5,260.6 721.5,122 725.6,124.4  "/>
                </g>
                <g id="grafic">
                  <g>
                    <linearGradient id="SVGID_20_" gradientUnits="userSpaceOnUse" x1="923.0659" y1="215.2208" x2="959.4764" y2="498.8712">
                      <stop  offset="0" style="stop-color:#D0F04F"/>
                      <stop  offset="0.2742" style="stop-color:#D9DB44"/>
                      <stop  offset="0.84" style="stop-color:#F0A427"/>
                      <stop  offset="1" style="stop-color:#F7931E"/>
                    </linearGradient>
                    <path style="fill:url(#SVGID_20_);" d="M1030.9,329.8L848.7,226.1c-3.6-2.1-6.5-0.4-6.5,3.7l3,143.7c0,4.1,2.9,9.2,6.5,11.2
                      l179.2,103.7c3.6,2.1,6.5,0.4,6.5-3.7V341C1037.4,336.9,1034.5,331.8,1030.9,329.8z"/>
                    <linearGradient id="SVGID_21_" gradientUnits="userSpaceOnUse" x1="920.1387" y1="226.3833" x2="966.8099" y2="589.9693">
                      <stop  offset="0" style="stop-color:#D0F04F"/>
                      <stop  offset="0.2742" style="stop-color:#D9DB44"/>
                      <stop  offset="0.84" style="stop-color:#F0A427"/>
                      <stop  offset="1" style="stop-color:#F7931E"/>
                    </linearGradient>
                    <path style="fill:url(#SVGID_21_);" d="M1025,328.9L848.6,226.6c-3.5-2-6.4-0.4-6.4,3.7l0,141.8c0,4.1,2.8,9,6.4,11.1L1025,485.4
                      c3.5,2,6.4,0.4,6.4-3.7V340C1031.4,335.9,1028.5,330.9,1025,328.9z"/>
                  </g>
                  <linearGradient id="SVGID_22_" gradientUnits="userSpaceOnUse" x1="1002.2852" y1="322.9865" x2="1031.1122" y2="363.8461">
                    <stop  offset="0" style="stop-color:#FFFFFF"/>
                    <stop  offset="0.2619" style="stop-color:#F5F6F9"/>
                    <stop  offset="0.7107" style="stop-color:#D9DDE9"/>
                    <stop  offset="1" style="stop-color:#C4CADC"/>
                  </linearGradient>
                  <path style="fill:url(#SVGID_22_);" d="M1016.1,340.8l2.9-1.6c0.6-0.3,0.6-1.4,0-2.4c-0.3-0.5-0.7-0.9-1-1.1
                    c-0.4-0.2-0.7-0.3-1-0.1l-2.8,1.6l-2.8-4.9c-0.3-0.5-0.7-0.9-1-1.1c-0.4-0.2-0.8-0.3-1-0.1c-0.6,0.3-0.6,1.4,0,2.4l2.8,5l-2.8,1.6
                    c-0.6,0.3-0.6,1.4,0,2.4c0.3,0.5,0.7,0.9,1,1.1c0.4,0.2,0.7,0.3,1,0.1l2.8-1.6l2.8,4.9c0.3,0.5,0.7,0.9,1,1.1
                    c0.4,0.2,0.8,0.3,1,0.1c0.6-0.3,0.6-1.4,0-2.4L1016.1,340.8z"/>
                  <g id="XMLID_215_">
                    <polygon id="XMLID_224_" style="fill:#EA4886;" points="881.2,382.4 868.2,374.8 868.2,290.6 881.2,298.1    "/>
                    <polygon id="XMLID_223_" style="fill:#3C2768;" points="894.3,389.9 881.2,382.4 881.2,333.7 894.3,341.3    "/>
                    <polygon id="XMLID_222_" style="fill:#3C2768;" points="992.4,446.5 979.4,439 979.4,341.8 992.4,349.3    "/>
                    <polygon id="XMLID_221_" style="fill:#3C2768;" points="992.4,446.5 979.4,439 979.4,341.8 992.4,349.3    "/>
                    <polygon id="XMLID_220_" style="fill:#EA4886;" points="979.4,439 966.3,431.5 966.3,386.4 979.4,393.9    "/>
                    <polygon id="XMLID_219_" style="fill:#3C2768;" points="946.4,420 933.3,412.5 933.3,357.8 946.4,365.3    "/>
                    <polygon id="XMLID_218_" style="fill:#3C2768;" points="920.3,404.9 907.3,397.4 907.3,326.7 920.3,334.2    "/>
                    <polygon id="XMLID_217_" style="fill:#FF3333;" points="933.3,412.5 920.3,404.9 920.3,366.3 933.3,373.8    "/>
                    <polygon id="XMLID_216_" style="fill:#EA4886;" points="907.3,397.4 894.3,389.9 894.3,365.6 907.3,373.1    "/>
                  </g>
                </g>
                <g id="rectangle">
                  <g>
                    <path style="fill:#21252966;fill-opacity:0.3;" d="M367.1,281.6c-0.8,2.3-2.6,4.2-4.9,5.2l-61.9,26.6c-3,1.3-6.4,0.9-8.9-1.1
                      c-2.6-1.9-3.9-5.1-3.6-8.3l7.9-66.9c0.4-3.2,2.4-5.9,5.4-7.2c3-1.3,6.4-0.9,8.9,1l54,40.3c2.6,1.9,3.9,5.1,3.6,8.3
                      C367.5,280.3,367.3,281,367.1,281.6z M307.5,290.7l33.3-14.3l-29-21.7L307.5,290.7z"/>
                  </g>
                  <g>
                    
                      <linearGradient id="SVGID_23_" gradientUnits="userSpaceOnUse" x1="2547.7927" y1="-498.1971" x2="2742.9009" y2="-391.1368" gradientTransform="matrix(0.3425 -0.9395 0.9395 0.3425 -123.9398 2846.3311)">
                      <stop  offset="0" style="stop-color:#8C4FDB"/>
                      <stop  offset="1" style="stop-color:#FF454B"/>
                    </linearGradient>
                    <path style="fill:url(#SVGID_23_);" d="M367.1,260.6c-0.8,2.3-2.6,4.2-4.9,5.2l-61.9,26.6c-3,1.3-6.4,0.9-8.9-1.1
                      c-2.6-1.9-3.9-5.1-3.6-8.3l7.9-66.9c0.4-3.2,2.4-5.9,5.4-7.2c3-1.3,6.4-0.9,8.9,1l54,40.3c2.6,1.9,3.9,5.1,3.6,8.3
                      C367.5,259.3,367.3,260,367.1,260.6z M307.5,269.7l33.3-14.3l-29-21.7L307.5,269.7z"/>
                  </g>
                </g>
                </svg>