<svg width="12" height="12" viewBox="0 0 12 12" fill="none" xmlns="http://www.w3.org/2000/svg">
<path d="M12 0.827756V4.55266C12 5.01025 11.6299 5.38041 11.1724 5.38041H7.44828C6.99078 5.38041 6.62069 5.01025 6.62069 4.55266C6.62069 4.09506 6.99078 3.7249 7.44828 3.7249H9.08767C8.31259 2.69797 7.08983 2.07508 5.78767 2.07508C3.50948 2.07508 1.65517 3.92925 1.65517 6.20817C1.65517 8.48708 3.50922 10.3418 5.78793 10.3418C6.69 10.3418 7.54733 10.0565 8.26759 9.51557C8.63534 9.24319 9.15259 9.3151 9.42647 9.68047C9.70035 10.0468 9.6269 10.5657 9.26159 10.8396C8.2522 11.597 7.05401 12 5.7909 12C2.59914 11.9999 0 9.4002 0 6.20817C0 3.01613 2.59914 0.416465 5.79052 0.416465C7.57888 0.416465 9.25603 1.25638 10.3448 2.64416V0.827756C10.3448 0.370162 10.7149 0 11.1724 0C11.6299 0 12 0.370162 12 0.827756Z" fill="#3145FF"/>
</svg>
