<svg xmlns="http://www.w3.org/2000/svg" viewBox="0.452001 0.0919994 90.19 62.25">
  <path d="m7.08 4.632c2.304 0 4.064.52 5.28 1.56 1.216 1.024 1.824 2.608 1.824 4.752v7.056h-5.04v-1.728c-.624 1.312-1.864 1.968-3.72 1.968-1.04 0-1.928-.176-2.664-.528-.72-.368-1.272-.856-1.656-1.464-.368-.624-.552-1.32-.552-2.088 0-1.296.496-2.28 1.488-2.952.992-.672 2.496-1.008 4.512-1.008h2.184c-.176-1.024-1-1.536-2.472-1.536-.592 0-1.192.096-1.8.288-.608.176-1.128.424-1.56.744l-1.728-3.576c.752-.464 1.656-.824 2.712-1.08 1.072-.272 2.136-.408 3.192-.408zm-.024 10.344c.384 0 .728-.104 1.032-.312.304-.208.528-.52.672-.936v-.912h-1.344c-1.104 0-1.656.368-1.656 1.104 0 .304.112.56.336.768.24.192.56.288.96.288zm18.2321-10.344c1.152 0 2.208.28 3.168.84.976.544 1.744 1.336 2.304 2.376.576 1.024.864 2.216.864 3.576 0 1.36-.288 2.56-.864 3.6-.56 1.04-1.328 1.84-2.304 2.4-.96.544-2.016.816-3.168.816-1.616 0-2.816-.44-3.6-1.32v1.08h-5.16v-17.808h5.424v5.568c.768-.752 1.88-1.128 3.336-1.128zm-1.296 9.384c.624 0 1.136-.224 1.536-.672.4-.464.6-1.104.6-1.92 0-.816-.2-1.448-.6-1.896-.4-.448-.912-.672-1.536-.672-.624 0-1.136.224-1.536.672-.4.448-.6 1.08-.6 1.896 0 .816.2 1.456.6 1.92.4.448.912.672 1.536.672zm16.2767 4.224c-1.456 0-2.768-.288-3.936-.864-1.152-.592-2.056-1.4-2.712-2.424-.656-1.04-.984-2.216-.984-3.528 0-1.312.328-2.48.984-3.504.656-1.04 1.56-1.848 2.712-2.424 1.168-.576 2.48-.864 3.936-.864 1.472 0 2.784.288 3.936.864 1.168.576 2.072 1.384 2.712 2.424.656 1.024.984 2.192.984 3.504 0 1.312-.328 2.488-.984 3.528-.64 1.024-1.544 1.832-2.712 2.424-1.152.576-2.464.864-3.936.864zm0-4.224c.624 0 1.136-.224 1.536-.672.4-.464.6-1.104.6-1.92 0-.816-.2-1.448-.6-1.896-.4-.448-.912-.672-1.536-.672-.624 0-1.136.224-1.536.672-.4.448-.6 1.08-.6 1.896 0 .816.2 1.456.6 1.92.4.448.912.672 1.536.672zm23.6816-9.144v13.128h-5.16v-1.248c-.48.496-1.04.872-1.68 1.128-.64.24-1.32.36-2.04.36-1.664 0-3-.504-4.008-1.512-1.008-1.024-1.512-2.56-1.512-4.608v-7.248h5.424v6.312c0 .896.144 1.536.432 1.92.288.384.712.576 1.272.576.528 0 .968-.208 1.32-.624.352-.432.528-1.104.528-2.016v-6.168h5.424zm12.0779 12.672c-.816.464-1.928.696-3.336.696-1.84 0-3.256-.44-4.248-1.32-.992-.896-1.488-2.232-1.488-4.008v-3.36h-1.8001v-3.96h1.8001v-3.672h5.424v3.672h2.688v3.96h-2.688v3.312c0 .4.104.712.312.936.208.224.48.336.816.336.464 0 .872-.12 1.224-.36l1.296 3.768zm-74.8283 9.328h5.424v13.128h-5.424v-13.128zm2.712-1.056c-.976 0-1.768-.256-2.376-.768-.592-.528-.888-1.192-.888-1.992 0-.8.296-1.456.888-1.968.608-.528 1.4-.792 2.376-.792.992 0 1.784.248 2.376.744.592.496.888 1.136.888 1.92 0 .832-.296 1.52-.888 2.064-.592.528-1.384.792-2.376.792zm14.2361.816c1.616 0 2.912.488 3.888 1.464.992.976 1.488 2.448 1.488 4.416v7.488h-5.424v-6.552c0-1.504-.536-2.256-1.608-2.256-.608 0-1.104.216-1.488.648-.368.416-.552 1.08-.552 1.992v6.168h-5.424v-13.128h5.16v1.296c.512-.512 1.104-.896 1.776-1.152.672-.256 1.4-.384 2.184-.384zm22.1132.24-5.28 13.128h-5.616l-5.28-13.128h5.568l2.64 7.032 2.832-7.032h5.136zm7.4138 13.368c-1.456 0-2.768-.288-3.936-.864-1.152-.592-2.056-1.4-2.712-2.424-.656-1.04-.984-2.216-.984-3.528 0-1.312.328-2.48.984-3.504.656-1.04 1.56-1.848 2.712-2.424 1.168-.576 2.48-.864 3.936-.864 1.472 0 2.784.288 3.936.864 1.168.576 2.072 1.384 2.712 2.424.656 1.024.984 2.192.984 3.504 0 1.312-.328 2.488-.984 3.528-.64 1.024-1.544 1.832-2.712 2.424-1.152.576-2.464.864-3.936.864zm0-4.224c.624 0 1.136-.224 1.536-.672.4-.464.6-1.104.6-1.92 0-.816-.2-1.448-.6-1.896-.4-.448-.912-.672-1.536-.672-.624 0-1.136.224-1.536.672-.4.448-.6 1.08-.6 1.896 0 .816.2 1.456.6 1.92.4.448.912.672 1.536.672zm9.3296-13.824h5.424v17.808h-5.424v-17.808zm19.1876 17.352c-.816.464-1.928.696-3.336.696-1.84 0-3.256-.44-4.248-1.32-.992-.896-1.488-2.232-1.488-4.008v-3.36h-1.8v-3.96h1.8v-3.672h5.424v3.672h2.688v3.96h-2.688v3.312c0 .4.104.712.312.936.208.224.48.336.816.336.464 0 .872-.12 1.224-.36l1.296 3.768zm7.2471-12.912c2.304 0 4.064.52 5.28 1.56 1.216 1.024 1.824 2.608 1.824 4.752v7.056h-5.04v-1.728c-.624 1.312-1.864 1.968-3.72 1.968-1.04 0-1.928-.176-2.664-.528-.72-.368-1.272-.856-1.656-1.464-.368-.624-.552-1.32-.552-2.088 0-1.296.496-2.28 1.488-2.952.992-.672 2.496-1.008 4.512-1.008h2.184c-.176-1.024-1-1.536-2.472-1.536-.592 0-1.192.096-1.8.288-.608.176-1.128.424-1.56.744l-1.728-3.576c.752-.464 1.656-.824 2.712-1.08 1.072-.272 2.136-.408 3.192-.408zm-.024 10.344c.384 0 .728-.104 1.032-.312.304-.208.528-.52.672-.936v-.912h-1.344c-1.104 0-1.656.368-1.656 1.104 0 .304.112.56.336.768.24.192.56.288.96.288zm-82.2154 11.896h5.424v13.128h-5.424v-13.128zm2.712-1.056c-.976 0-1.768-.256-2.376-.768-.592-.528-.888-1.192-.888-1.992 0-.8.296-1.456.888-1.968.608-.528 1.4-.792 2.376-.792.992 0 1.784.248 2.376.744.592.496.888 1.136.888 1.92 0 .832-.296 1.52-.888 2.064-.592.528-1.384.792-2.376.792zm14.2361.816c1.616 0 2.912.488 3.888 1.464.992.976 1.488 2.448 1.488 4.416v7.488h-5.424v-6.552c0-1.504-.536-2.256-1.608-2.256-.608 0-1.104.216-1.488.648-.368.416-.552 1.08-.552 1.992v6.168h-5.424v-13.128h5.16v1.296c.512-.512 1.104-.896 1.776-1.152.672-.256 1.4-.384 2.184-.384zm15.022 13.608c-1.488 0-2.824-.288-4.008-.864-1.168-.576-2.088-1.384-2.76-2.424-.656-1.04-.984-2.216-.984-3.528 0-1.312.328-2.48.984-3.504.672-1.04 1.592-1.848 2.76-2.424 1.184-.576 2.52-.864 4.008-.864 1.6 0 2.968.344 4.104 1.032 1.136.688 1.92 1.64 2.352 2.856l-4.2 2.064c-.512-1.152-1.272-1.728-2.28-1.728-.64 0-1.176.224-1.608.672-.416.448-.624 1.08-.624 1.896 0 .832.208 1.472.624 1.92.432.448.968.672 1.608.672 1.008 0 1.768-.576 2.28-1.728l4.2 2.064c-.432 1.216-1.216 2.168-2.352 2.856-1.136.688-2.504 1.032-4.104 1.032zm10.6263 0c-.912 0-1.672-.288-2.28-.864-.592-.592-.888-1.344-.888-2.256 0-.912.296-1.648.888-2.208.608-.576 1.368-.864 2.28-.864.912 0 1.664.288 2.256.864.608.56.912 1.296.912 2.208 0 .912-.304 1.664-.912 2.256-.592.576-1.344.864-2.256.864z" fill="#fff"/>
</svg>