<svg width="10" height="49" viewBox="0 0 10 49" fill="none" xmlns="http://www.w3.org/2000/svg">
<path d="M0.94 3.672C0.94 3.056 1.044 2.468 1.252 1.908C1.468 1.356 1.744 0.924 2.08 0.612L2.536 0.888C2.224 1.184 1.968 1.58 1.768 2.076C1.576 2.58 1.48 3.108 1.48 3.66C1.48 4.46 1.632 5.064 1.936 5.472C2.24 5.88 2.636 6.084 3.124 6.084C3.5 6.084 3.8 5.976 4.024 5.76C4.248 5.544 4.42 5.276 4.54 4.956C4.66 4.636 4.784 4.204 4.912 3.66C5.064 3.044 5.212 2.548 5.356 2.172C5.5 1.804 5.72 1.488 6.016 1.224C6.32 0.968 6.724 0.84 7.228 0.84C7.636 0.84 8.008 0.948 8.344 1.164C8.688 1.38 8.96 1.708 9.16 2.148C9.36 2.596 9.46 3.152 9.46 3.816C9.46 4.28 9.392 4.736 9.256 5.184C9.12 5.632 8.936 6.02 8.704 6.348L8.212 6.12C8.444 5.784 8.62 5.412 8.74 5.004C8.86 4.604 8.92 4.208 8.92 3.816C8.92 3.04 8.764 2.452 8.452 2.052C8.14 1.652 7.736 1.452 7.24 1.452C6.864 1.452 6.564 1.56 6.34 1.776C6.116 1.992 5.944 2.26 5.824 2.58C5.704 2.9 5.576 3.336 5.44 3.888C5.288 4.504 5.14 4.996 4.996 5.364C4.852 5.732 4.632 6.044 4.336 6.3C4.048 6.564 3.656 6.696 3.16 6.696C2.752 6.696 2.38 6.584 2.044 6.36C1.708 6.144 1.44 5.808 1.24 5.352C1.04 4.896 0.94 4.336 0.94 3.672ZM0.939999 12.3285C0.939999 11.5045 1.124 10.7605 1.492 10.0965C1.86 9.4405 2.368 8.9205 3.016 8.5365C3.664 8.1605 4.392 7.9725 5.2 7.9725C6.008 7.9725 6.736 8.1605 7.384 8.5365C8.032 8.9205 8.54 9.4405 8.908 10.0965C9.276 10.7605 9.46 11.5045 9.46 12.3285C9.46 12.9365 9.36 13.4965 9.16 14.0085C8.968 14.5205 8.68 14.9565 8.296 15.3165L7.9 14.9325C8.564 14.2605 8.896 13.4005 8.896 12.3525C8.896 11.6485 8.736 11.0085 8.416 10.4325C8.096 9.8565 7.652 9.4045 7.084 9.0765C6.524 8.7485 5.896 8.5845 5.2 8.5845C4.504 8.5845 3.872 8.7485 3.304 9.0765C2.744 9.4045 2.304 9.8565 1.984 10.4325C1.664 11.0085 1.504 11.6485 1.504 12.3525C1.504 13.3925 1.84 14.2525 2.512 14.9325L2.116 15.3165C1.732 14.9565 1.44 14.5165 1.24 13.9965C1.04 13.4845 0.939999 12.9285 0.939999 12.3285ZM0.999999 23.1983L3.808 21.1943C3.768 20.8983 3.748 20.6263 3.748 20.3783L3.748 17.9783L0.999999 17.9783L0.999999 17.3663L9.4 17.3663L9.4 20.3783C9.4 21.4343 9.148 22.2623 8.644 22.8623C8.148 23.4623 7.456 23.7623 6.568 23.7623C5.904 23.7623 5.344 23.5903 4.888 23.2463C4.44 22.9103 4.124 22.4263 3.94 21.7943L0.999999 23.8943L0.999999 23.1983ZM4.288 20.3783C4.288 21.2743 4.484 21.9583 4.876 22.4303C5.276 22.9023 5.84 23.1383 6.568 23.1383C7.296 23.1383 7.856 22.9023 8.248 22.4303C8.648 21.9583 8.848 21.2743 8.848 20.3783L8.848 17.9783L4.288 17.9783L4.288 20.3783ZM0.939999 29.5671C0.939999 28.7431 1.124 27.9991 1.492 27.3351C1.868 26.6711 2.38 26.1471 3.028 25.7631C3.676 25.3871 4.4 25.1991 5.2 25.1991C6 25.1991 6.724 25.3871 7.372 25.7631C8.02 26.1471 8.528 26.6711 8.896 27.3351C9.272 27.9991 9.46 28.7431 9.46 29.5671C9.46 30.3911 9.276 31.1351 8.908 31.7991C8.54 32.4631 8.032 32.9831 7.384 33.3591C6.736 33.7431 6.008 33.9351 5.2 33.9351C4.392 33.9351 3.664 33.7431 3.016 33.3591C2.368 32.9831 1.86 32.4631 1.492 31.7991C1.124 31.1351 0.939999 30.3911 0.939999 29.5671ZM1.504 29.5671C1.504 30.2711 1.664 30.9071 1.984 31.4751C2.304 32.0431 2.744 32.4911 3.304 32.8191C3.872 33.1471 4.504 33.3111 5.2 33.3111C5.896 33.3111 6.524 33.1471 7.084 32.8191C7.652 32.4911 8.096 32.0431 8.416 31.4751C8.736 30.9071 8.896 30.2711 8.896 29.5671C8.896 28.8631 8.736 28.2231 8.416 27.6471C8.096 27.0791 7.652 26.6311 7.084 26.3031C6.524 25.9751 5.896 25.8111 5.2 25.8111C4.504 25.8111 3.872 25.9751 3.304 26.3031C2.744 26.6311 2.304 27.0791 1.984 27.6471C1.664 28.2231 1.504 28.8631 1.504 29.5671ZM9.4 36.0577L9.4 36.6697L1.552 36.6697L1.552 41.5057L0.999998 41.5057L0.999998 36.0577L9.4 36.0577ZM9.4 43.0773L9.4 43.6893L1.552 43.6893L1.552 48.5253L0.999998 48.5253L0.999998 43.0773L9.4 43.0773Z" fill="white"/>
</svg>
