<svg width="471" height="226" viewBox="0 0 471 226" fill="none" xmlns="http://www.w3.org/2000/svg">
<path d="M5.25 35H33.5V103.375H5.25V35ZM19.375 29.5C14.2917 29.5 10.1667 28.1667 7 25.5C3.91667 22.75 2.375 19.2917 2.375 15.125C2.375 10.9583 3.91667 7.54166 7 4.87499C10.1667 2.12499 14.2917 0.749995 19.375 0.749995C24.5417 0.749995 28.6667 2.04166 31.75 4.625C34.8333 7.20833 36.375 10.5417 36.375 14.625C36.375 18.9583 34.8333 22.5417 31.75 25.375C28.6667 28.125 24.5417 29.5 19.375 29.5ZM93.5215 33.75C101.938 33.75 108.688 36.2917 113.771 41.375C118.938 46.4583 121.521 54.125 121.521 64.375V103.375H93.2715V69.25C93.2715 61.4167 90.4798 57.5 84.8965 57.5C81.7298 57.5 79.1465 58.625 77.1465 60.875C75.2298 63.0417 74.2715 66.5 74.2715 71.25V103.375H46.0215V35H72.8965V41.75C75.5632 39.0833 78.6465 37.0833 82.1465 35.75C85.6465 34.4167 89.4382 33.75 93.5215 33.75ZM208.694 35L181.194 103.375H151.944L124.444 35H153.444L167.194 71.625L181.944 35H208.694ZM247.308 104.625C239.724 104.625 232.891 103.125 226.808 100.125C220.808 97.0417 216.099 92.8333 212.683 87.5C209.266 82.0833 207.558 75.9583 207.558 69.125C207.558 62.2917 209.266 56.2083 212.683 50.875C216.099 45.4583 220.808 41.25 226.808 38.25C232.891 35.25 239.724 33.75 247.308 33.75C254.974 33.75 261.808 35.25 267.808 38.25C273.891 41.25 278.599 45.4583 281.933 50.875C285.349 56.2083 287.058 62.2917 287.058 69.125C287.058 75.9583 285.349 82.0833 281.933 87.5C278.599 92.8333 273.891 97.0417 267.808 100.125C261.808 103.125 254.974 104.625 247.308 104.625ZM247.308 82.625C250.558 82.625 253.224 81.4583 255.308 79.125C257.391 76.7083 258.433 73.375 258.433 69.125C258.433 64.875 257.391 61.5833 255.308 59.25C253.224 56.9167 250.558 55.75 247.308 55.75C244.058 55.75 241.391 56.9167 239.308 59.25C237.224 61.5833 236.183 64.875 236.183 69.125C236.183 73.375 237.224 76.7083 239.308 79.125C241.391 81.4583 244.058 82.625 247.308 82.625ZM295.899 10.625H324.149V103.375H295.899V10.625ZM395.835 101C391.585 103.417 385.793 104.625 378.46 104.625C368.877 104.625 361.502 102.333 356.335 97.75C351.168 93.0833 348.585 86.125 348.585 76.875V59.375H339.21V38.75H348.585V19.625H376.835V38.75H390.835V59.375H376.835V76.625C376.835 78.7083 377.377 80.3333 378.46 81.5C379.543 82.6667 380.96 83.25 382.71 83.25C385.127 83.25 387.252 82.625 389.085 81.375L395.835 101ZM433.58 33.75C445.58 33.75 454.747 36.4583 461.08 41.875C467.413 47.2083 470.58 55.4583 470.58 66.625V103.375H444.33V94.375C441.08 101.208 434.622 104.625 424.955 104.625C419.538 104.625 414.913 103.708 411.08 101.875C407.33 99.9583 404.455 97.4167 402.455 94.25C400.538 91 399.58 87.375 399.58 83.375C399.58 76.625 402.163 71.5 407.33 68C412.497 64.5 420.33 62.75 430.83 62.75H442.205C441.288 57.4167 436.997 54.75 429.33 54.75C426.247 54.75 423.122 55.25 419.955 56.25C416.788 57.1667 414.08 58.4583 411.83 60.125L402.83 41.5C406.747 39.0833 411.455 37.2083 416.955 35.875C422.538 34.4583 428.08 33.75 433.58 33.75ZM433.455 87.625C435.455 87.625 437.247 87.0833 438.83 86C440.413 84.9167 441.58 83.2917 442.33 81.125V76.375H435.33C429.58 76.375 426.705 78.2917 426.705 82.125C426.705 83.7083 427.288 85.0417 428.455 86.125C429.705 87.125 431.372 87.625 433.455 87.625ZM38.75 225.375C31.5 225.375 24.4167 224.583 17.5 223C10.6667 221.333 5.04167 219.125 0.625 216.375L10.125 194.875C14.2917 197.292 18.9583 199.25 24.125 200.75C29.2917 202.167 34.25 202.875 39 202.875C43.0833 202.875 46 202.5 47.75 201.75C49.5 200.917 50.375 199.708 50.375 198.125C50.375 196.292 49.2083 194.917 46.875 194C44.625 193.083 40.875 192.083 35.625 191C28.875 189.583 23.25 188.083 18.75 186.5C14.25 184.833 10.3333 182.167 7 178.5C3.66667 174.75 2 169.708 2 163.375C2 157.875 3.54167 152.875 6.625 148.375C9.70833 143.875 14.2917 140.333 20.375 137.75C26.5417 135.167 34 133.875 42.75 133.875C48.75 133.875 54.625 134.542 60.375 135.875C66.2083 137.125 71.3333 139 75.75 141.5L66.875 162.875C58.2917 158.542 50.1667 156.375 42.5 156.375C34.9167 156.375 31.125 158.208 31.125 161.875C31.125 163.625 32.25 164.958 34.5 165.875C36.75 166.708 40.4583 167.625 45.625 168.625C52.2917 169.875 57.9167 171.333 62.5 173C67.0833 174.583 71.0417 177.208 74.375 180.875C77.7917 184.542 79.5 189.542 79.5 195.875C79.5 201.375 77.9583 206.375 74.875 210.875C71.7917 215.292 67.1667 218.833 61 221.5C54.9167 224.083 47.5 225.375 38.75 225.375ZM123.528 224.625C115.945 224.625 109.112 223.125 103.028 220.125C97.0283 217.042 92.32 212.833 88.9033 207.5C85.4867 202.083 83.7783 195.958 83.7783 189.125C83.7783 182.292 85.4867 176.208 88.9033 170.875C92.32 165.458 97.0283 161.25 103.028 158.25C109.112 155.25 115.945 153.75 123.528 153.75C131.195 153.75 138.028 155.25 144.028 158.25C150.112 161.25 154.82 165.458 158.153 170.875C161.57 176.208 163.278 182.292 163.278 189.125C163.278 195.958 161.57 202.083 158.153 207.5C154.82 212.833 150.112 217.042 144.028 220.125C138.028 223.125 131.195 224.625 123.528 224.625ZM123.528 202.625C126.778 202.625 129.445 201.458 131.528 199.125C133.612 196.708 134.653 193.375 134.653 189.125C134.653 184.875 133.612 181.583 131.528 179.25C129.445 176.917 126.778 175.75 123.528 175.75C120.278 175.75 117.612 176.917 115.528 179.25C113.445 181.583 112.403 184.875 112.403 189.125C112.403 193.375 113.445 196.708 115.528 199.125C117.612 201.458 120.278 202.625 123.528 202.625ZM208.87 224.625C201.12 224.625 194.162 223.125 187.995 220.125C181.912 217.125 177.12 212.917 173.62 207.5C170.203 202.083 168.495 195.958 168.495 189.125C168.495 182.292 170.203 176.208 173.62 170.875C177.12 165.458 181.912 161.25 187.995 158.25C194.162 155.25 201.12 153.75 208.87 153.75C217.203 153.75 224.328 155.542 230.245 159.125C236.162 162.708 240.245 167.667 242.495 174L220.62 184.75C217.953 178.75 213.995 175.75 208.745 175.75C205.412 175.75 202.62 176.917 200.37 179.25C198.203 181.583 197.12 184.875 197.12 189.125C197.12 193.458 198.203 196.792 200.37 199.125C202.62 201.458 205.412 202.625 208.745 202.625C213.995 202.625 217.953 199.625 220.62 193.625L242.495 204.375C240.245 210.708 236.162 215.667 230.245 219.25C224.328 222.833 217.203 224.625 208.87 224.625ZM296.524 153.75C304.941 153.75 311.691 156.292 316.774 161.375C321.941 166.458 324.524 174.125 324.524 184.375V223.375H296.274V189.25C296.274 181.417 293.483 177.5 287.899 177.5C284.733 177.5 282.149 178.625 280.149 180.875C278.233 183.042 277.274 186.5 277.274 191.25V223.375H249.024V130.625H277.274V160.5C282.524 156 288.941 153.75 296.524 153.75ZM336.793 155H365.043V223.375H336.793V155ZM350.918 149.5C345.835 149.5 341.71 148.167 338.543 145.5C335.46 142.75 333.918 139.292 333.918 135.125C333.918 130.958 335.46 127.542 338.543 124.875C341.71 122.125 345.835 120.75 350.918 120.75C356.085 120.75 360.21 122.042 363.293 124.625C366.376 127.208 367.918 130.542 367.918 134.625C367.918 138.958 366.376 142.542 363.293 145.375C360.21 148.125 356.085 149.5 350.918 149.5Z" fill="white"/>
</svg>
