<svg width="315" height="71" viewBox="0 0 315 71" fill="none" xmlns="http://www.w3.org/2000/svg">
<path d="M30.464 56.216C24.84 56.216 19.7733 55.0507 15.264 52.72C10.7547 50.3387 7.208 47.0453 4.624 42.84C2.09067 38.584 0.824 33.7707 0.824 28.4C0.824 23.0293 2.09067 18.2413 4.624 14.036C7.208 9.78 10.7547 6.48666 15.264 4.156C19.7733 1.77466 24.84 0.583998 30.464 0.583998C35.632 0.583998 40.2427 1.496 44.296 3.32C48.3493 5.144 51.6933 7.77866 54.328 11.224L43.004 21.332C39.7107 17.1773 35.8347 15.1 31.376 15.1C27.6267 15.1 24.612 16.316 22.332 18.748C20.052 21.1293 18.912 24.3467 18.912 28.4C18.912 32.4533 20.052 35.696 22.332 38.128C24.612 40.5093 27.6267 41.7 31.376 41.7C35.8347 41.7 39.7107 39.6227 43.004 35.468L54.328 45.576C51.6933 49.0213 48.3493 51.656 44.296 53.48C40.2427 55.304 35.632 56.216 30.464 56.216ZM59.0632 13.428H76.1632V32.2L90.5272 13.428H106.335V55H89.2352V36.152L74.9472 55H59.0632V13.428ZM142.096 12.668C145.744 12.668 149.088 13.5547 152.128 15.328C155.219 17.0507 157.651 19.5587 159.424 22.852C161.248 26.1453 162.16 29.9453 162.16 34.252C162.16 38.5587 161.248 42.3587 159.424 45.652C157.651 48.8947 155.219 51.4027 152.128 53.176C149.088 54.8987 145.744 55.76 142.096 55.76C137.485 55.76 133.964 54.5693 131.532 52.188V69.744H114.356V13.428H130.696V16.848C133.179 14.0613 136.979 12.668 142.096 12.668ZM137.992 42.384C139.968 42.384 141.589 41.6747 142.856 40.256C144.123 38.8373 144.756 36.836 144.756 34.252C144.756 31.668 144.123 29.6667 142.856 28.248C141.589 26.7787 139.968 26.044 137.992 26.044C136.016 26.044 134.395 26.7787 133.128 28.248C131.861 29.6667 131.228 31.668 131.228 34.252C131.228 36.836 131.861 38.8373 133.128 40.256C134.395 41.6747 136.016 42.384 137.992 42.384ZM167.719 13.428H184.819V32.2L199.183 13.428H214.991V55H197.891V36.152L183.603 55H167.719V13.428ZM269.98 13.428L252.88 55.836C250.702 61.2573 247.991 65.0573 244.748 67.236C241.506 69.4147 237.528 70.504 232.816 70.504C230.486 70.504 228.13 70.1493 225.748 69.44C223.418 68.7813 221.568 67.8947 220.2 66.78L225.9 55C226.762 55.6587 227.724 56.1907 228.788 56.596C229.903 57.0013 230.967 57.204 231.98 57.204C233.855 57.204 235.274 56.6467 236.236 55.532L218.756 13.428H236.388L244.976 35.696L253.716 13.428H269.98ZM294.477 55.76C289.765 55.76 285.534 54.848 281.785 53.024C278.086 51.2 275.173 48.6413 273.045 45.348C270.967 42.0547 269.929 38.3307 269.929 34.176C269.929 30.0213 270.967 26.3227 273.045 23.08C275.173 19.7867 278.086 17.228 281.785 15.404C285.534 13.58 289.765 12.668 294.477 12.668C299.543 12.668 303.875 13.7573 307.473 15.936C311.07 18.1147 313.553 21.1293 314.921 24.98L301.621 31.516C299.999 27.868 297.593 26.044 294.401 26.044C292.374 26.044 290.677 26.7533 289.309 28.172C287.991 29.5907 287.333 31.592 287.333 34.176C287.333 36.8107 287.991 38.8373 289.309 40.256C290.677 41.6747 292.374 42.384 294.401 42.384C297.593 42.384 299.999 40.56 301.621 36.912L314.921 43.448C313.553 47.2987 311.07 50.3133 307.473 52.492C303.875 54.6707 299.543 55.76 294.477 55.76Z" fill="white"/>
</svg>
