<svg width="450" height="329" viewBox="0 0 450 329" fill="none" xmlns="http://www.w3.org/2000/svg">
<path d="M4.25 34.625H32.5V103H4.25V34.625ZM18.375 29.125C13.2917 29.125 9.16667 27.7917 6 25.125C2.91667 22.375 1.375 18.9167 1.375 14.75C1.375 10.5833 2.91667 7.16667 6 4.5C9.16667 1.75 13.2917 0.375 18.375 0.375C23.5417 0.375 27.6667 1.66667 30.75 4.25C33.8333 6.83333 35.375 10.1667 35.375 14.25C35.375 18.5833 33.8333 22.1667 30.75 25C27.6667 27.75 23.5417 29.125 18.375 29.125Z" fill="white"/>
<path d="M89.7715 33.375C98.1882 33.375 104.938 35.9167 110.021 41C115.188 46.0833 117.771 53.75 117.771 64V103H89.5215V68.875C89.5215 61.0417 86.7298 57.125 81.1465 57.125C77.9798 57.125 75.3965 58.25 73.3965 60.5C71.4798 62.6667 70.5215 66.125 70.5215 70.875V103H42.2715V34.625H69.1465V41.375C71.8131 38.7083 74.8965 36.7083 78.3965 35.375C81.8965 34.0417 85.6881 33.375 89.7715 33.375Z" fill="white"/>
<path d="M202.194 34.625L174.694 103H145.444L117.944 34.625H146.944L160.694 71.25L175.444 34.625H202.194Z" fill="white"/>
<path d="M237.058 104.25C229.474 104.25 222.641 102.75 216.558 99.75C210.558 96.6667 205.849 92.4583 202.433 87.125C199.016 81.7083 197.308 75.5833 197.308 68.75C197.308 61.9167 199.016 55.8333 202.433 50.5C205.849 45.0833 210.558 40.875 216.558 37.875C222.641 34.875 229.474 33.375 237.058 33.375C244.724 33.375 251.558 34.875 257.558 37.875C263.641 40.875 268.349 45.0833 271.683 50.5C275.099 55.8333 276.808 61.9167 276.808 68.75C276.808 75.5833 275.099 81.7083 271.683 87.125C268.349 92.4583 263.641 96.6667 257.558 99.75C251.558 102.75 244.724 104.25 237.058 104.25ZM237.058 82.25C240.308 82.25 242.974 81.0833 245.058 78.75C247.141 76.3333 248.183 73 248.183 68.75C248.183 64.5 247.141 61.2083 245.058 58.875C242.974 56.5417 240.308 55.375 237.058 55.375C233.808 55.375 231.141 56.5417 229.058 58.875C226.974 61.2083 225.933 64.5 225.933 68.75C225.933 73 226.974 76.3333 229.058 78.75C231.141 81.0833 233.808 82.25 237.058 82.25Z" fill="white"/>
<path d="M282.899 10.25H311.149V103H282.899V10.25Z" fill="white"/>
<path d="M375.085 100.625C370.835 103.042 365.043 104.25 357.71 104.25C348.127 104.25 340.752 101.958 335.585 97.375C330.418 92.7083 327.835 85.75 327.835 76.5V59H318.46V38.375H327.835V19.25H356.085V38.375H370.085V59H356.085V76.25C356.085 78.3333 356.627 79.9583 357.71 81.125C358.793 82.2917 360.21 82.875 361.96 82.875C364.377 82.875 366.502 82.25 368.335 81L375.085 100.625Z" fill="white"/>
<path d="M412.08 33.375C424.08 33.375 433.247 36.0833 439.58 41.5C445.913 46.8333 449.08 55.0833 449.08 66.25V103H422.83V94C419.58 100.833 413.122 104.25 403.455 104.25C398.038 104.25 393.413 103.333 389.58 101.5C385.83 99.5833 382.955 97.0417 380.955 93.875C379.038 90.625 378.08 87 378.08 83C378.08 76.25 380.663 71.125 385.83 67.625C390.997 64.125 398.83 62.375 409.33 62.375H420.705C419.788 57.0417 415.497 54.375 407.83 54.375C404.747 54.375 401.622 54.875 398.455 55.875C395.288 56.7917 392.58 58.0833 390.33 59.75L381.33 41.125C385.247 38.7083 389.955 36.8333 395.455 35.5C401.038 34.0833 406.58 33.375 412.08 33.375ZM411.955 87.25C413.955 87.25 415.747 86.7083 417.33 85.625C418.913 84.5417 420.08 82.9167 420.83 80.75V76H413.83C408.08 76 405.205 77.9167 405.205 81.75C405.205 83.3333 405.788 84.6667 406.955 85.75C408.205 86.75 409.872 87.25 411.955 87.25Z" fill="white"/>
<path d="M49.875 138.375C55.875 138.375 61.375 139.833 66.375 142.75C71.4583 145.583 75.4583 149.708 78.375 155.125C81.375 160.542 82.875 166.792 82.875 173.875C82.875 180.958 81.375 187.208 78.375 192.625C75.4583 197.958 71.4583 202.083 66.375 205C61.375 207.833 55.875 209.25 49.875 209.25C42.2917 209.25 36.5 207.292 32.5 203.375V232.25H4.25V139.625H31.125V145.25C35.2083 140.667 41.4583 138.375 49.875 138.375ZM43.125 187.25C46.375 187.25 49.0417 186.083 51.125 183.75C53.2083 181.417 54.25 178.125 54.25 173.875C54.25 169.625 53.2083 166.333 51.125 164C49.0417 161.583 46.375 160.375 43.125 160.375C39.875 160.375 37.2083 161.583 35.125 164C33.0417 166.333 32 169.625 32 173.875C32 178.125 33.0417 181.417 35.125 183.75C37.2083 186.083 39.875 187.25 43.125 187.25Z" fill="white"/>
<path d="M117.94 138.375C129.94 138.375 139.107 141.083 145.44 146.5C151.774 151.833 154.94 160.083 154.94 171.25V208H128.69V199C125.44 205.833 118.982 209.25 109.315 209.25C103.899 209.25 99.2738 208.333 95.4404 206.5C91.6904 204.583 88.8154 202.042 86.8154 198.875C84.8988 195.625 83.9404 192 83.9404 188C83.9404 181.25 86.5238 176.125 91.6904 172.625C96.8571 169.125 104.69 167.375 115.19 167.375H126.565C125.649 162.042 121.357 159.375 113.69 159.375C110.607 159.375 107.482 159.875 104.315 160.875C101.149 161.792 98.4404 163.083 96.1904 164.75L87.1904 146.125C91.1071 143.708 95.8154 141.833 101.315 140.5C106.899 139.083 112.44 138.375 117.94 138.375ZM117.815 192.25C119.815 192.25 121.607 191.708 123.19 190.625C124.774 189.542 125.94 187.917 126.69 185.75V181H119.69C113.94 181 111.065 182.917 111.065 186.75C111.065 188.333 111.649 189.667 112.815 190.75C114.065 191.75 115.732 192.25 117.815 192.25Z" fill="white"/>
<path d="M189.274 147C194.274 141.25 201.649 138.375 211.399 138.375V163.375C209.149 163.042 207.066 162.875 205.149 162.875C195.483 162.875 190.649 167.792 190.649 177.625V208H162.399V139.625H189.274V147Z" fill="white"/>
<path d="M273.625 205.625C269.375 208.042 263.583 209.25 256.25 209.25C246.667 209.25 239.292 206.958 234.125 202.375C228.958 197.708 226.375 190.75 226.375 181.5V164H217V143.375H226.375V124.25H254.625V143.375H268.625V164H254.625V181.25C254.625 183.333 255.167 184.958 256.25 186.125C257.333 187.292 258.75 187.875 260.5 187.875C262.917 187.875 265.042 187.25 266.875 186L273.625 205.625Z" fill="white"/>
<path d="M341.083 209.25C333.5 209.25 326.666 207.75 320.583 204.75C314.583 201.667 309.875 197.458 306.458 192.125C303.041 186.708 301.333 180.583 301.333 173.75C301.333 166.917 303.041 160.833 306.458 155.5C309.875 150.083 314.583 145.875 320.583 142.875C326.666 139.875 333.5 138.375 341.083 138.375C348.75 138.375 355.583 139.875 361.583 142.875C367.666 145.875 372.375 150.083 375.708 155.5C379.125 160.833 380.833 166.917 380.833 173.75C380.833 180.583 379.125 186.708 375.708 192.125C372.375 197.458 367.666 201.667 361.583 204.75C355.583 207.75 348.75 209.25 341.083 209.25ZM341.083 187.25C344.333 187.25 347 186.083 349.083 183.75C351.166 181.333 352.208 178 352.208 173.75C352.208 169.5 351.166 166.208 349.083 163.875C347 161.542 344.333 160.375 341.083 160.375C337.833 160.375 335.166 161.542 333.083 163.875C331 166.208 329.958 169.5 329.958 173.75C329.958 178 331 181.333 333.083 183.75C335.166 186.083 337.833 187.25 341.083 187.25Z" fill="white"/>
<path d="M416.425 143.375H431.3V164H417.3V208H389.05V164H379.675V143.375H389.05V143C389.05 134.083 391.716 127.042 397.05 121.875C402.383 116.625 409.883 114 419.55 114C422.716 114 425.8 114.292 428.8 114.875C431.8 115.458 434.3 116.292 436.3 117.375L429.55 137C427.216 135.917 425.091 135.375 423.175 135.375C421.091 135.375 419.425 136.042 418.175 137.375C417.008 138.625 416.425 140.583 416.425 143.25V143.375Z" fill="white"/>
<path d="M31 328.25C25.1667 328.25 19.4167 327.625 13.75 326.375C8.08333 325.125 3.5 323.5 0 321.5L7.75 302.875C10.9167 304.792 14.6667 306.292 19 307.375C23.3333 308.458 27.5417 309 31.625 309C34.875 309 37.125 308.75 38.375 308.25C39.7083 307.667 40.375 306.833 40.375 305.75C40.375 304.667 39.5417 303.917 37.875 303.5C36.2917 303.083 33.6667 302.667 30 302.25C24.4167 301.583 19.6667 300.75 15.75 299.75C11.8333 298.667 8.375 296.625 5.375 293.625C2.45833 290.625 1 286.333 1 280.75C1 276.333 2.33333 272.375 5 268.875C7.66667 265.375 11.625 262.583 16.875 260.5C22.2083 258.417 28.5833 257.375 36 257.375C41.1667 257.375 46.2083 257.875 51.125 258.875C56.125 259.792 60.375 261.167 63.875 263L56.125 281.625C50.125 278.292 43.5417 276.625 36.375 276.625C30.2083 276.625 27.125 277.708 27.125 279.875C27.125 280.958 27.9583 281.75 29.625 282.25C31.2917 282.667 33.9167 283.083 37.5 283.5C43.0833 284.167 47.7917 285.042 51.625 286.125C55.5417 287.208 58.9583 289.25 61.875 292.25C64.875 295.25 66.375 299.542 66.375 305.125C66.375 309.375 65.0417 313.25 62.375 316.75C59.7083 320.25 55.7083 323.042 50.375 325.125C45.0417 327.208 38.5833 328.25 31 328.25Z" fill="white"/>
<path d="M71.1787 258.625H99.4287V327H71.1787V258.625ZM85.3037 253.125C80.2204 253.125 76.0954 251.792 72.9287 249.125C69.8454 246.375 68.3037 242.917 68.3037 238.75C68.3037 234.583 69.8454 231.167 72.9287 228.5C76.0954 225.75 80.2204 224.375 85.3037 224.375C90.4704 224.375 94.5954 225.667 97.6787 228.25C100.762 230.833 102.304 234.167 102.304 238.25C102.304 242.583 100.762 246.167 97.6787 249C94.5954 251.75 90.4704 253.125 85.3037 253.125Z" fill="white"/>
<path d="M135.075 266C140.075 260.25 147.45 257.375 157.2 257.375V282.375C154.95 282.042 152.867 281.875 150.95 281.875C141.284 281.875 136.45 286.792 136.45 296.625V327H108.2V258.625H135.075V266Z" fill="white"/>
<path d="M161.457 258.625H189.707V327H161.457V258.625ZM175.582 253.125C170.499 253.125 166.374 251.792 163.207 249.125C160.124 246.375 158.582 242.917 158.582 238.75C158.582 234.583 160.124 231.167 163.207 228.5C166.374 225.75 170.499 224.375 175.582 224.375C180.749 224.375 184.874 225.667 187.957 228.25C191.04 230.833 192.582 234.167 192.582 238.25C192.582 242.583 191.04 246.167 187.957 249C184.874 251.75 180.749 253.125 175.582 253.125Z" fill="white"/>
<path d="M273.229 258.625V327H246.354V320.5C243.854 323.083 240.937 325.042 237.604 326.375C234.27 327.625 230.729 328.25 226.979 328.25C218.312 328.25 211.354 325.625 206.104 320.375C200.854 315.042 198.229 307.042 198.229 296.375V258.625H226.479V291.5C226.479 296.167 227.229 299.5 228.729 301.5C230.229 303.5 232.437 304.5 235.354 304.5C238.104 304.5 240.395 303.417 242.229 301.25C244.062 299 244.979 295.5 244.979 290.75V258.625H273.229Z" fill="white"/>
<path d="M308.759 328.25C302.925 328.25 297.175 327.625 291.509 326.375C285.842 325.125 281.259 323.5 277.759 321.5L285.509 302.875C288.675 304.792 292.425 306.292 296.759 307.375C301.092 308.458 305.3 309 309.384 309C312.634 309 314.884 308.75 316.134 308.25C317.467 307.667 318.134 306.833 318.134 305.75C318.134 304.667 317.3 303.917 315.634 303.5C314.05 303.083 311.425 302.667 307.759 302.25C302.175 301.583 297.425 300.75 293.509 299.75C289.592 298.667 286.134 296.625 283.134 293.625C280.217 290.625 278.759 286.333 278.759 280.75C278.759 276.333 280.092 272.375 282.759 268.875C285.425 265.375 289.384 262.583 294.634 260.5C299.967 258.417 306.342 257.375 313.759 257.375C318.925 257.375 323.967 257.875 328.884 258.875C333.884 259.792 338.134 261.167 341.634 263L333.884 281.625C327.884 278.292 321.3 276.625 314.134 276.625C307.967 276.625 304.884 277.708 304.884 279.875C304.884 280.958 305.717 281.75 307.384 282.25C309.05 282.667 311.675 283.083 315.259 283.5C320.842 284.167 325.55 285.042 329.384 286.125C333.3 287.208 336.717 289.25 339.634 292.25C342.634 295.25 344.134 299.542 344.134 305.125C344.134 309.375 342.8 313.25 340.134 316.75C337.467 320.25 333.467 323.042 328.134 325.125C322.8 327.208 316.342 328.25 308.759 328.25Z" fill="white"/>
</svg>
