<svg width="346" height="151" viewBox="0 0 346 151" fill="none" xmlns="http://www.w3.org/2000/svg">
<path d="M1.8 21.428H18.976V63H1.8V21.428ZM10.388 18.084C7.29733 18.084 4.78933 17.2733 2.864 15.652C0.989333 13.98 0.0520001 11.8773 0.0520001 9.344C0.0520001 6.81066 0.989333 4.73333 2.864 3.112C4.78933 1.44 7.29733 0.603997 10.388 0.603997C13.5293 0.603997 16.0373 1.38933 17.912 2.96C19.7867 4.53066 20.724 6.55733 20.724 9.04C20.724 11.6747 19.7867 13.8533 17.912 15.576C16.0373 17.248 13.5293 18.084 10.388 18.084ZM55.4691 20.668C60.5864 20.668 64.6904 22.2133 67.7811 25.304C70.9224 28.3947 72.4931 33.056 72.4931 39.288V63H55.3171V42.252C55.3171 37.4893 53.6197 35.108 50.2251 35.108C48.2997 35.108 46.7291 35.792 45.5131 37.16C44.3477 38.4773 43.7651 40.58 43.7651 43.468V63H26.5891V21.428H42.9291V25.532C44.5504 23.9107 46.4251 22.6947 48.5531 21.884C50.6811 21.0733 52.9864 20.668 55.4691 20.668ZM125.494 21.428L108.774 63H90.9902L74.2702 21.428H91.9022L100.262 43.696L109.23 21.428H125.494ZM148.971 63.76C144.36 63.76 140.206 62.848 136.507 61.024C132.859 59.1493 129.996 56.5907 127.919 53.348C125.842 50.0547 124.803 46.3307 124.803 42.176C124.803 38.0213 125.842 34.3227 127.919 31.08C129.996 27.7867 132.859 25.228 136.507 23.404C140.206 21.58 144.36 20.668 148.971 20.668C153.632 20.668 157.787 21.58 161.435 23.404C165.134 25.228 167.996 27.7867 170.023 31.08C172.1 34.3227 173.139 38.0213 173.139 42.176C173.139 46.3307 172.1 50.0547 170.023 53.348C167.996 56.5907 165.134 59.1493 161.435 61.024C157.787 62.848 153.632 63.76 148.971 63.76ZM148.971 50.384C150.947 50.384 152.568 49.6747 153.835 48.256C155.102 46.7867 155.735 44.76 155.735 42.176C155.735 39.592 155.102 37.5907 153.835 36.172C152.568 34.7533 150.947 34.044 148.971 34.044C146.995 34.044 145.374 34.7533 144.107 36.172C142.84 37.5907 142.207 39.592 142.207 42.176C142.207 44.76 142.84 46.7867 144.107 48.256C145.374 49.6747 146.995 50.384 148.971 50.384ZM178.515 6.608H195.691V63H178.515V6.608ZM239.276 61.556C236.692 63.0253 233.17 63.76 228.712 63.76C222.885 63.76 218.401 62.3667 215.26 59.58C212.118 56.7427 210.548 52.512 210.548 46.888V36.248H204.848V23.708H210.548V12.08H227.724V23.708H236.236V36.248H227.724V46.736C227.724 48.0027 228.053 48.9907 228.712 49.7C229.37 50.4093 230.232 50.764 231.296 50.764C232.765 50.764 234.057 50.384 235.172 49.624L239.276 61.556ZM262.225 20.668C269.521 20.668 275.094 22.3147 278.945 25.608C282.795 28.8507 284.721 33.8667 284.721 40.656V63H268.761V57.528C266.785 61.6827 262.858 63.76 256.981 63.76C253.687 63.76 250.875 63.2027 248.545 62.088C246.265 60.9227 244.517 59.3773 243.301 57.452C242.135 55.476 241.553 53.272 241.553 50.84C241.553 46.736 243.123 43.62 246.265 41.492C249.406 39.364 254.169 38.3 260.553 38.3H267.469C266.911 35.0573 264.302 33.436 259.641 33.436C257.766 33.436 255.866 33.74 253.941 34.348C252.015 34.9053 250.369 35.6907 249.001 36.704L243.529 25.38C245.91 23.9107 248.773 22.7707 252.117 21.96C255.511 21.0987 258.881 20.668 262.225 20.668ZM262.149 53.424C263.365 53.424 264.454 53.0947 265.417 52.436C266.379 51.7773 267.089 50.7893 267.545 49.472V46.584H263.289C259.793 46.584 258.045 47.7493 258.045 50.08C258.045 51.0427 258.399 51.8533 259.109 52.512C259.869 53.12 260.882 53.424 262.149 53.424ZM22.472 122.168H19.204V136H2.028V94.428H19.204V109.02H22.928L32.048 94.428H50.136L36.76 114.34L50.972 136H30.756L22.472 122.168ZM71.7633 93.668C79.0593 93.668 84.6327 95.3147 88.4833 98.608C92.334 101.851 94.2593 106.867 94.2593 113.656V136H78.2993V130.528C76.3233 134.683 72.3967 136.76 66.5193 136.76C63.226 136.76 60.414 136.203 58.0833 135.088C55.8033 133.923 54.0553 132.377 52.8393 130.452C51.674 128.476 51.0913 126.272 51.0913 123.84C51.0913 119.736 52.662 116.62 55.8033 114.492C58.9447 112.364 63.7073 111.3 70.0913 111.3H77.0073C76.45 108.057 73.8407 106.436 69.1793 106.436C67.3047 106.436 65.4047 106.74 63.4793 107.348C61.554 107.905 59.9073 108.691 58.5393 109.704L53.0673 98.38C55.4487 96.9107 58.3113 95.7707 61.6553 94.96C65.05 94.0987 68.4193 93.668 71.7633 93.668ZM71.6873 126.424C72.9033 126.424 73.9927 126.095 74.9553 125.436C75.918 124.777 76.6273 123.789 77.0833 122.472V119.584H72.8273C69.3313 119.584 67.5833 120.749 67.5833 123.08C67.5833 124.043 67.938 124.853 68.6473 125.512C69.4073 126.12 70.4207 126.424 71.6873 126.424ZM128.998 93.668C132.646 93.668 135.99 94.5547 139.03 96.328C142.121 98.0507 144.553 100.559 146.326 103.852C148.15 107.145 149.062 110.945 149.062 115.252C149.062 119.559 148.15 123.359 146.326 126.652C144.553 129.895 142.121 132.403 139.03 134.176C135.99 135.899 132.646 136.76 128.998 136.76C124.388 136.76 120.866 135.569 118.434 133.188V150.744H101.258V94.428H117.598V97.848C120.081 95.0613 123.881 93.668 128.998 93.668ZM124.894 123.384C126.87 123.384 128.492 122.675 129.758 121.256C131.025 119.837 131.658 117.836 131.658 115.252C131.658 112.668 131.025 110.667 129.758 109.248C128.492 107.779 126.87 107.044 124.894 107.044C122.918 107.044 121.297 107.779 120.03 109.248C118.764 110.667 118.13 112.668 118.13 115.252C118.13 117.836 118.764 119.837 120.03 121.256C121.297 122.675 122.918 123.384 124.894 123.384ZM180.918 106.968C186.491 106.968 190.772 108.184 193.762 110.616C196.751 113.048 198.246 116.493 198.246 120.952C198.246 125.613 196.498 129.287 193.002 131.972C189.556 134.657 184.819 136 178.79 136H154.622V94.428H171.722V106.968H180.918ZM177.042 124.448C179.524 124.448 180.766 123.181 180.766 120.648C180.766 118.216 179.524 117 177.042 117H171.722V124.448H177.042ZM246.861 115.176C246.861 115.429 246.785 116.772 246.633 119.204H217.753C218.361 120.775 219.374 121.991 220.793 122.852C222.211 123.663 223.985 124.068 226.113 124.068C227.937 124.068 229.457 123.84 230.673 123.384C231.939 122.928 233.307 122.143 234.777 121.028L243.745 130.072C239.691 134.531 233.637 136.76 225.581 136.76C220.565 136.76 216.157 135.848 212.357 134.024C208.557 132.149 205.618 129.565 203.541 126.272C201.463 122.979 200.425 119.28 200.425 115.176C200.425 111.021 201.438 107.323 203.465 104.08C205.542 100.787 208.354 98.228 211.901 96.404C215.498 94.58 219.526 93.668 223.985 93.668C228.19 93.668 232.015 94.504 235.461 96.176C238.957 97.848 241.718 100.305 243.745 103.548C245.822 106.791 246.861 110.667 246.861 115.176ZM224.137 105.372C222.363 105.372 220.894 105.853 219.729 106.816C218.563 107.779 217.803 109.147 217.449 110.92H230.825C230.47 109.197 229.71 107.855 228.545 106.892C227.379 105.879 225.91 105.372 224.137 105.372ZM280.776 93.668C284.424 93.668 287.768 94.5547 290.808 96.328C293.898 98.0507 296.33 100.559 298.104 103.852C299.928 107.145 300.84 110.945 300.84 115.252C300.84 119.559 299.928 123.359 298.104 126.652C296.33 129.895 293.898 132.403 290.808 134.176C287.768 135.899 284.424 136.76 280.776 136.76C276.165 136.76 272.644 135.569 270.212 133.188V150.744H253.036V94.428H269.376V97.848C271.858 95.0613 275.658 93.668 280.776 93.668ZM276.672 123.384C278.648 123.384 280.269 122.675 281.536 121.256C282.802 119.837 283.436 117.836 283.436 115.252C283.436 112.668 282.802 110.667 281.536 109.248C280.269 107.779 278.648 107.044 276.672 107.044C274.696 107.044 273.074 107.779 271.808 109.248C270.541 110.667 269.908 112.668 269.908 115.252C269.908 117.836 270.541 119.837 271.808 121.256C273.074 122.675 274.696 123.384 276.672 123.384ZM323.068 93.668C330.364 93.668 335.937 95.3147 339.788 98.608C343.639 101.851 345.564 106.867 345.564 113.656V136H329.604V130.528C327.628 134.683 323.701 136.76 317.824 136.76C314.531 136.76 311.719 136.203 309.388 135.088C307.108 133.923 305.36 132.377 304.144 130.452C302.979 128.476 302.396 126.272 302.396 123.84C302.396 119.736 303.967 116.62 307.108 114.492C310.249 112.364 315.012 111.3 321.396 111.3H328.312C327.755 108.057 325.145 106.436 320.484 106.436C318.609 106.436 316.709 106.74 314.784 107.348C312.859 107.905 311.212 108.691 309.844 109.704L304.372 98.38C306.753 96.9107 309.616 95.7707 312.96 94.96C316.355 94.0987 319.724 93.668 323.068 93.668ZM322.992 126.424C324.208 126.424 325.297 126.095 326.26 125.436C327.223 124.777 327.932 123.789 328.388 122.472V119.584H324.132C320.636 119.584 318.888 120.749 318.888 123.08C318.888 124.043 319.243 124.853 319.952 125.512C320.712 126.12 321.725 126.424 322.992 126.424Z" fill="white"/>
</svg>
